<svg width="80" height="81" viewBox="0 0 80 81" fill="none" xmlns="http://www.w3.org/2000/svg">
<path d="M15.6961 52.156H17.4969V53.9568C15.6961 53.9568 17.4969 53.9568 15.6961 53.9568V52.156ZM24.6977 56.6576C26.4985 56.6576 24.6977 56.6576 26.4985 56.6576V54.8568H24.6977V56.6576ZM28.2977 60.2576C30.0985 60.2576 28.2977 60.2576 30.0985 60.2576V58.4568H28.2977V60.2576ZM35.4993 62.9584C37.2993 62.9584 35.4993 62.9584 37.2993 62.9584V61.1584H35.4993V62.9584ZM42.7009 62.0576H40.9009V63.8584C42.7009 63.8584 40.9009 63.8584 42.7009 63.8584V62.0576ZM48.1017 58.4576H46.3009V60.2584C48.1017 60.2584 46.3009 60.2584 48.1017 60.2584V58.4576ZM51.7025 58.4576H49.9025V60.2584C51.7025 60.2584 49.9025 60.2584 51.7025 60.2584V58.4576ZM56.2025 54.8568H54.4025V56.6576C56.2025 56.6576 54.4025 56.6576 56.2025 56.6576V54.8568ZM63.4041 52.156H61.6033V53.9568C63.4041 53.9568 61.6033 53.9568 63.4041 53.9568V52.156ZM63.6033 37.8128L64.3521 39.4504L66.0049 38.6944L65.2409 37.064L63.6033 37.8128ZM61.2521 40.8504L62.9049 40.0952L62.1409 38.4648L60.5033 39.2136L61.2521 40.8504ZM57.4025 40.6136L58.1505 42.2512L59.7321 41.528L59.8033 41.4952L59.0401 39.8648L57.4745 40.5808L57.4025 40.6136ZM51.2017 43.4144L51.9065 44.9552L51.9505 45.0512L52.1609 44.9552L53.6033 44.296L52.8393 42.6656L51.2017 43.4144ZM48.1129 44.7848L48.1857 44.9544L48.5713 45.8544L48.8217 46.4392L50.1873 45.8544L50.4921 45.724L50.1537 44.9544L49.7681 44.076L48.1129 44.7848ZM55.0505 43.6504L56.7033 42.8952L55.9393 41.2648L54.3017 42.0136L55.0505 43.6504ZM42.6489 49.252L44.3017 48.496L43.5377 46.8656L41.9009 47.6144L42.6489 49.252ZM46.6385 45.4656L45.7865 45.8552L45.0009 46.2144L45.2481 46.756L45.7489 47.852L47.4017 47.0968L47.2417 46.756L46.8201 45.856L46.6385 45.4656ZM19.4825 39.2064L17.8457 38.4576L17.0969 40.0952L18.7497 40.8504L19.4825 39.2064ZM20.2417 41.5392L21.8777 42.24L22.5713 40.5784L22.5521 40.5704L20.9169 39.8696L20.2081 41.524L20.2417 41.5392ZM16.3817 37.8056L14.7449 37.0568L13.9961 38.6944L15.6489 39.4504L16.3817 37.8056ZM24.9505 43.6504L25.6833 42.0064L24.0457 41.2576L23.2977 42.8952L24.9505 43.6504ZM27.8393 44.9552L28.0505 45.0512L28.0937 44.9552L28.7833 43.4072L27.1457 42.6584L26.3977 44.296L27.8393 44.9552ZM37.3513 49.252L38.0841 47.608L36.4465 46.8592L35.6977 48.496L37.3513 49.252ZM33.3473 45.4592L33.1657 45.8552L32.7545 46.7552L32.5985 47.096L34.2513 47.8512L34.7401 46.7552L34.9841 46.2072L34.2137 45.8552L33.3473 45.4592ZM29.4977 45.696L29.8457 45.8552L31.1505 46.4512L31.4169 45.8552L31.8185 44.9552L31.8849 44.8072L30.2473 44.0584L29.8369 44.9544L29.4977 45.696ZM27.2409 30.5648L26.5217 28.9144L24.8545 29.6416L25.5913 31.2848L27.2409 30.5648ZM20.2609 33.5008L19.5569 31.844L17.8825 32.5552L18.6041 34.2048L20.2609 33.5008ZM16.7729 34.9632L16.0681 33.3064L14.3937 34.0184L15.1153 35.668L16.7729 34.9632ZM29.4049 27.7176C28.7249 26.1024 28.2977 24.596 28.2977 23.3512C28.2977 16.8984 33.5473 11.6488 40.0001 11.6488C46.4529 11.6488 51.7017 16.8984 51.7017 23.3512C51.7017 24.5952 51.2745 26.1008 50.5961 27.7144L51.6577 28.1768L50.9385 29.8272L49.8433 29.3496C48.9081 31.2296 47.7209 33.1832 46.5089 35.0048L54.0577 38.1704L53.7097 39.0008L53.3617 39.8312L45.4745 36.5232C43.0929 39.9392 40.8921 42.5912 40.6913 42.8304L40.0001 43.6584L39.3089 42.8312C39.1089 42.592 36.9081 39.94 34.5265 36.524L26.6385 39.832L26.2905 39.0016L25.9425 38.1712L33.4921 35.0056C32.2809 33.1848 31.0937 31.232 30.1585 29.3528L29.0681 29.816L28.3465 28.1664L29.4049 27.7176ZM30.0985 23.3512C30.0985 25.9616 32.5361 30.34 35.1889 34.2944C35.3609 34.5496 35.5321 34.8032 35.7049 35.0544C35.8801 35.3088 36.0545 35.5616 36.2297 35.8104C37.6081 37.7744 38.9665 39.5496 40.0009 40.8336C41.0353 39.5496 42.3937 37.7744 43.7721 35.8104C43.9473 35.5616 44.1217 35.3088 44.2969 35.0544C44.4697 34.8032 44.6417 34.5496 44.8129 34.2944C47.4657 30.3408 49.9033 25.9624 49.9033 23.3512C49.9033 17.8912 45.4609 13.4496 40.0017 13.4496C34.5401 13.4496 30.0985 17.8912 30.0985 23.3512ZM23.7529 32.0272L23.0337 30.3768L21.3657 31.104L22.1025 32.7472L23.7529 32.0272ZM55.1457 29.64L53.4785 28.9128L52.7761 30.5704L54.4265 31.2896L55.1457 29.64ZM62.1185 32.5552L60.4441 31.844L59.7577 33.5088L61.4145 34.2128L62.1185 32.5552ZM58.6297 31.092L56.9553 30.3808L56.2689 32.0456L57.9257 32.7496L58.6297 31.092ZM65.6057 34.0176L63.9313 33.3064L63.2449 34.9704L64.9017 35.6752L65.6057 34.0176ZM68.8049 35.356V35.9448V35.9536V36.8536V37.4512V44.3568V44.9552V45.8552V46.4368V56.0048L40.0001 69.3504L11.1953 56.004V46.436V45.8544V44.9544V44.356V37.4504V36.8616V35.9528V35.356L12.5761 34.7744L13.2553 36.3648L13.2745 36.3728L13.2665 36.392L13.2825 36.4304L13.2433 36.4464L12.9953 37.0448V43.6016L16.8697 41.976L17.2177 42.8064L17.5665 43.6368L14.4225 44.9552L13.3161 45.4192L14.2817 45.8552L16.2745 46.7552L39.0993 57.0632V50.0536L38.8209 49.936L39.5105 48.2736L40.0001 48.4792L40.4809 48.2768L41.1873 49.9328L40.9001 50.0536V57.0632L63.7249 46.7552L65.7185 45.8552L66.6841 45.4192L65.5769 44.9552L62.4337 43.6368L62.7817 42.8064L63.1297 41.976L67.0049 43.6016V37.0488L66.7457 36.4416L66.7265 36.4336L66.7337 36.4144L66.7177 36.376L66.7561 36.36L67.4161 34.7704L68.8049 35.356ZM67.0049 47.2496L40.0001 59.4448L12.9953 47.2496V54.8552L40.0001 67.3672L67.0049 54.8552V47.2496ZM33.6993 22.4512C33.6993 18.9768 36.5257 16.1496 40.0001 16.1496C43.4745 16.1496 46.3009 18.976 46.3009 22.4512C46.3009 25.6192 43.9489 28.2408 40.9001 28.68C40.6057 28.7224 40.3057 28.752 40.0001 28.752C39.6937 28.752 39.3945 28.7224 39.1001 28.68C36.0513 28.2408 33.6993 25.6192 33.6993 22.4512ZM35.4993 22.4512C35.4993 23.34 35.7617 24.1664 36.2081 24.8648C36.5585 25.4136 37.0241 25.8816 37.5721 26.2344C38.0321 26.5304 38.5465 26.748 39.1001 26.8608C39.3913 26.92 39.6921 26.9512 40.0001 26.9512C40.3081 26.9512 40.6089 26.92 40.9001 26.8608C41.4505 26.7488 41.9633 26.532 42.4209 26.2384C42.9713 25.8848 43.4393 25.416 43.7913 24.8648C44.2377 24.1664 44.5001 23.3392 44.5001 22.4504C44.5001 19.9688 42.4809 17.9496 39.9993 17.9496C37.5185 17.9504 35.4993 19.9696 35.4993 22.4512Z" fill="#00B806"/>
</svg>
