<svg width="81" height="80" viewBox="0 0 81 80" fill="none" xmlns="http://www.w3.org/2000/svg">
<path d="M12.2012 17.4624H11.3556V15.6624H33.8324V11.2288H35.6324V12.1288V15.6624V16.5624V17.4624V21.0632H44.6348V17.4624V16.5624V15.6624V12.1288V11.2288H46.4348V15.6624H68.9652V17.4624H68.0652H46.434V21.0632H48.2348V22.864H46.434H44.634H35.6324H33.8324H32.0324V21.0632H33.8324V17.4624H12.2012ZM14.7348 25.1136L15.5636 22.2152L17.8996 22.9944L19.5716 21.3224L22.0244 22.9576L24.4908 22.136L26.1772 24.6648H29.3596V22.864H27.1404L25.226 19.992L22.2908 20.9704L19.342 19.0048L17.4132 20.9336L14.3484 19.912L13.3764 23.3144H12.2012H11.3548V25.1144H12.2012L14.7348 25.1136ZM69.338 22.8632L68.0652 21.5896L65.542 19.0672L63.5644 20.056L61.5868 19.0672L58.6908 21.9632L59.9636 23.236L61.9412 21.2584L63.5636 22.0696L65.186 21.2584L68.0644 24.136L69.338 22.8632ZM55.4628 21.0632H51.862V22.864H55.4628V21.0632ZM34.182 25.9968L30.3428 28.876L28.458 26.9912L25.3852 30.064H22.1572V31.8648H26.1308L28.4588 29.5368L30.1748 31.252L33.5372 28.7304L35.2572 32.1712L37.4604 31.0696L39.6636 32.1712L40.4692 30.5608L37.4612 29.0568L36.0636 29.7552L34.182 25.9968ZM50.062 32.2376L52.6228 29.6768L54.254 32.1248L57.986 30.2592L59.7868 32.0592L61.7644 31.0704L63.9668 32.172L64.7724 30.5616L61.7644 29.0576L60.142 29.8688L58.342 28.068L54.8724 29.8032L52.9028 26.8504L48.79 30.9632L50.062 32.2376ZM41.9612 29.1648H46.462V27.364H41.9612V29.1648ZM14.0556 30.0648H16.7564V28.2648H14.0556V30.0648ZM65.3644 26.464V28.2648H68.0644V26.464H65.3644ZM12.2012 34.5648H11.3284V36.3656H12.2284H68.0372H68.9372V34.5648H68.0644H12.2012ZM29.3316 67.8712V68.7712C31.1316 68.7712 29.3316 68.7712 31.1316 68.7712V67.8712V66.9712H29.3316V67.8712ZM38.3332 66.9704C40.134 66.9704 38.3332 66.9704 40.134 66.9704V65.1704H38.3332V66.9704ZM25.7308 64.2704C27.5308 64.2704 25.7308 64.2704 27.5308 64.2704V62.4696H25.7308V64.2704ZM14.9292 66.9704C16.73 66.9704 14.9292 66.9704 16.73 66.9704V65.1704H14.9292V66.9704ZM45.534 67.8712V68.7712C47.3348 68.7712 45.534 68.7712 47.3348 68.7712V67.8712V66.9712H45.534V67.8712ZM52.7356 66.0704C54.5356 66.0704 52.7356 66.0704 54.5356 66.0704V64.2704H52.7356V66.0704ZM56.3364 66.0704C58.1372 66.0704 56.3364 66.0704 58.1372 66.0704V64.2704H56.3364V66.0704ZM67.138 62.4696V64.2704C68.038 64.2704 68.038 64.2704 68.038 64.2704C68.038 64.2704 68.038 64.2704 68.938 64.2704V62.4696H68.038H67.138ZM62.6372 66.9704C64.4372 66.9704 62.6372 66.9704 64.4372 66.9704V65.1704H62.6372V66.9704ZM68.038 48.0672H68.938V49.868H68.038H59.9364V51.6688H68.038H68.938V53.4688H68.038H59.9364V55.2696H68.038H68.938V57.0696H68.038H59.9364V58.8704H68.038H68.938V60.6712H68.038H59.9364V61.5712H58.1364V60.6712H45.8156C44.206 61.804 42.2468 62.4712 40.1332 62.4712C38.0196 62.4712 36.0604 61.804 34.4508 60.6712H22.13V61.5712H20.33V60.6712H12.2284H11.3284V58.8704H12.2284H20.33V57.9704V57.0704H12.2284H11.3284V55.2704H12.2284H20.33V53.4696H12.2284H11.3284V51.6696H12.2284H20.33V49.8688H12.2284H11.3284V48.068H12.2284H20.33V47.168H22.13V48.068H31.318C31.9372 46.86 32.7948 45.7944 33.8324 44.9368V38.2344H35.6324V39.1344V43.7536C36.2028 43.4608 36.8052 43.2224 37.4332 43.044V39.1336V38.2336H39.234V39.1336V42.7096C39.5308 42.6824 39.8308 42.6672 40.134 42.6672C40.4372 42.6672 40.7372 42.6832 41.034 42.7096V39.1336V38.2336H42.834V39.1336V43.044C43.4612 43.2224 44.0636 43.4608 44.6348 43.7536V39.1344V38.2344H46.4348V44.9368C47.4716 45.7952 48.33 46.8608 48.9492 48.068H58.1372V47.168H59.9372V48.068L68.038 48.0672ZM43.8284 59.7696C44.322 59.5152 44.786 59.2152 45.2148 58.8696C45.8508 58.356 46.4092 57.7496 46.8652 57.0688C47.0572 56.7824 47.2252 56.48 47.3804 56.1688C47.5252 55.8776 47.6524 55.5776 47.7628 55.2688C47.9668 54.6944 48.1124 54.0936 48.182 53.468C48.2148 53.172 48.2356 52.8728 48.2356 52.568C48.2356 52.2632 48.2156 51.964 48.182 51.668C48.1124 51.0424 47.9668 50.4416 47.7628 49.8672C47.6524 49.5576 47.526 49.2576 47.3804 48.9672C47.2252 48.6568 47.0572 48.3536 46.8652 48.0672C46.7308 47.8672 46.586 47.6744 46.4348 47.4872C46.1612 47.1488 45.858 46.8368 45.5348 46.5464C45.2508 46.2912 44.9532 46.0504 44.6348 45.836C44.0796 45.464 43.474 45.1656 42.834 44.9392C42.5412 44.8352 42.2412 44.7456 41.934 44.6752C41.6396 44.608 41.3396 44.5536 41.034 44.52C40.738 44.4872 40.4388 44.4664 40.134 44.4664C39.8292 44.4664 39.5292 44.4864 39.234 44.52C38.9276 44.5536 38.6284 44.608 38.334 44.6752C38.0268 44.7456 37.7268 44.8352 37.434 44.9392C36.794 45.1664 36.1884 45.4648 35.6332 45.8368C35.3148 46.0504 35.018 46.2912 34.7332 46.5472C34.41 46.8376 34.106 47.1488 33.8332 47.4872C33.682 47.6744 33.5372 47.8672 33.4028 48.0672C33.2108 48.3536 33.0428 48.6568 32.8876 48.9672C32.7428 49.2584 32.6156 49.5584 32.5052 49.8672C32.3012 50.4416 32.1556 51.0424 32.086 51.668C32.0532 51.964 32.0324 52.2632 32.0324 52.568C32.0324 52.8728 32.0524 53.1728 32.086 53.468C32.1556 54.0936 32.302 54.6944 32.5052 55.2688C32.6148 55.5784 32.742 55.8784 32.8876 56.1688C33.0428 56.4792 33.2108 56.7824 33.4028 57.0688C33.8588 57.7496 34.4172 58.3552 35.0532 58.8696C35.4812 59.2152 35.9468 59.5152 36.4396 59.7696C37.2948 60.2104 38.2364 60.5056 39.234 60.6168C39.53 60.6496 39.8292 60.6704 40.134 60.6704C40.4388 60.6704 40.738 60.6504 41.034 60.6168C42.0316 60.5056 42.9724 60.2104 43.8284 59.7696ZM22.13 51.6688H30.274C30.33 51.0504 30.4436 50.4488 30.6084 49.868H22.13V51.6688ZM22.13 55.2688H30.6084C30.4436 54.688 30.33 54.0864 30.274 53.468H22.13V55.2688ZM22.13 58.8696H32.5004C32.0436 58.3168 31.6476 57.7128 31.318 57.0688H22.13V57.9688V58.8696ZM58.1364 57.0688H48.9484C48.618 57.7128 48.222 58.3168 47.766 58.8696H58.1364V57.0688ZM58.1364 53.4688H49.9924C49.9364 54.0872 49.8228 54.6888 49.658 55.2696H58.1364V53.4688ZM58.1364 49.868H49.658C49.8228 50.448 49.9364 51.0496 49.9924 51.6688H58.1364V49.868ZM15.8292 38.1664V39.9664C17.6292 39.9664 15.8292 39.9664 17.6292 39.9664V38.1664H15.8292ZM22.13 41.7664V43.5664C23.93 43.5664 22.13 43.5664 23.93 43.5664V41.7664H22.13ZM51.8356 46.2672C53.6364 46.2672 51.8356 46.2672 53.6364 46.2672V44.4664H51.8356V46.2672ZM50.9348 41.7664C52.7348 41.7664 50.9348 41.7664 52.7348 41.7664V39.9664H50.9348V41.7664ZM59.0364 39.0656H57.2364V40.8664C59.0364 40.8664 57.2364 40.8664 59.0364 40.8664V39.0656ZM65.3372 42.6672V44.4672C67.138 44.4672 65.3372 44.4672 67.138 44.4672V42.6672H65.3372ZM28.4316 39.0656V40.8664C30.2324 40.8664 28.4316 40.8664 30.2324 40.8664V39.0656H28.4316ZM40.1332 51.6688H39.9228L40.1332 51.3176L41.0332 49.8176L41.5428 48.968L42.042 48.1352L42.0828 48.0672L42.2676 47.7584L41.3948 47.2344L41.0324 47.0168L40.7236 46.8312L40.482 47.2336L39.9828 48.0664L39.942 48.1344L39.442 48.9672L39.2316 49.3184L38.902 49.8672L37.822 51.668L37.282 52.568L36.742 53.468H39.2316H40.1316H40.3428L40.1316 53.8192L39.262 55.2688L39.2316 55.3192L38.7212 56.1688L38.1812 57.0688L37.9964 57.3776L39.2316 58.1192L39.5404 58.3048L40.1316 57.3184L40.2812 57.0688L40.822 56.1688L41.0324 55.8184L41.3628 55.2688L42.4428 53.468L42.9828 52.568L43.5228 51.668H41.0324L40.1332 51.6688Z" fill="#00B806"/>
</svg>
