<svg width="81" height="80" viewBox="0 0 81 80" fill="none" xmlns="http://www.w3.org/2000/svg">
<path d="M37.6469 25.8456C37.6469 24.5632 38.2245 23.3656 39.1877 22.5856C39.1733 22.4536 39.1669 22.3248 39.1669 22.1968C39.1669 20.1232 40.6541 18.4096 42.5653 18.1736C43.1045 15.3496 45.4653 13.2456 48.2613 13.2456C49.2413 13.2456 50.1893 13.5032 51.0389 13.996C52.2245 13.056 53.6661 12.5456 55.1677 12.5456C57.7405 12.5456 60.1013 14.0824 61.2725 16.4464C61.6373 16.3664 61.9965 16.3272 62.3573 16.3272C65.4965 16.3272 68.0501 18.9928 68.0501 22.2688C68.0501 22.6376 68.0173 23.0048 67.9525 23.3656C68.7301 24.4376 69.1525 25.7456 69.1525 27.0984C69.1525 30.4904 66.5437 33.2496 63.3365 33.2496H55.6501V32.3496V31.4496H63.3365C65.5509 31.4496 67.3517 29.4976 67.3517 27.0992C67.3517 26.016 66.9765 24.9752 66.2965 24.1688L65.9957 23.8136L66.1117 23.3632C66.2029 23.0088 66.2501 22.6408 66.2501 22.2696C66.2501 19.9864 64.5045 18.128 62.3573 18.128C61.9469 18.128 61.5277 18.2096 61.0749 18.38L60.2197 18.7L59.9125 17.84C59.1533 15.7176 57.2909 14.3464 55.1685 14.3464C53.8981 14.3464 52.6837 14.852 51.7461 15.7704L51.1885 16.3168L50.5693 15.8432C49.8885 15.3224 49.0901 15.0472 48.2621 15.0472C46.1445 15.0472 44.3861 16.8424 44.2589 19.1344L44.2061 20.096L43.1373 19.9616C43.0981 19.956 43.0589 19.9472 43.0173 19.9472C41.8877 19.9472 40.9685 20.9568 40.9685 22.1976C40.9685 22.3696 40.9949 22.5552 41.0501 22.7824L41.2133 23.4432L40.6221 23.78C39.8989 24.1928 39.4485 24.984 39.4485 25.8464C39.4485 26.8592 40.0509 27.7544 40.9469 28.076L41.4669 28.2624L41.5373 28.8096C41.7301 30.3152 42.9261 31.4496 44.3205 31.4496H45.2205V32.3496V33.2496H44.3205C42.1901 33.2496 40.3477 31.6928 39.8445 29.5528C38.5101 28.8552 37.6469 27.4272 37.6469 25.8456ZM15.1421 61.1536C16.9429 61.1536 15.1421 61.1536 16.9429 61.1536V59.3536H15.1421V61.1536ZM20.5437 63.8544C22.3445 63.8544 20.5437 63.8544 22.3445 63.8544V62.0536H20.5437V63.8544ZM24.1437 61.1536C25.9445 61.1536 24.1437 61.1536 25.9445 61.1536V59.3536H24.1437V61.1536ZM33.1453 61.1536C34.9461 61.1536 33.1453 61.1536 34.9461 61.1536V59.3536H33.1453V61.1536ZM38.5461 60.2536C40.3469 60.2536 38.5461 60.2536 40.3469 60.2536V58.4528H38.5461V60.2536ZM42.1477 63.8544C43.9477 63.8544 42.1477 63.8544 43.9477 63.8544V62.0536H42.1477V63.8544ZM36.7461 66.5544V67.4544C38.5461 67.4544 36.7461 67.4544 38.5461 67.4544V66.5544V65.6544H36.7461V66.5544ZM27.7445 66.5544V67.4544C29.5445 67.4544 27.7445 67.4544 29.5445 67.4544V66.5544V65.6544H27.7445V66.5544ZM11.5421 65.6544V67.4552C13.3429 67.4552 11.5421 67.4552 13.3429 67.4552V66.5552V65.6552H12.4157L11.5421 65.6544ZM50.2485 66.5544V67.4544C52.0485 67.4544 50.2485 67.4544 52.0485 67.4544V66.5544V65.6544H50.2485V66.5544ZM51.1493 61.1536C52.9493 61.1536 51.1493 61.1536 52.9493 61.1536V59.3536H51.1493V61.1536ZM54.7493 63.8544C56.5493 63.8544 54.7493 63.8544 56.5493 63.8544V62.0536H54.7493V63.8544ZM67.3517 62.0536V63.8544C67.9829 63.8544 68.1685 63.8544 68.2245 63.8544C68.3285 63.8544 67.9829 63.8544 69.1517 63.8544V62.0536H68.2245H67.3517ZM62.8509 60.2536C64.6517 60.2536 62.8509 60.2536 64.6517 60.2536V58.4528H62.8509V60.2536ZM61.0501 66.5544H62.8509V64.7544H61.0501V66.5544ZM16.0501 53.052H28.6525V51.252H16.0501V53.052ZM21.4525 47.6512H19.6517V49.4512C21.4525 49.4512 19.6517 49.4512 21.4525 49.4512V47.6512ZM17.8517 47.6512H16.0509V49.4512C17.8517 49.4512 16.0509 49.4512 17.8517 49.4512V47.6512ZM25.0533 47.6512H23.2533V49.4512C25.0533 49.4512 23.2533 49.4512 25.0533 49.4512V47.6512ZM26.8533 49.4512C28.6533 49.4512 26.8533 49.4512 28.6533 49.4512V47.6512H26.8533V49.4512ZM21.4525 44.0504H19.6517V45.8512C21.4525 45.8512 19.6517 45.8512 21.4525 45.8512V44.0504ZM17.8517 44.0504H16.0509V45.8512C17.8517 45.8512 16.0509 45.8512 17.8517 45.8512V44.0504ZM26.8533 45.8512C28.6533 45.8512 26.8533 45.8512 28.6533 45.8512V44.0504H26.8533V45.8512ZM25.0533 44.0504H23.2533V45.8512C25.0533 45.8512 23.2533 45.8512 25.0533 45.8512V44.0504ZM47.5477 42.2504H45.7477V44.0504C47.5477 44.0504 45.7477 44.0504 47.5477 44.0504V42.2504ZM54.7493 42.2504H52.9493V44.0504C54.7501 44.0504 52.9493 44.0504 54.7501 44.0504V42.2504H54.7493ZM34.9461 44.0504C36.7469 44.0504 34.9461 44.0504 36.7469 44.0504V42.2504H34.9461V44.0504ZM51.1493 42.2504H49.3485V44.0504C51.1493 44.0504 49.3485 44.0504 51.1493 44.0504V42.2504ZM38.5461 44.0504C40.3469 44.0504 38.5461 44.0504 40.3469 44.0504V42.2504H38.5461V44.0504ZM43.9477 42.2504H42.1477V44.0504C43.9477 44.0504 42.1477 44.0504 43.9477 44.0504V42.2504ZM51.1493 45.8512H49.3485V47.6512C51.1493 47.6512 49.3485 47.6512 51.1493 47.6512V45.8512ZM47.5477 45.8512H45.7477V47.6512C47.5477 47.6512 45.7477 47.6512 47.5477 47.6512V45.8512ZM43.9477 45.8512H42.1477V47.6512C43.9477 47.6512 42.1477 47.6512 43.9477 47.6512V45.8512ZM38.5461 47.6512C40.3469 47.6512 38.5461 47.6512 40.3469 47.6512V45.8512H38.5461V47.6512ZM34.9461 47.6512C36.7469 47.6512 34.9461 47.6512 36.7469 47.6512V45.8512H34.9461V47.6512ZM54.7493 45.8512H52.9493V47.6512C54.7501 47.6512 52.9493 47.6512 54.7501 47.6512V45.8512H54.7493ZM54.7493 51.252H45.7477V53.052H54.7493V51.252ZM61.0501 56.6528H59.2501H57.4493H43.9477H36.7469H32.2533H30.4453H12.4493H12.4157H11.5149V54.852H12.4493V40.4504H17.0357L18.2957 27.8488H16.9501V26.048H18.4757L18.7509 23.3V19.2648L22.3517 16.8648L25.9525 19.2648V23.3L26.2277 26.048H27.7533V27.8488H26.4077L27.6677 40.4504H30.4461V37.7504H32.5901L31.9389 36.4472L33.5493 35.6416L34.6037 37.7496H37.0917L36.4405 36.4464L38.0509 35.6408L39.1053 37.7488H41.5933L40.9421 36.4456L42.5525 35.64L43.6069 37.748H46.7469L47.3549 32.3472L47.5573 30.5464L48.1661 25.1456H53.2381L53.8469 30.5464L54.0493 32.3472L54.6581 37.748H59.2541V42.2488H61.0541V36.848H62.8549V42.2488H64.6557V39.548H66.4557V42.2488H68.2565V54.8512H69.1293V56.652H68.2565H68.2293H62.8557L61.0501 56.6528ZM42.1477 54.8528V53.052H38.5469V54.8528H42.1477ZM43.9477 51.252V54.8528H57.4501V42.2504V39.5496H54.8565H46.5405H43.2597H42.4909H38.7589H37.9901H34.2581H33.4893H32.2453V40.4496V51.252H32.2525H34.9461V53.052H32.2525H32.2453V54.8528H32.2525H36.7461V51.252H43.9477ZM14.2501 54.8528H30.4453V53.052V51.252V42.2504H26.8973H26.0365H18.6645H17.8045H14.2501V54.8528ZM48.5557 37.7496H52.8413L52.2341 32.3488L52.0309 30.548H49.3661L49.1629 32.3488L48.5557 37.7496ZM49.5685 28.748H51.8277L51.6253 26.9472H49.7709L49.5685 28.748ZM59.2501 54.8528H61.0501V45.8512H62.8509V54.8528H66.4517V44.0504H64.6517H62.8509H61.0501H59.2501V54.8528ZM19.3165 35.736L23.0677 31.4488H19.7461L19.3165 35.736ZM20.7341 36.8496H25.4965L25.0077 31.9648L20.7341 36.8496ZM20.5501 22.4472H24.1509V20.228L22.3509 19.028L20.5501 20.228V22.4472ZM20.2853 26.048H24.4165L24.2365 24.248H20.4653L20.2853 26.048ZM20.1053 27.848L19.9253 29.648H24.7765L24.5965 27.848H20.1053ZM18.8445 40.4504H25.8565L25.6765 38.6504H19.0245L18.8445 40.4504Z" fill="#00B806"/>
</svg>
