<svg width="81" height="80" viewBox="0 0 81 80" fill="none" xmlns="http://www.w3.org/2000/svg">
<path d="M69.3148 24.0812L50.6279 19.037C50.5932 19.0332 50.5587 19.0282 50.5244 19.0218L50.4703 19.0152C50.4331 19.0099 50.3952 19.004 50.3519 19.004C50.3147 19.004 50.2775 19.0099 50.2315 19.0165L50.1084 19.0317L31.6427 24.0151L13.1769 19.0317C13.0996 19.0108 13.0198 19.0001 12.9395 19C12.4302 19 12 19.4158 12 19.9083V55.0349C12 55.4296 12.2936 55.8064 12.6832 55.9116L31.293 60.9339L31.3146 60.9425C31.3843 60.9703 31.4709 60.9874 31.5906 60.9941L31.6454 60.996C31.6636 60.9954 31.6812 60.9954 31.7144 60.9927C31.8165 60.9874 31.9024 60.9709 31.9707 60.9431L31.9917 60.9346L50.3573 55.979L68.8231 60.9623C68.9157 60.9874 69.0064 61 69.0929 61C69.2871 61 69.4609 60.9352 69.6104 60.8089L69.6456 60.7832C69.881 60.6271 70 60.3925 70 60.0857V24.9578C69.9951 24.7597 69.9261 24.5682 69.803 24.4107C69.68 24.2533 69.5091 24.1379 69.3148 24.0812ZM30.7113 44.1943L29.9909 44.3212C29.468 42.9508 29.1123 41.4455 28.7686 39.9898C28.2059 37.6078 27.6742 35.3581 26.4763 33.634C25.1283 31.6943 22.8826 30.4416 20.7547 30.4416C20.0808 30.4405 19.4129 30.5644 18.7863 30.8065C18.2094 31.0293 18.0944 31.5681 18.1715 31.9627C18.233 32.2814 18.4542 32.6529 18.8709 32.6529C18.9744 32.6529 19.0873 32.6298 19.2057 32.5842C19.7014 32.3903 20.2302 32.2898 20.7641 32.288C22.6066 32.288 24.4065 33.5295 25.4604 35.528C26.318 37.1537 26.7083 38.9446 27.0864 40.6766C27.4057 42.1423 27.7365 43.6575 28.3479 45.0405C28.9695 46.4447 29.7352 47.6743 30.6227 48.6964L30.7119 48.7975V58.8891L13.8581 54.3421V21.1016L30.7113 25.6493V44.1943ZM49.4252 54.3421L32.572 58.8898V50.4793L33.1314 50.798C34.1859 51.3996 35.2817 51.7043 36.3883 51.7043C38.8233 51.7043 41.1968 50.1984 42.739 47.6763C43.452 46.5095 44.1466 45.3016 44.8183 44.1328C46.0426 42.0034 47.3081 39.802 48.7461 37.7467L49.4252 36.7762V54.3421ZM49.4252 33.7391L49.3353 33.8409C47.2594 36.2129 45.5664 39.1151 44.0729 41.6755L43.8774 42.0094C43.615 42.4589 43.3363 42.9931 43.0414 43.5577C41.6338 46.2523 39.7067 49.9412 36.5371 49.9412C35.9696 49.9412 35.3784 49.8209 34.7805 49.5849C34.0269 49.2884 33.326 48.8772 32.7039 48.3665L32.572 48.2574V25.65L49.4252 21.1023V33.7391ZM68.1379 58.8898L51.2853 54.3421V34.4961L51.3773 34.3929C52.9276 32.6668 54.3312 31.6785 55.7949 31.2825C56.1434 31.1867 56.5036 31.1375 56.8657 31.1364C59.296 31.1364 60.9897 33.361 62.195 35.2993C62.4155 35.6543 62.7185 35.729 62.9336 35.729C63.2982 35.729 63.6757 35.5168 63.8508 35.212C63.953 35.0342 64.0287 34.7473 63.8082 34.3916C62.6462 32.5227 60.1787 29.3858 56.7094 29.3858C55.5467 29.3858 54.3643 29.752 53.1955 30.4733C52.7761 30.7318 52.3493 31.0326 51.89 31.3916L51.2853 31.8649V21.1016L68.1379 25.6493V58.8898Z" fill="#00B806"/>
<path d="M60.3654 37.4076C59.1038 36.1453 57.1452 38.1032 58.4076 39.3655L60.5416 41.5002L58.4076 43.6342C57.146 44.8965 59.1031 46.8551 60.3654 45.5921L62.5002 43.458L64.6343 45.5921C65.8959 46.8544 67.8552 44.8965 66.5921 43.6342L64.4581 41.5002L66.5921 39.3655C67.8545 38.1039 65.8966 36.1453 64.6343 37.4076L62.5002 39.5417C61.7881 38.831 61.0768 38.119 60.3654 37.4076Z" fill="#00B806"/>
</svg>
