<svg width="200" height="42" viewBox="0 0 200 42" fill="none" xmlns="http://www.w3.org/2000/svg">
<g clip-path="url(#clip0_7_101)">
<path d="M19.7276 41.6633C30.6119 41.6633 39.4352 32.7461 39.4352 21.7463C39.4352 10.7464 30.6119 1.82925 19.7276 1.82925C8.84339 1.82925 0.0200195 10.7464 0.0200195 21.7463C0.0200195 32.7461 8.84339 41.6633 19.7276 41.6633Z" fill="#00B806"/>
<path fill-rule="evenodd" clip-rule="evenodd" d="M15.4159 28.281C16.0979 28.9703 17.2044 28.9703 17.8827 28.2848L28.4073 17.6483C29.1064 16.9418 30.2389 16.9418 30.9379 17.6483C31.6363 18.354 31.6363 19.4985 30.9379 20.205L20.4058 30.8483C18.3376 32.9385 14.9639 32.9385 12.8956 30.8483C11.8493 29.7908 11.3238 28.5173 11.3298 27.0203C11.3357 25.5345 11.8686 24.258 12.9164 23.2163L21.03 15.1508C21.6949 14.49 21.6993 13.425 21.0403 12.759C20.3873 12.099 19.3313 12.0908 18.6767 12.7523L8.09861 23.4428C7.40028 24.1493 6.26707 24.1493 5.56874 23.4428C4.86967 22.737 4.86967 21.5925 5.56874 20.886L16.1535 10.1888C18.1921 8.12851 21.5183 8.12851 23.5569 10.1888C24.5884 11.2313 25.1064 12.4868 25.1005 13.962C25.0945 15.4268 24.5691 16.6853 23.5361 17.712L15.4225 25.7775C14.7279 26.4675 14.7235 27.5813 15.4159 28.281ZM27.165 33.939C26.4667 34.6448 25.3335 34.6448 24.6352 33.939C23.9368 33.2325 23.9368 32.088 24.6352 31.3823L28.9758 26.9955C29.6741 26.289 30.8073 26.289 31.5057 26.9955C32.2047 27.7013 32.2047 28.8465 31.5057 29.5523L27.165 33.939Z" fill="#FEFEFE"/>
<path d="M56.3461 27.5226C54.4152 27.5226 52.6955 27.1873 51.1871 26.5165C49.6872 25.837 48.502 24.9048 47.6314 23.7201C46.7694 22.5266 46.3255 21.1502 46.2996 19.5908H51.937C51.9715 20.2442 52.1827 20.8192 52.5706 21.3157C52.9671 21.8035 53.4929 22.1825 54.148 22.4525C54.8031 22.7226 55.5401 22.8576 56.359 22.8576C57.2124 22.8576 57.9666 22.7052 58.6217 22.4002C59.2768 22.0954 59.7897 21.6729 60.1603 21.1327C60.531 20.5927 60.7163 19.9698 60.7163 19.2641C60.7163 18.5498 60.5181 17.9182 60.1216 17.3694C59.7337 16.8118 59.1734 16.3763 58.4407 16.0627C57.7166 15.7491 56.8547 15.5923 55.8547 15.5923H53.3851V11.4369H55.8547C56.6995 11.4369 57.4451 11.2888 58.0916 10.9926C58.7467 10.6964 59.2553 10.287 59.6173 9.76432C59.9793 9.23287 60.1603 8.61434 60.1603 7.90874C60.1603 7.23797 60.0009 6.64994 59.682 6.14468C59.3716 5.6307 58.9321 5.22997 58.3631 4.94249C57.8029 4.65501 57.1477 4.51127 56.3978 4.51127C55.6392 4.51127 54.9453 4.65065 54.3161 4.92942C53.6869 5.19948 53.1826 5.58714 52.8033 6.09241C52.424 6.59767 52.2215 7.19005 52.1956 7.86952H46.8297C46.8556 6.32762 47.2909 4.96862 48.1356 3.79258C48.9804 2.61653 50.1182 1.69747 51.5491 1.0354C52.9886 0.364613 54.6135 0.0292206 56.4236 0.0292206C58.251 0.0292206 59.8501 0.364613 61.2206 1.0354C62.5912 1.70618 63.6557 2.61218 64.4143 3.75338C65.1814 4.88587 65.5607 6.15774 65.5521 7.56899C65.5607 9.06734 65.0996 10.3174 64.1686 11.3193C63.2463 12.3211 62.0438 12.9571 60.5612 13.2271V13.4362C62.5093 13.6888 63.9919 14.3727 65.009 15.4877C66.0348 16.5941 66.5434 17.9792 66.5347 19.6431C66.5434 21.1676 66.1081 22.5223 65.2288 23.707C64.3583 24.8917 63.1558 25.8239 61.6214 26.5033C60.0871 27.1828 58.3286 27.5226 56.3461 27.5226ZM79.6616 27.5488C77.6185 27.5488 75.8604 27.1306 74.3866 26.2943C72.921 25.4493 71.7918 24.2558 70.9988 22.7139C70.2058 21.1633 69.8092 19.3295 69.8092 17.2126C69.8092 15.148 70.2058 13.336 70.9988 11.7766C71.7918 10.2173 72.9081 9.00202 74.3473 8.13089C75.7959 7.25975 77.4938 6.82417 79.4419 6.82417C80.7525 6.82417 81.9718 7.0376 83.1013 7.46447C84.2389 7.88264 85.2304 8.51422 86.0749 9.35924C86.9284 10.2042 87.5918 11.267 88.066 12.5476C88.5402 13.8195 88.777 15.3091 88.777 17.0166V18.5455H72.0073V15.0957H83.5925C83.5925 14.2942 83.4204 13.5843 83.0753 12.9658C82.7302 12.3472 82.2523 11.8637 81.64 11.5153C81.0367 11.1581 80.3339 10.9795 79.5324 10.9795C78.6961 10.9795 77.9547 11.1755 77.3083 11.5675C76.6708 11.9509 76.1707 12.4692 75.8085 13.1226C75.4464 13.7672 75.2616 14.4859 75.2527 15.2786V18.5585C75.2527 19.5516 75.4337 20.4097 75.7959 21.1327C76.1662 21.8558 76.6879 22.4134 77.3603 22.8054C78.0326 23.1973 78.8297 23.3934 79.7521 23.3934C80.3643 23.3934 80.9246 23.3062 81.433 23.132C81.9421 22.9578 82.377 22.6965 82.7391 22.348C83.1013 21.9995 83.3766 21.5727 83.5666 21.0674L88.6612 21.4072C88.4022 22.6442 87.8723 23.7244 87.0708 24.6478C86.2775 25.5625 85.2519 26.2769 83.9933 26.7909C82.7436 27.2961 81.2994 27.5488 79.6616 27.5488ZM91.2081 27.1567L91.1822 22.74H91.8419C92.3072 22.74 92.7079 22.6267 93.0441 22.4002C93.3892 22.165 93.6734 21.7861 93.8976 21.2635C94.1217 20.7407 94.2983 20.0482 94.4274 19.1857C94.5573 18.3146 94.6434 17.2431 94.6864 15.9712L95.0092 7.08551H110.111V27.1567H104.862V11.463H99.9614L99.6512 17.5915C99.574 19.2729 99.3714 20.719 99.0434 21.9298C98.725 23.1407 98.2805 24.1339 97.712 24.9092C97.1428 25.6758 96.4578 26.242 95.6556 26.6079C94.8541 26.9738 93.9235 27.1567 92.863 27.1567H91.2081ZM123.432 27.5488C121.389 27.5488 119.631 27.1306 118.157 26.2943C116.692 25.4493 115.563 24.2558 114.77 22.7139C113.976 21.1633 113.58 19.3295 113.58 17.2126C113.58 15.148 113.976 13.336 114.77 11.7766C115.563 10.2173 116.679 9.00202 118.118 8.13089C119.567 7.25975 121.265 6.82417 123.213 6.82417C124.523 6.82417 125.742 7.0376 126.872 7.46447C128.01 7.88264 129.001 8.51422 129.846 9.35924C130.699 10.2042 131.362 11.267 131.837 12.5476C132.311 13.8195 132.548 15.3091 132.548 17.0166V18.5455H115.778V15.0957H127.363C127.363 14.2942 127.191 13.5843 126.846 12.9658C126.501 12.3472 126.023 11.8637 125.411 11.5153C124.807 11.1581 124.105 10.9795 123.303 10.9795C122.467 10.9795 121.725 11.1755 121.079 11.5675C120.442 11.9509 119.941 12.4692 119.579 13.1226C119.217 13.7672 119.032 14.4859 119.023 15.2786V18.5585C119.023 19.5516 119.204 20.4097 119.567 21.1327C119.937 21.8558 120.459 22.4134 121.131 22.8054C121.803 23.1973 122.6 23.3934 123.523 23.3934C124.135 23.3934 124.695 23.3062 125.204 23.132C125.713 22.9578 126.148 22.6965 126.51 22.348C126.872 21.9995 127.147 21.5727 127.337 21.0674L132.432 21.4072C132.173 22.6442 131.643 23.7244 130.842 24.6478C130.048 25.5625 129.023 26.2769 127.764 26.7909C126.514 27.2961 125.07 27.5488 123.432 27.5488ZM149.964 14.8997V19.2772H139.595V14.8997H149.964ZM141.405 7.08551V27.1567H136.142V7.08551H141.405ZM153.417 7.08551V27.1567H148.193V7.08551H153.417ZM166.741 27.5488C164.698 27.5488 162.939 27.1306 161.466 26.2943C160 25.4493 158.871 24.2558 158.078 22.7139C157.285 21.1633 156.888 19.3295 156.888 17.2126C156.888 15.148 157.285 13.336 158.078 11.7766C158.871 10.2173 159.987 9.00202 161.427 8.13089C162.875 7.25975 164.573 6.82417 166.521 6.82417C167.832 6.82417 169.051 7.0376 170.18 7.46447C171.318 7.88264 172.309 8.51422 173.154 9.35924C174.007 10.2042 174.672 11.267 175.145 12.5476C175.619 13.8195 175.857 15.3091 175.857 17.0166V18.5455H159.086V15.0957H170.672C170.672 14.2942 170.499 13.5843 170.154 12.9658C169.809 12.3472 169.331 11.8637 168.719 11.5153C168.116 11.1581 167.413 10.9795 166.611 10.9795C165.776 10.9795 165.034 11.1755 164.387 11.5675C163.75 11.9509 163.25 12.4692 162.888 13.1226C162.526 13.7672 162.341 14.4859 162.332 15.2786V18.5585C162.332 19.5516 162.513 20.4097 162.875 21.1327C163.245 21.8558 163.767 22.4134 164.439 22.8054C165.112 23.1973 165.909 23.3934 166.831 23.3934C167.443 23.3934 168.004 23.3062 168.512 23.132C169.021 22.9578 169.456 22.6965 169.818 22.348C170.18 21.9995 170.456 21.5727 170.646 21.0674L175.74 21.4072C175.481 22.6442 174.951 23.7244 174.15 24.6478C173.357 25.5625 172.331 26.2769 171.072 26.7909C169.823 27.2961 168.378 27.5488 166.741 27.5488ZM196.816 7.08551V23.315H199.984V33.6119H194.631V27.1567H179.451V7.08551H184.713V22.7792H191.618V7.08551H196.816Z" fill="#2B2A29"/>
<path d="M48.2533 38.2524L51.2198 33.4396H52.3101V39.6622H51.3641V34.8494L48.4137 39.6622H47.3074V33.4396H48.2533V38.2524ZM58.1637 36.1134V37.0046H54.7644V36.1134H58.1637ZM54.9889 33.4396V39.6622H54.0429V33.4396H54.9889ZM58.8853 33.4396V39.6622H57.9392V33.4396H58.8853ZM59.9556 41.4448V38.7709H60.4687C60.5943 38.6386 60.7025 38.4955 60.7934 38.3416C60.8842 38.1876 60.9631 38.0053 61.0299 37.7947C61.0994 37.5813 61.1582 37.322 61.2063 37.0168C61.2544 36.7089 61.2971 36.3376 61.3345 35.9027L61.543 33.4396H65.4554V38.7709H66.4015V41.4448H65.4554V39.6622H60.9016V41.4448H59.9556ZM61.543 38.7709H64.5094V34.3309H62.4249L62.2646 35.9027C62.1978 36.5536 62.1149 37.1221 62.016 37.6083C61.9172 38.0944 61.7595 38.482 61.543 38.7709ZM68.2665 41.9957C68.1061 41.9957 67.9632 41.9822 67.8375 41.9552C67.712 41.9309 67.6251 41.9066 67.577 41.8823L67.8175 41.0397C68.0473 41.0991 68.2505 41.1207 68.4268 41.1045C68.6032 41.0883 68.7595 41.0086 68.8959 40.8655C69.0348 40.725 69.1618 40.4968 69.2766 40.1808L69.453 39.6946L67.1762 33.4396H68.2024L69.902 38.3983H69.9661L71.6658 33.4396H72.692L70.0784 40.5697C69.9608 40.8911 69.8151 41.1571 69.6415 41.3678C69.4677 41.5812 69.266 41.7391 69.0361 41.8418C68.809 41.9444 68.5524 41.9957 68.2665 41.9957ZM76.2218 39.7919C75.6444 39.7919 75.1472 39.6541 74.7302 39.3787C74.3138 39.1032 73.9928 38.7237 73.7683 38.2402C73.5438 37.7568 73.4316 37.2045 73.4316 36.5833C73.4316 35.9513 73.5466 35.3936 73.7763 34.9102C74.0088 34.424 74.3324 34.0445 74.7465 33.7717C75.1636 33.4963 75.6496 33.3586 76.2055 33.3586C76.6389 33.3586 77.0285 33.4396 77.3758 33.6016C77.7238 33.7636 78.0081 33.9905 78.23 34.2822C78.4519 34.5739 78.5891 34.9142 78.6426 35.3031H77.6971C77.6244 35.0195 77.4641 34.7683 77.2155 34.5496C76.9699 34.3282 76.6389 34.2174 76.2218 34.2174C75.853 34.2174 75.5294 34.3147 75.2519 34.5091C74.9765 34.7008 74.7613 34.9723 74.6062 35.3234C74.4541 35.6718 74.3776 36.081 74.3776 36.5509C74.3776 37.0316 74.4526 37.4503 74.6018 37.8068C74.7546 38.1633 74.9684 38.4401 75.2437 38.6373C75.5212 38.8345 75.8478 38.933 76.2218 38.933C76.4674 38.933 76.6908 38.8898 76.8912 38.8034C77.0916 38.7169 77.2615 38.5927 77.4003 38.4307C77.5391 38.2686 77.6378 38.0742 77.6971 37.8473H78.6426C78.5891 38.2146 78.4571 38.5455 78.2463 38.8399C78.0378 39.1315 77.761 39.3638 77.4159 39.5367C77.0738 39.7068 76.676 39.7919 76.2218 39.7919ZM79.5405 34.3309V33.4396H84.5439V34.3309H82.5231V39.6622H81.5769V34.3309H79.5405ZM85.9235 41.9957V33.4396H86.8378V34.4281H86.9498C87.0188 34.3201 87.1153 34.1823 87.2385 34.0148C87.3639 33.8447 87.5428 33.6934 87.7758 33.5611C88.0103 33.4261 88.3287 33.3586 88.7294 33.3586C89.2481 33.3586 89.7053 33.4895 90.1008 33.7515C90.4964 34.0135 90.8044 34.3849 91.0263 34.8656C91.2481 35.3464 91.3595 35.9135 91.3595 36.5671C91.3595 37.2261 91.2481 37.7974 91.0263 38.2808C90.8044 38.7615 90.4971 39.1342 90.1046 39.3989C89.712 39.6609 89.2585 39.7919 88.7457 39.7919C88.3502 39.7919 88.0333 39.7257 87.7958 39.5934C87.5576 39.4583 87.3743 39.3058 87.2467 39.1356C87.1183 38.9627 87.0188 38.8196 86.9498 38.7061H86.8697V41.9957H85.9235ZM86.8533 36.5509C86.8533 37.0208 86.9216 37.4354 87.0582 37.7947C87.194 38.1511 87.3936 38.4307 87.6556 38.6332C87.9168 38.8331 88.2381 38.933 88.6174 38.933C89.0129 38.933 89.3431 38.8277 89.6073 38.617C89.8745 38.4037 90.0749 38.1174 90.2085 37.7581C90.345 37.3963 90.4133 36.9938 90.4133 36.5509C90.4133 36.1134 90.3465 35.719 90.2129 35.368C90.0815 35.0141 89.8827 34.7346 89.6155 34.5293C89.3506 34.3214 89.0181 34.2174 88.6174 34.2174C88.2322 34.2174 87.9094 34.316 87.6474 34.5131C87.3854 34.7076 87.1873 34.9804 87.0537 35.3315C86.9201 35.6799 86.8533 36.0864 86.8533 36.5509ZM93.7483 38.2524L96.7146 33.4396H97.8047V39.6622H96.8593V34.8494L93.9086 39.6622H92.8021V33.4396H93.7483V38.2524ZM101.35 39.8081C100.959 39.8081 100.605 39.7338 100.287 39.5853C99.9695 39.434 99.7172 39.2166 99.5302 38.933C99.3424 38.6467 99.2489 38.3011 99.2489 37.8959C99.2489 37.5394 99.3186 37.2504 99.4574 37.0289C99.5969 36.8048 99.7825 36.6292 100.015 36.5023C100.247 36.3754 100.504 36.2808 100.784 36.2187C101.068 36.1539 101.352 36.1026 101.639 36.0648C102.013 36.0161 102.316 35.9797 102.548 35.9554C102.784 35.9284 102.954 35.8838 103.061 35.8217C103.171 35.7595 103.226 35.6515 103.226 35.4976V35.4652C103.226 35.0655 103.118 34.7548 102.901 34.5334C102.687 34.312 102.363 34.2012 101.927 34.2012C101.475 34.2012 101.121 34.3011 100.864 34.501C100.608 34.7008 100.428 34.9142 100.323 35.1411L99.4255 34.817C99.5858 34.4389 99.7995 34.1445 100.067 33.9338C100.337 33.7204 100.631 33.5719 100.949 33.4882C101.27 33.4018 101.585 33.3586 101.895 33.3586C102.093 33.3586 102.32 33.3829 102.577 33.4315C102.836 33.4774 103.086 33.5733 103.326 33.7191C103.569 33.865 103.771 34.0851 103.932 34.3795C104.092 34.6738 104.172 35.0682 104.172 35.5624V39.6622H103.226V38.8196H103.178C103.114 38.9546 103.007 39.0991 102.857 39.253C102.707 39.407 102.508 39.538 102.26 39.646C102.011 39.754 101.708 39.8081 101.35 39.8081ZM101.494 38.9492C101.868 38.9492 102.183 38.875 102.44 38.7264C102.699 38.5779 102.894 38.3861 103.026 38.1511C103.159 37.9162 103.226 37.669 103.226 37.4098V36.5347C103.186 36.5833 103.098 36.6279 102.961 36.6684C102.827 36.7062 102.672 36.7399 102.496 36.7696C102.323 36.7967 102.153 36.821 101.987 36.8426C101.824 36.8615 101.692 36.8777 101.59 36.8912C101.345 36.9236 101.115 36.9763 100.901 37.0492C100.689 37.1194 100.519 37.2261 100.387 37.3693C100.26 37.5097 100.195 37.7014 100.195 37.9445C100.195 38.2767 100.317 38.5279 100.56 38.698C100.806 38.8655 101.118 38.9492 101.494 38.9492ZM105.354 39.6622V38.7709H105.578C105.762 38.7709 105.916 38.7345 106.039 38.6616C106.162 38.586 106.26 38.455 106.335 38.2686C106.413 38.0796 106.472 37.8176 106.512 37.4827C106.554 37.1451 106.585 36.7156 106.604 36.1944L106.716 33.4396H110.821V39.6622H109.875V34.3309H107.614L107.518 36.5509C107.497 37.0614 107.451 37.511 107.382 37.9C107.315 38.2862 107.212 38.6103 107.073 38.8723C106.936 39.1342 106.755 39.3314 106.528 39.4637C106.3 39.5961 106.016 39.6622 105.674 39.6622H105.354ZM113.374 35.692H115.138C115.86 35.692 116.412 35.8771 116.794 36.247C117.176 36.6171 117.367 37.0857 117.367 37.6528C117.367 38.0255 117.282 38.3645 117.111 38.6697C116.939 38.9722 116.689 39.2139 116.357 39.3949C116.026 39.5731 115.619 39.6622 115.138 39.6622H112.557V33.4396H113.503V38.7709H115.138C115.512 38.7709 115.82 38.671 116.061 38.4712C116.301 38.2713 116.421 38.0147 116.421 37.7014C116.421 37.372 116.301 37.1032 116.061 36.8953C115.82 36.6873 115.512 36.5833 115.138 36.5833H113.374V35.692ZM122.928 36.1134V37.0046H119.529V36.1134H122.928ZM119.754 33.4396V39.6622H118.807V33.4396H119.754ZM123.65 33.4396V39.6622H122.703V33.4396H123.65ZM126.195 35.692H127.959C128.68 35.692 129.233 35.8771 129.615 36.247C129.997 36.6171 130.188 37.0857 130.188 37.6528C130.188 38.0255 130.102 38.3645 129.932 38.6697C129.76 38.9722 129.509 39.2139 129.178 39.3949C128.846 39.5731 128.44 39.6622 127.959 39.6622H125.377V33.4396H126.323V38.7709H127.959C128.333 38.7709 128.64 38.671 128.881 38.4712C129.121 38.2713 129.241 38.0147 129.241 37.7014C129.241 37.372 129.121 37.1032 128.881 36.8953C128.64 36.6873 128.333 36.5833 127.959 36.5833H126.195V35.692ZM131.166 39.6622V33.4396H132.112V39.6622H131.166ZM134.79 38.2524L137.757 33.4396H138.847V39.6622H137.9V34.8494L134.95 39.6622H133.844V33.4396H134.79V38.2524ZM137.131 31.3654H138.013C138.013 31.8028 137.863 32.1607 137.564 32.4389C137.264 32.7171 136.859 32.8562 136.345 32.8562C135.84 32.8562 135.438 32.7171 135.138 32.4389C134.842 32.1607 134.694 31.8028 134.694 31.3654H135.575C135.575 31.576 135.633 31.761 135.748 31.9204C135.866 32.0797 136.064 32.1594 136.345 32.1594C136.626 32.1594 136.826 32.0797 136.946 31.9204C137.069 31.761 137.131 31.576 137.131 31.3654ZM143.754 39.6622V33.4396H148.597V39.6622H147.65V34.3309H144.7V39.6622H143.754ZM152.136 39.8081C151.746 39.8081 151.392 39.7338 151.074 39.5853C150.756 39.434 150.503 39.2166 150.316 38.933C150.129 38.6467 150.036 38.3011 150.036 37.8959C150.036 37.5394 150.105 37.2504 150.244 37.0289C150.383 36.8048 150.568 36.6292 150.801 36.5023C151.034 36.3754 151.29 36.2808 151.571 36.2187C151.854 36.1539 152.139 36.1026 152.424 36.0648C152.799 36.0161 153.102 35.9797 153.335 35.9554C153.57 35.9284 153.741 35.8838 153.848 35.8217C153.958 35.7595 154.012 35.6515 154.012 35.4976V35.4652C154.012 35.0655 153.904 34.7548 153.687 34.5334C153.474 34.312 153.149 34.2012 152.713 34.2012C152.262 34.2012 151.908 34.3011 151.651 34.501C151.394 34.7008 151.214 34.9142 151.11 35.1411L150.212 34.817C150.372 34.4389 150.586 34.1445 150.853 33.9338C151.123 33.7204 151.417 33.5719 151.735 33.4882C152.056 33.4018 152.371 33.3586 152.681 33.3586C152.879 33.3586 153.106 33.3829 153.362 33.4315C153.622 33.4774 153.872 33.5733 154.113 33.7191C154.355 33.865 154.557 34.0851 154.718 34.3795C154.878 34.6738 154.958 35.0682 154.958 35.5624V39.6622H154.012V38.8196H153.964C153.9 38.9546 153.793 39.0991 153.644 39.253C153.494 39.407 153.295 39.538 153.046 39.646C152.798 39.754 152.494 39.8081 152.136 39.8081ZM152.28 38.9492C152.654 38.9492 152.97 38.875 153.227 38.7264C153.486 38.5779 153.681 38.3861 153.811 38.1511C153.945 37.9162 154.012 37.669 154.012 37.4098V36.5347C153.972 36.5833 153.884 36.6279 153.748 36.6684C153.614 36.7062 153.459 36.7399 153.282 36.7696C153.109 36.7967 152.939 36.821 152.773 36.8426C152.611 36.8615 152.478 36.8777 152.377 36.8912C152.131 36.9236 151.901 36.9763 151.687 37.0492C151.476 37.1194 151.305 37.2261 151.174 37.3693C151.046 37.5097 150.982 37.7014 150.982 37.9445C150.982 38.2767 151.103 38.5279 151.346 38.698C151.592 38.8655 151.903 38.9492 152.28 38.9492ZM156.685 41.9957V33.4396H157.599V34.4281H157.711C157.78 34.3201 157.877 34.1823 158 34.0148C158.125 33.8447 158.304 33.6934 158.537 33.5611C158.772 33.4261 159.09 33.3586 159.491 33.3586C160.01 33.3586 160.467 33.4895 160.862 33.7515C161.257 34.0135 161.566 34.3849 161.788 34.8656C162.01 35.3464 162.121 35.9135 162.121 36.5671C162.121 37.2261 162.01 37.7974 161.788 38.2808C161.566 38.7615 161.259 39.1342 160.866 39.3989C160.473 39.6609 160.02 39.7919 159.507 39.7919C159.112 39.7919 158.795 39.7257 158.557 39.5934C158.319 39.4583 158.136 39.3058 158.008 39.1356C157.88 38.9627 157.78 38.8196 157.711 38.7061H157.631V41.9957H156.685ZM157.615 36.5509C157.615 37.0208 157.683 37.4354 157.82 37.7947C157.955 38.1511 158.155 38.4307 158.417 38.6332C158.678 38.8331 159 38.933 159.379 38.933C159.774 38.933 160.105 38.8277 160.369 38.617C160.636 38.4037 160.836 38.1174 160.97 37.7581C161.106 37.3963 161.175 36.9938 161.175 36.5509C161.175 36.1134 161.108 35.719 160.974 35.368C160.843 35.0141 160.644 34.7346 160.377 34.5293C160.112 34.3214 159.779 34.2174 159.379 34.2174C158.994 34.2174 158.671 34.316 158.409 34.5131C158.147 34.7076 157.949 34.9804 157.815 35.3315C157.682 35.6799 157.615 36.0864 157.615 36.5509ZM163.564 39.6622V33.4396H164.51V36.1458H165.135L167.348 33.4396H168.566L166.081 36.4375L168.599 39.6622H167.38L165.359 37.037H164.51V39.6622H163.564Z" fill="#2B2A29"/>
</g>
<defs>
<clipPath id="clip0_7_101">
<rect width="200" height="42" fill="white"/>
</clipPath>
</defs>
</svg>
