<?xml version="1.0" standalone="no"?>
<!DOCTYPE svg PUBLIC "-//W3C//DTD SVG 20010904//EN"
 "http://www.w3.org/TR/2001/REC-SVG-20010904/DTD/svg10.dtd">
<svg version="1.0" xmlns="http://www.w3.org/2000/svg"
 width="700.000000pt" height="700.000000pt" viewBox="0 0 700.000000 700.000000"
 preserveAspectRatio="xMidYMid meet">
<metadata>
Created by potrace 1.14, written by Peter Selinger 2001-2017
</metadata>
<g transform="translate(0.000000,700.000000) scale(0.100000,-0.100000)"
fill="#000000" stroke="none">
<path d="M3210 6989 c-221 -22 -360 -45 -540 -88 -169 -41 -347 -100 -510
-167 -84 -35 -318 -152 -385 -193 -37 -23 -69 -41 -71 -41 -7 0 -139 -87 -219
-144 -73 -52 -191 -145 -260 -205 -65 -57 -306 -301 -365 -370 -93 -108 -241
-313 -317 -438 -92 -152 -263 -489 -263 -518 0 -4 -6 -21 -14 -38 -33 -73
-125 -361 -142 -446 -3 -12 -11 -51 -19 -85 -8 -33 -17 -77 -20 -96 -3 -19 -8
-42 -10 -50 -8 -28 -35 -248 -42 -347 -18 -241 -3 -608 33 -818 3 -16 7 -42
10 -58 70 -414 235 -847 467 -1230 71 -116 257 -373 333 -459 50 -55 308 -314
354 -353 344 -298 774 -540 1195 -675 159 -50 183 -58 215 -65 189 -41 313
-65 363 -70 34 -4 71 -9 82 -11 121 -25 660 -24 819 1 11 2 44 6 71 10 28 3
57 8 65 10 8 2 31 6 50 9 195 29 495 116 715 208 1058 439 1842 1392 2075
2523 11 55 23 116 26 135 3 19 7 45 9 57 6 38 24 203 31 288 6 80 6 390 0 475
-11 140 -39 359 -51 400 -3 8 -7 32 -11 53 -11 76 -64 279 -104 402 -93 285
-233 578 -395 825 -399 609 -965 1074 -1630 1338 -97 39 -365 127 -415 136
-14 3 -52 12 -85 20 -33 8 -100 22 -150 30 -49 9 -100 18 -112 20 -12 3 -50 7
-85 11 -35 3 -76 8 -93 11 -52 8 -526 11 -605 3z"/>
</g>
</svg>
