<svg width="200" height="42" viewBox="0 0 200 42" fill="none" xmlns="http://www.w3.org/2000/svg">
<g clip-path="url(#clip0_249_1347)">
<path d="M19.7276 41.6631C30.6119 41.6631 39.4352 32.746 39.4352 21.7461C39.4352 10.7462 30.6119 1.8291 19.7276 1.8291C8.84339 1.8291 0.0200195 10.7462 0.0200195 21.7461C0.0200195 32.746 8.84339 41.6631 19.7276 41.6631Z" fill="#00B806"/>
<path fill-rule="evenodd" clip-rule="evenodd" d="M15.4159 28.281C16.0979 28.9702 17.2044 28.9702 17.8827 28.2847L28.4073 17.6482C29.1064 16.9417 30.2389 16.9417 30.9379 17.6482C31.6363 18.354 31.6363 19.4985 30.9379 20.205L20.4058 30.8482C18.3376 32.9385 14.9639 32.9385 12.8956 30.8482C11.8493 29.7907 11.3238 28.5172 11.3298 27.0202C11.3357 25.5345 11.8686 24.258 12.9164 23.2162L21.03 15.1507C21.6949 14.49 21.6993 13.425 21.0403 12.759C20.3873 12.099 19.3313 12.0907 18.6767 12.7522L8.09861 23.4427C7.40028 24.1492 6.26707 24.1492 5.56874 23.4427C4.86967 22.737 4.86967 21.5925 5.56874 20.886L16.1535 10.1887C18.1921 8.12849 21.5183 8.12849 23.5569 10.1887C24.5884 11.2312 25.1064 12.4867 25.1005 13.962C25.0945 15.4267 24.5691 16.6852 23.5361 17.712L15.4225 25.7775C14.7279 26.4675 14.7235 27.5812 15.4159 28.281ZM27.165 33.939C26.4667 34.6447 25.3335 34.6447 24.6352 33.939C23.9368 33.2325 23.9368 32.088 24.6352 31.3822L28.9758 26.9955C29.6741 26.289 30.8073 26.289 31.5057 26.9955C32.2047 27.7012 32.2047 28.8465 31.5057 29.5522L27.165 33.939Z" fill="#FEFEFE"/>
<path d="M56.3461 27.5227C54.4152 27.5227 52.6955 27.1873 51.1871 26.5165C49.6872 25.837 48.502 24.9049 47.6314 23.7202C46.7694 22.5267 46.3255 21.1503 46.2996 19.5909H51.937C51.9715 20.2443 52.1827 20.8192 52.5706 21.3157C52.9671 21.8036 53.4929 22.1826 54.148 22.4526C54.8031 22.7227 55.5401 22.8577 56.359 22.8577C57.2124 22.8577 57.9666 22.7053 58.6217 22.4003C59.2768 22.0954 59.7897 21.673 60.1603 21.1328C60.531 20.5927 60.7163 19.9699 60.7163 19.2642C60.7163 18.5499 60.5181 17.9183 60.1216 17.3695C59.7337 16.8119 59.1734 16.3764 58.4407 16.0627C57.7166 15.7492 56.8547 15.5923 55.8547 15.5923H53.3851V11.437H55.8547C56.6995 11.437 57.4451 11.2888 58.0916 10.9927C58.7467 10.6965 59.2553 10.2871 59.6173 9.76439C59.9793 9.23294 60.1603 8.61442 60.1603 7.90882C60.1603 7.23804 60.0009 6.65002 59.682 6.14475C59.3716 5.63078 58.9321 5.23004 58.3631 4.94257C57.8029 4.65509 57.1477 4.51135 56.3978 4.51135C55.6392 4.51135 54.9453 4.65073 54.3161 4.9295C53.6869 5.19956 53.1826 5.58722 52.8033 6.09248C52.424 6.59774 52.2215 7.19012 52.1956 7.86959H46.8297C46.8556 6.32769 47.2909 4.9687 48.1356 3.79265C48.9804 2.6166 50.1182 1.69754 51.5491 1.03547C52.9886 0.364689 54.6135 0.0292969 56.4236 0.0292969C58.251 0.0292969 59.8501 0.364689 61.2206 1.03547C62.5912 1.70625 63.6557 2.61225 64.4143 3.75345C65.1814 4.88594 65.5607 6.15782 65.5521 7.56907C65.5607 9.06742 65.0996 10.3175 64.1686 11.3194C63.2463 12.3212 62.0438 12.9571 60.5612 13.2271V13.4362C62.5093 13.6889 63.9919 14.3728 65.009 15.4878C66.0348 16.5942 66.5434 17.9793 66.5347 19.6432C66.5434 21.1677 66.1081 22.5223 65.2288 23.707C64.3583 24.8918 63.1558 25.824 61.6214 26.5034C60.0871 27.1829 58.3286 27.5227 56.3461 27.5227ZM79.6616 27.5488C77.6185 27.5488 75.8604 27.1307 74.3866 26.2944C72.921 25.4494 71.7918 24.2559 70.9988 22.714C70.2058 21.1633 69.8092 19.3296 69.8092 17.2126C69.8092 15.148 70.2058 13.336 70.9988 11.7767C71.7918 10.2174 72.9081 9.00209 74.3473 8.13097C75.7959 7.25982 77.4938 6.82424 79.4419 6.82424C80.7525 6.82424 81.9718 7.03768 83.1013 7.46454C84.2389 7.88272 85.2304 8.51429 86.0749 9.35932C86.9284 10.2043 87.5918 11.2671 88.066 12.5476C88.5402 13.8196 88.777 15.3092 88.777 17.0167V18.5455H72.0073V15.0958H83.5925C83.5925 14.2943 83.4204 13.5844 83.0753 12.9658C82.7302 12.3473 82.2523 11.8638 81.64 11.5153C81.0367 11.1582 80.3339 10.9796 79.5324 10.9796C78.6961 10.9796 77.9547 11.1756 77.3083 11.5676C76.6708 11.9509 76.1707 12.4693 75.8085 13.1227C75.4464 13.7673 75.2616 14.486 75.2527 15.2787V18.5586C75.2527 19.5517 75.4337 20.4098 75.7959 21.1328C76.1662 21.8559 76.6879 22.4134 77.3603 22.8055C78.0326 23.1974 78.8297 23.3935 79.7521 23.3935C80.3643 23.3935 80.9246 23.3063 81.433 23.1321C81.9421 22.9579 82.377 22.6966 82.7391 22.3481C83.1013 21.9996 83.3766 21.5728 83.5666 21.0675L88.6612 21.4072C88.4022 22.6443 87.8723 23.7245 87.0708 24.6479C86.2775 25.5626 85.2519 26.277 83.9933 26.791C82.7436 27.2962 81.2994 27.5488 79.6616 27.5488ZM91.2081 27.1568L91.1822 22.7401H91.8419C92.3072 22.7401 92.7079 22.6268 93.0441 22.4003C93.3892 22.1651 93.6734 21.7862 93.8976 21.2635C94.1217 20.7408 94.2983 20.0482 94.4274 19.1858C94.5573 18.3147 94.6434 17.2432 94.6864 15.9713L95.0092 7.08559H110.111V27.1568H104.862V11.4631H99.9614L99.6512 17.5916C99.574 19.273 99.3714 20.719 99.0434 21.9299C98.725 23.1408 98.2805 24.1339 97.712 24.9093C97.1428 25.6759 96.4578 26.2421 95.6556 26.608C94.8541 26.9739 93.9235 27.1568 92.863 27.1568H91.2081ZM123.432 27.5488C121.389 27.5488 119.631 27.1307 118.157 26.2944C116.692 25.4494 115.563 24.2559 114.77 22.714C113.976 21.1633 113.58 19.3296 113.58 17.2126C113.58 15.148 113.976 13.336 114.77 11.7767C115.563 10.2174 116.679 9.00209 118.118 8.13097C119.567 7.25982 121.265 6.82424 123.213 6.82424C124.523 6.82424 125.742 7.03768 126.872 7.46454C128.01 7.88272 129.001 8.51429 129.846 9.35932C130.699 10.2043 131.362 11.2671 131.837 12.5476C132.311 13.8196 132.548 15.3092 132.548 17.0167V18.5455H115.778V15.0958H127.363C127.363 14.2943 127.191 13.5844 126.846 12.9658C126.501 12.3473 126.023 11.8638 125.411 11.5153C124.807 11.1582 124.105 10.9796 123.303 10.9796C122.467 10.9796 121.725 11.1756 121.079 11.5676C120.442 11.9509 119.941 12.4693 119.579 13.1227C119.217 13.7673 119.032 14.486 119.023 15.2787V18.5586C119.023 19.5517 119.204 20.4098 119.567 21.1328C119.937 21.8559 120.459 22.4134 121.131 22.8055C121.803 23.1974 122.6 23.3935 123.523 23.3935C124.135 23.3935 124.695 23.3063 125.204 23.1321C125.713 22.9579 126.148 22.6966 126.51 22.3481C126.872 21.9996 127.147 21.5728 127.337 21.0675L132.432 21.4072C132.173 22.6443 131.643 23.7245 130.842 24.6479C130.048 25.5626 129.023 26.277 127.764 26.791C126.514 27.2962 125.07 27.5488 123.432 27.5488ZM149.964 14.8998V19.2773H139.595V14.8998H149.964ZM141.405 7.08559V27.1568H136.142V7.08559H141.405ZM153.417 7.08559V27.1568H148.193V7.08559H153.417ZM166.741 27.5488C164.698 27.5488 162.939 27.1307 161.466 26.2944C160 25.4494 158.871 24.2559 158.078 22.714C157.285 21.1633 156.888 19.3296 156.888 17.2126C156.888 15.148 157.285 13.336 158.078 11.7767C158.871 10.2174 159.987 9.00209 161.427 8.13097C162.875 7.25982 164.573 6.82424 166.521 6.82424C167.832 6.82424 169.051 7.03768 170.18 7.46454C171.318 7.88272 172.309 8.51429 173.154 9.35932C174.007 10.2043 174.672 11.2671 175.145 12.5476C175.619 13.8196 175.857 15.3092 175.857 17.0167V18.5455H159.086V15.0958H170.672C170.672 14.2943 170.499 13.5844 170.154 12.9658C169.809 12.3473 169.331 11.8638 168.719 11.5153C168.116 11.1582 167.413 10.9796 166.611 10.9796C165.776 10.9796 165.034 11.1756 164.387 11.5676C163.75 11.9509 163.25 12.4693 162.888 13.1227C162.526 13.7673 162.341 14.486 162.332 15.2787V18.5586C162.332 19.5517 162.513 20.4098 162.875 21.1328C163.245 21.8559 163.767 22.4134 164.439 22.8055C165.112 23.1974 165.909 23.3935 166.831 23.3935C167.443 23.3935 168.004 23.3063 168.512 23.1321C169.021 22.9579 169.456 22.6966 169.818 22.3481C170.18 21.9996 170.456 21.5728 170.646 21.0675L175.74 21.4072C175.481 22.6443 174.951 23.7245 174.15 24.6479C173.357 25.5626 172.331 26.277 171.072 26.791C169.823 27.2962 168.378 27.5488 166.741 27.5488ZM196.816 7.08559V23.3151H199.984V33.612H194.631V27.1568H179.451V7.08559H184.713V22.7793H191.618V7.08559H196.816Z" fill="white"/>
<path d="M48.2533 38.2523L51.2198 33.4394H52.3101V39.6621H51.3641V34.8493L48.4137 39.6621H47.3074V33.4394H48.2533V38.2523ZM58.1637 36.1133V37.0045H54.7644V36.1133H58.1637ZM54.9889 33.4394V39.6621H54.0429V33.4394H54.9889ZM58.8853 33.4394V39.6621H57.9392V33.4394H58.8853ZM59.9556 41.4446V38.7708H60.4687C60.5943 38.6385 60.7025 38.4953 60.7934 38.3414C60.8842 38.1875 60.9631 38.0051 61.0299 37.7945C61.0994 37.5812 61.1582 37.3219 61.2063 37.0166C61.2544 36.7088 61.2971 36.3374 61.3345 35.9026L61.543 33.4394H65.4554V38.7708H66.4015V41.4446H65.4554V39.6621H60.9016V41.4446H59.9556ZM61.543 38.7708H64.5094V34.3307H62.4249L62.2646 35.9026C62.1978 36.5535 62.1149 37.122 62.016 37.6082C61.9172 38.0943 61.7595 38.4818 61.543 38.7708ZM68.2665 41.9956C68.1061 41.9956 67.9632 41.9821 67.8375 41.9551C67.712 41.9308 67.6251 41.9065 67.577 41.8822L67.8175 41.0396C68.0473 41.099 68.2505 41.1206 68.4268 41.1044C68.6032 41.0882 68.7595 41.0085 68.8959 40.8653C69.0348 40.7249 69.1618 40.4966 69.2766 40.1807L69.453 39.6945L67.1762 33.4394H68.2024L69.902 38.3981H69.9661L71.6658 33.4394H72.692L70.0784 40.5696C69.9608 40.891 69.8151 41.157 69.6415 41.3677C69.4677 41.5811 69.266 41.739 69.0361 41.8417C68.809 41.9443 68.5524 41.9956 68.2665 41.9956ZM76.2218 39.7918C75.6444 39.7918 75.1472 39.654 74.7302 39.3785C74.3138 39.1031 73.9928 38.7236 73.7683 38.2401C73.5438 37.7567 73.4316 37.2044 73.4316 36.5832C73.4316 35.9512 73.5466 35.3935 73.7763 34.91C74.0088 34.4239 74.3324 34.0444 74.7465 33.7716C75.1636 33.4961 75.6496 33.3584 76.2055 33.3584C76.6389 33.3584 77.0285 33.4394 77.3758 33.6015C77.7238 33.7635 78.0081 33.9904 78.23 34.2821C78.4519 34.5738 78.5891 34.9141 78.6426 35.303H77.6971C77.6244 35.0194 77.4641 34.7682 77.2155 34.5494C76.9699 34.328 76.6389 34.2173 76.2218 34.2173C75.853 34.2173 75.5294 34.3145 75.2519 34.5089C74.9765 34.7007 74.7613 34.9721 74.6062 35.3233C74.4541 35.6717 74.3776 36.0809 74.3776 36.5508C74.3776 37.0315 74.4526 37.4501 74.6018 37.8067C74.7546 38.1632 74.9684 38.44 75.2437 38.6372C75.5212 38.8343 75.8478 38.9329 76.2218 38.9329C76.4674 38.9329 76.6908 38.8897 76.8912 38.8033C77.0916 38.7168 77.2615 38.5926 77.4003 38.4305C77.5391 38.2685 77.6378 38.0741 77.6971 37.8472H78.6426C78.5891 38.2145 78.4571 38.5454 78.2463 38.8397C78.0378 39.1314 77.761 39.3637 77.4159 39.5366C77.0738 39.7067 76.676 39.7918 76.2218 39.7918ZM79.5405 34.3307V33.4394H84.5439V34.3307H82.5231V39.6621H81.5769V34.3307H79.5405ZM85.9235 41.9956V33.4394H86.8378V34.4279H86.9498C87.0188 34.3199 87.1153 34.1822 87.2385 34.0147C87.3639 33.8446 87.5428 33.6933 87.7758 33.5609C88.0103 33.4259 88.3287 33.3584 88.7294 33.3584C89.2481 33.3584 89.7053 33.4894 90.1008 33.7514C90.4964 34.0133 90.8044 34.3847 91.0263 34.8655C91.2481 35.3462 91.3595 35.9134 91.3595 36.567C91.3595 37.226 91.2481 37.7972 91.0263 38.2807C90.8044 38.7614 90.4971 39.1341 90.1046 39.3988C89.712 39.6608 89.2585 39.7918 88.7457 39.7918C88.3502 39.7918 88.0333 39.7256 87.7958 39.5933C87.5576 39.4582 87.3743 39.3056 87.2467 39.1355C87.1183 38.9626 87.0188 38.8195 86.9498 38.706H86.8697V41.9956H85.9235ZM86.8533 36.5508C86.8533 37.0207 86.9216 37.4353 87.0582 37.7945C87.194 38.151 87.3936 38.4305 87.6556 38.6331C87.9168 38.833 88.2381 38.9329 88.6174 38.9329C89.0129 38.9329 89.3431 38.8276 89.6073 38.6169C89.8745 38.4035 90.0749 38.1173 90.2085 37.758C90.345 37.3961 90.4133 36.9937 90.4133 36.5508C90.4133 36.1133 90.3465 35.7189 90.2129 35.3678C90.0815 35.014 89.8827 34.7345 89.6155 34.5292C89.3506 34.3213 89.0181 34.2173 88.6174 34.2173C88.2322 34.2173 87.9094 34.3159 87.6474 34.513C87.3854 34.7075 87.1873 34.9802 87.0537 35.3314C86.9201 35.6798 86.8533 36.0863 86.8533 36.5508ZM93.7483 38.2523L96.7146 33.4394H97.8047V39.6621H96.8593V34.8493L93.9086 39.6621H92.8021V33.4394H93.7483V38.2523ZM101.35 39.808C100.959 39.808 100.605 39.7337 100.287 39.5852C99.9695 39.4339 99.7172 39.2165 99.5302 38.9329C99.3424 38.6466 99.2489 38.3009 99.2489 37.8958C99.2489 37.5393 99.3186 37.2503 99.4574 37.0288C99.5969 36.8047 99.7825 36.6291 100.015 36.5021C100.247 36.3752 100.504 36.2807 100.784 36.2186C101.068 36.1538 101.352 36.1025 101.639 36.0647C102.013 36.016 102.316 35.9795 102.548 35.9552C102.784 35.9282 102.954 35.8837 103.061 35.8216C103.171 35.7594 103.226 35.6514 103.226 35.4974V35.465C103.226 35.0654 103.118 34.7547 102.901 34.5332C102.687 34.3118 102.363 34.2011 101.927 34.2011C101.475 34.2011 101.121 34.301 100.864 34.5008C100.608 34.7007 100.428 34.9141 100.323 35.141L99.4255 34.8169C99.5858 34.4387 99.7995 34.1444 100.067 33.9337C100.337 33.7203 100.631 33.5718 100.949 33.488C101.27 33.4016 101.585 33.3584 101.895 33.3584C102.093 33.3584 102.32 33.3827 102.577 33.4313C102.836 33.4772 103.086 33.5732 103.326 33.719C103.569 33.8648 103.771 34.085 103.932 34.3793C104.092 34.6737 104.172 35.0681 104.172 35.5623V39.6621H103.226V38.8195H103.178C103.114 38.9545 103.007 39.099 102.857 39.2529C102.707 39.4069 102.508 39.5379 102.26 39.6459C102.011 39.7539 101.708 39.808 101.35 39.808ZM101.494 38.9491C101.868 38.9491 102.183 38.8748 102.44 38.7263C102.699 38.5778 102.894 38.386 103.026 38.151C103.159 37.916 103.226 37.6689 103.226 37.4096V36.5345C103.186 36.5832 103.098 36.6278 102.961 36.6683C102.827 36.7061 102.672 36.7398 102.496 36.7695C102.323 36.7966 102.153 36.8209 101.987 36.8425C101.824 36.8614 101.692 36.8776 101.59 36.8911C101.345 36.9235 101.115 36.9761 100.901 37.0491C100.689 37.1193 100.519 37.226 100.387 37.3691C100.26 37.5095 100.195 37.7013 100.195 37.9444C100.195 38.2766 100.317 38.5278 100.56 38.6979C100.806 38.8654 101.118 38.9491 101.494 38.9491ZM105.354 39.6621V38.7708H105.578C105.762 38.7708 105.916 38.7344 106.039 38.6615C106.162 38.5859 106.26 38.4548 106.335 38.2685C106.413 38.0795 106.472 37.8175 106.512 37.4825C106.554 37.145 106.585 36.7155 106.604 36.1943L106.716 33.4394H110.821V39.6621H109.875V34.3307H107.614L107.518 36.5508C107.497 37.0613 107.451 37.5109 107.382 37.8998C107.315 38.2861 107.212 38.6102 107.073 38.8721C106.936 39.1341 106.755 39.3313 106.528 39.4636C106.3 39.596 106.016 39.6621 105.674 39.6621H105.354ZM113.374 35.6919H115.138C115.86 35.6919 116.412 35.8769 116.794 36.2469C117.176 36.617 117.367 37.0856 117.367 37.6527C117.367 38.0254 117.282 38.3644 117.111 38.6696C116.939 38.972 116.689 39.2138 116.357 39.3947C116.026 39.573 115.619 39.6621 115.138 39.6621H112.557V33.4394H113.503V38.7708H115.138C115.512 38.7708 115.82 38.6709 116.061 38.471C116.301 38.2712 116.421 38.0146 116.421 37.7013C116.421 37.3718 116.301 37.1031 116.061 36.8951C115.82 36.6872 115.512 36.5832 115.138 36.5832H113.374V35.6919ZM122.928 36.1133V37.0045H119.529V36.1133H122.928ZM119.754 33.4394V39.6621H118.807V33.4394H119.754ZM123.65 33.4394V39.6621H122.703V33.4394H123.65ZM126.195 35.6919H127.959C128.68 35.6919 129.233 35.8769 129.615 36.2469C129.997 36.617 130.188 37.0856 130.188 37.6527C130.188 38.0254 130.102 38.3644 129.932 38.6696C129.76 38.972 129.509 39.2138 129.178 39.3947C128.846 39.573 128.44 39.6621 127.959 39.6621H125.377V33.4394H126.323V38.7708H127.959C128.333 38.7708 128.64 38.6709 128.881 38.471C129.121 38.2712 129.241 38.0146 129.241 37.7013C129.241 37.3718 129.121 37.1031 128.881 36.8951C128.64 36.6872 128.333 36.5832 127.959 36.5832H126.195V35.6919ZM131.166 39.6621V33.4394H132.112V39.6621H131.166ZM134.79 38.2523L137.757 33.4394H138.847V39.6621H137.9V34.8493L134.95 39.6621H133.844V33.4394H134.79V38.2523ZM137.131 31.3652H138.013C138.013 31.8027 137.863 32.1606 137.564 32.4388C137.264 32.717 136.859 32.8561 136.345 32.8561C135.84 32.8561 135.438 32.717 135.138 32.4388C134.842 32.1606 134.694 31.8027 134.694 31.3652H135.575C135.575 31.5758 135.633 31.7609 135.748 31.9202C135.866 32.0795 136.064 32.1593 136.345 32.1593C136.626 32.1593 136.826 32.0795 136.946 31.9202C137.069 31.7609 137.131 31.5758 137.131 31.3652ZM143.754 39.6621V33.4394H148.597V39.6621H147.65V34.3307H144.7V39.6621H143.754ZM152.136 39.808C151.746 39.808 151.392 39.7337 151.074 39.5852C150.756 39.4339 150.503 39.2165 150.316 38.9329C150.129 38.6466 150.036 38.3009 150.036 37.8958C150.036 37.5393 150.105 37.2503 150.244 37.0288C150.383 36.8047 150.568 36.6291 150.801 36.5021C151.034 36.3752 151.29 36.2807 151.571 36.2186C151.854 36.1538 152.139 36.1025 152.424 36.0647C152.799 36.016 153.102 35.9795 153.335 35.9552C153.57 35.9282 153.741 35.8837 153.848 35.8216C153.958 35.7594 154.012 35.6514 154.012 35.4974V35.465C154.012 35.0654 153.904 34.7547 153.687 34.5332C153.474 34.3118 153.149 34.2011 152.713 34.2011C152.262 34.2011 151.908 34.301 151.651 34.5008C151.394 34.7007 151.214 34.9141 151.11 35.141L150.212 34.8169C150.372 34.4387 150.586 34.1444 150.853 33.9337C151.123 33.7203 151.417 33.5718 151.735 33.488C152.056 33.4016 152.371 33.3584 152.681 33.3584C152.879 33.3584 153.106 33.3827 153.362 33.4313C153.622 33.4772 153.872 33.5732 154.113 33.719C154.355 33.8648 154.557 34.085 154.718 34.3793C154.878 34.6737 154.958 35.0681 154.958 35.5623V39.6621H154.012V38.8195H153.964C153.9 38.9545 153.793 39.099 153.644 39.2529C153.494 39.4069 153.295 39.5379 153.046 39.6459C152.798 39.7539 152.494 39.808 152.136 39.808ZM152.28 38.9491C152.654 38.9491 152.97 38.8748 153.227 38.7263C153.486 38.5778 153.681 38.386 153.811 38.151C153.945 37.916 154.012 37.6689 154.012 37.4096V36.5345C153.972 36.5832 153.884 36.6278 153.748 36.6683C153.614 36.7061 153.459 36.7398 153.282 36.7695C153.109 36.7966 152.939 36.8209 152.773 36.8425C152.611 36.8614 152.478 36.8776 152.377 36.8911C152.131 36.9235 151.901 36.9761 151.687 37.0491C151.476 37.1193 151.305 37.226 151.174 37.3691C151.046 37.5095 150.982 37.7013 150.982 37.9444C150.982 38.2766 151.103 38.5278 151.346 38.6979C151.592 38.8654 151.903 38.9491 152.28 38.9491ZM156.685 41.9956V33.4394H157.599V34.4279H157.711C157.78 34.3199 157.877 34.1822 158 34.0147C158.125 33.8446 158.304 33.6933 158.537 33.5609C158.772 33.4259 159.09 33.3584 159.491 33.3584C160.01 33.3584 160.467 33.4894 160.862 33.7514C161.257 34.0133 161.566 34.3847 161.788 34.8655C162.01 35.3462 162.121 35.9134 162.121 36.567C162.121 37.226 162.01 37.7972 161.788 38.2807C161.566 38.7614 161.259 39.1341 160.866 39.3988C160.473 39.6608 160.02 39.7918 159.507 39.7918C159.112 39.7918 158.795 39.7256 158.557 39.5933C158.319 39.4582 158.136 39.3056 158.008 39.1355C157.88 38.9626 157.78 38.8195 157.711 38.706H157.631V41.9956H156.685ZM157.615 36.5508C157.615 37.0207 157.683 37.4353 157.82 37.7945C157.955 38.151 158.155 38.4305 158.417 38.6331C158.678 38.833 159 38.9329 159.379 38.9329C159.774 38.9329 160.105 38.8276 160.369 38.6169C160.636 38.4035 160.836 38.1173 160.97 37.758C161.106 37.3961 161.175 36.9937 161.175 36.5508C161.175 36.1133 161.108 35.7189 160.974 35.3678C160.843 35.014 160.644 34.7345 160.377 34.5292C160.112 34.3213 159.779 34.2173 159.379 34.2173C158.994 34.2173 158.671 34.3159 158.409 34.513C158.147 34.7075 157.949 34.9802 157.815 35.3314C157.682 35.6798 157.615 36.0863 157.615 36.5508ZM163.564 39.6621V33.4394H164.51V36.1457H165.135L167.348 33.4394H168.566L166.081 36.4373L168.599 39.6621H167.38L165.359 37.0369H164.51V39.6621H163.564Z" fill="white"/>
</g>
<defs>
<clipPath id="clip0_249_1347">
<rect width="200" height="42" fill="white"/>
</clipPath>
</defs>
</svg>
