<svg width="81" height="80" viewBox="0 0 81 80" fill="none" xmlns="http://www.w3.org/2000/svg">
<path d="M52.8865 20.4864C46.1345 20.4864 40.2329 24.7528 38.2569 30.9536H17.2105L16.5665 30.956C16.3465 30.956 16.1361 31.0064 15.9457 31.0944L15.9417 31.0912L15.3433 31.3928C13.9769 32.08 13.1289 33.4336 13.1289 34.924V55.5432C13.1289 56.3088 13.3545 57.04 13.7633 57.6656L13.6217 57.7736L14.5729 58.5688L14.5817 58.5752C14.5831 58.5768 14.5847 58.5781 14.5865 58.5792L15.2273 59.0976L15.2969 59.0448C15.89 59.3521 16.5481 59.5126 17.2161 59.5128H55.4649C56.2994 59.513 57.1148 59.2636 57.8065 58.7968H57.8465L58.1377 58.5512L58.1585 58.5312L59.0841 57.7608L58.9297 57.6432C59.3297 57.0192 59.5513 56.2952 59.5513 55.5456V48.76C64.8289 46.2832 68.2033 41.0976 68.2033 35.3648C68.2033 27.1608 61.3321 20.4864 52.8865 20.4864ZM37.7705 32.9592C37.7417 33.1288 37.7177 33.3 37.6953 33.4704L37.6865 33.5344C37.6521 33.804 37.6281 34.0744 37.6089 34.3464L37.5969 34.5424C37.5817 34.816 37.5713 35.0904 37.5713 35.3656C37.5713 35.5672 37.5761 35.768 37.5841 35.968L37.5953 36.164C37.6025 36.2984 37.6097 36.432 37.6209 36.5656C37.6273 36.6432 37.6361 36.72 37.6433 36.7968C37.6553 36.9184 37.6673 37.0392 37.6825 37.16C37.6921 37.2408 37.7041 37.3208 37.7153 37.4016C37.7313 37.5184 37.7481 37.6344 37.7673 37.7504L37.8097 37.9936C37.8305 38.1088 37.8529 38.2232 37.8761 38.3376C37.8929 38.4168 37.9089 38.496 37.9265 38.5744C37.9529 38.6904 37.9809 38.8064 38.0097 38.9216C38.0289 38.9976 38.0473 39.0728 38.0673 39.148C38.0993 39.2696 38.1353 39.3896 38.1705 39.5096C38.1905 39.5776 38.2097 39.6456 38.2313 39.7136C38.2737 39.8504 38.3201 39.9872 38.3673 40.1224C38.3841 40.172 38.4001 40.2224 38.4177 40.2712C38.5513 40.6448 38.7009 41.012 38.8657 41.3736L38.9297 41.508C38.9929 41.6416 39.0561 41.7752 39.1233 41.908C39.1529 41.9664 39.1841 42.024 39.2145 42.0824C39.2761 42.2 39.3385 42.3176 39.4033 42.4344L39.5105 42.6208C39.5745 42.7312 39.6393 42.8408 39.7065 42.9504C39.7457 43.0144 39.7865 43.0784 39.8265 43.1416C39.8937 43.2472 39.9625 43.3528 40.0329 43.4576L40.1633 43.6488L40.2433 43.7672L39.9353 44.0008H39.9345L36.3817 46.6968L18.3713 32.9608H37.7705V32.9592ZM15.1929 34.924C15.1929 34.396 15.4081 33.9032 15.7777 33.54L30.3681 44.9904L15.4001 56.416C15.263 56.1455 15.1917 55.8465 15.1921 55.5432L15.1929 34.924ZM32.2577 46.0992L35.3561 48.4624C35.6519 48.6845 36.0119 48.8045 36.3818 48.8044C36.7518 48.8043 37.1117 48.684 37.4073 48.4616L40.4969 46.1184L52.0969 54.9768L55.4121 57.5088H17.3105L32.2577 46.0992ZM48.3865 49.592C48.4513 49.6112 48.5177 49.628 48.5833 49.6464L48.7601 49.6952C49.0017 49.7608 49.2441 49.8224 49.4897 49.876L49.5153 49.8816C49.7521 49.9328 49.9905 49.9776 50.2313 50.0184L50.4185 50.0488C50.6673 50.088 50.9161 50.1232 51.1681 50.1504L51.1857 50.152C51.497 50.1845 51.8091 50.2079 52.1217 50.2224C52.3769 50.2344 52.6321 50.2432 52.8881 50.2432C53.1249 50.2432 53.3601 50.2368 53.5945 50.2264L53.8033 50.2152C53.9769 50.2056 54.1497 50.1928 54.3217 50.1776L54.5281 50.1584C54.7553 50.1352 54.9817 50.108 55.2057 50.0752L55.2217 50.0728C55.4521 50.0384 55.6809 49.9976 55.9081 49.9536C55.9745 49.9408 56.0401 49.9264 56.1065 49.9128C56.3422 49.8639 56.5766 49.8095 56.8097 49.7496C57.0241 49.6944 57.2377 49.636 57.4497 49.5712L57.4793 49.5624L57.4873 49.56V55.5448C57.4873 55.84 57.4185 56.128 57.2905 56.3904L52.6505 52.8472L48.3865 49.592ZM58.1097 47.1976C56.4555 47.8895 54.6796 48.2434 52.8865 48.2384C52.6369 48.2384 52.3881 48.232 52.1401 48.2184C48.4265 48.0176 44.9897 46.3232 42.6065 43.4872L42.5825 43.4592L42.5225 43.3864L42.4801 43.3344C40.6193 41.0472 39.6361 38.2912 39.6361 35.3648C39.6361 34.2944 39.7713 33.2296 40.0385 32.2008V32.1992C41.5281 26.4832 46.8113 22.492 52.8873 22.492C60.1945 22.492 66.1393 28.2664 66.1393 35.3648C66.1385 40.5192 62.9881 45.1632 58.1097 47.1976Z" fill="#00B806"/>
<path d="M59.0627 28.4832C56.3771 26.192 52.2731 25.7056 49.0315 27.0864C44.4379 29.0424 42.3675 34.7936 44.5539 39.1496C45.6035 41.24 47.5347 42.972 49.7299 43.8864C52.7003 45.124 56.1523 44.1424 58.8003 42.612C59.9411 41.9528 58.9035 40.2184 57.7587 40.88C55.8179 42.0016 53.2163 42.9448 50.9523 42.2088C49.5931 41.7664 48.3587 40.8384 47.4371 39.788C44.8163 36.8024 45.3107 31.908 48.6491 29.5792C50.4339 28.3344 52.6603 28.068 54.7563 28.5616C58.0459 29.336 59.7451 31.9912 60.0139 35.1304C60.0883 35.992 59.9963 37.1528 58.8051 37.1528C57.7275 37.152 57.5795 36.2128 57.5547 35.4176C57.5155 34.1632 57.5547 32.9032 57.5547 31.648C57.5547 30.3576 55.4907 30.356 55.4907 31.648C55.4907 31.8224 55.4875 31.9976 55.4859 32.1736C54.7566 31.6093 53.8591 31.3062 52.9371 31.3128C50.6451 31.3128 48.7179 33.1856 48.7179 35.4112C48.7179 37.5768 50.5395 39.4128 52.7635 39.5008C53.431 39.5339 54.0965 39.4041 54.7027 39.1225C55.3088 38.841 55.8373 38.4162 56.2427 37.8848C57.1027 38.9632 58.5787 39.4968 60.0595 38.904C64.2155 37.2408 61.4475 30.5168 59.0627 28.4832ZM50.7819 35.4104C50.7819 32.7032 54.9427 32.728 55.0915 35.4104C54.9427 38.0928 50.7819 38.1152 50.7819 35.4104Z" fill="#00B806"/>
</svg>
