<svg width="81" height="80" viewBox="0 0 81 80" fill="none" xmlns="http://www.w3.org/2000/svg">
<path d="M34.8803 11.1488H22.2579V14.7552H11.4395V32.7864H34.8811V11.1488H34.8803ZM33.0779 30.984H29.4715V29.1808H27.6683V30.984H24.0611V12.952H33.0771L33.0779 30.984ZM16.8491 29.1808V30.984H13.2427V16.5584H22.2579V30.984H18.6515V29.1808H16.8491ZM31.2747 16.5584H29.4715V14.7552H31.2747V16.5584ZM31.2747 20.1648H29.4715V18.3616H31.2747V20.1648ZM31.2747 23.7712H29.4715V21.968H31.2747V23.7712ZM31.2747 27.3776H29.4715V25.5744H31.2747V27.3776ZM27.6683 20.1648H25.8651V18.3616H27.6683V20.1648ZM27.6683 23.7712H25.8651V21.968H27.6683V23.7712ZM27.6683 16.5584H25.8651V14.7552H27.6683V16.5584ZM27.6683 27.3776H25.8651V25.5744H27.6683V27.3776ZM20.4555 23.7712H18.6523V21.968H20.4555V23.7712ZM20.4555 20.1648H18.6523V18.3616H20.4555V20.1648ZM20.4555 27.3776H18.6523V25.5744H20.4555V27.3776ZM15.0459 18.3616H16.8491V20.1648H15.0459V18.3616ZM15.0459 25.5744H16.8491V27.3776H15.0459V25.5744ZM15.0459 21.968H16.8491V23.7712H15.0459V21.968ZM60.5475 51.7208H44.3763L39.8683 57.1304H35.7827C33.7267 57.1304 31.2747 58.0688 31.2747 62.54V67.9496H37.0115C37.6674 68.5302 38.5131 68.8507 39.3891 68.8507C40.265 68.8507 41.1107 68.5302 41.7667 67.9496H58.6499C59.3058 68.5302 60.1514 68.8509 61.0275 68.8512C61.9035 68.8509 62.7491 68.5302 63.405 67.9496H69.1419V57.1304H65.0563L60.5475 51.7208ZM67.3378 58.9336V60.7368H65.5346V62.54H67.3378V66.1464H64.5146C64.5891 65.8576 64.6331 65.5568 64.6331 65.2448C64.632 64.2887 64.2517 63.372 63.5756 62.6959C62.8995 62.0198 61.9828 61.6395 61.0267 61.6384C60.0705 61.6395 59.1538 62.0198 58.4777 62.6959C57.8016 63.372 57.4213 64.2887 57.4203 65.2448C57.4203 65.5568 57.4643 65.8576 57.5395 66.1464H42.8763C42.9507 65.8576 42.9947 65.5568 42.9947 65.2448C42.9936 64.2887 42.6133 63.372 41.9372 62.6959C41.2611 62.0198 40.3444 61.6395 39.3883 61.6384C38.4321 61.6395 37.5154 62.0198 36.8393 62.6959C36.1632 63.372 35.7829 64.2887 35.7819 65.2448C35.7819 65.5568 35.8259 65.8576 35.9011 66.1464H33.0779V62.54H34.8811V60.7368H33.2787C33.6955 59.1944 34.7067 58.9336 35.7819 58.9336H50.2075V63.4416H52.0107V58.9336H67.3378ZM59.4747 66.1464C59.3121 65.8736 59.2254 65.5624 59.2235 65.2448C59.2239 64.7667 59.414 64.3083 59.7521 63.9702C60.0901 63.6321 60.5485 63.442 61.0267 63.4416C61.5048 63.442 61.9632 63.6321 62.3012 63.9702C62.6393 64.3083 62.8294 64.7667 62.8299 65.2448C62.8299 65.5744 62.7347 65.88 62.5795 66.1464C62.4224 66.4197 62.1963 66.6468 61.9238 66.8051C61.6512 66.9633 61.3418 67.0471 61.0267 67.048C60.7116 67.047 60.4024 66.9631 60.13 66.8049C59.8576 66.6466 59.6316 66.4196 59.4747 66.1464ZM37.8363 66.1464C37.6739 65.8736 37.5875 65.5623 37.5859 65.2448C37.5859 64.2504 38.3947 63.4416 39.3891 63.4416C40.3835 63.4416 41.1923 64.2504 41.1923 65.2448C41.1923 65.5744 41.0971 65.88 40.9419 66.1464C40.785 66.4196 40.559 66.6467 40.2866 66.805C40.0141 66.9632 39.7049 67.047 39.3899 67.048C39.0746 67.0471 38.7651 66.9633 38.4924 66.8051C38.2198 66.6468 37.9935 66.4197 37.8363 66.1464ZM50.2083 53.524V57.1304H42.2155L45.2211 53.524H50.2083ZM52.0115 57.1304V53.524H59.7035L62.7091 57.1304H52.0115ZM51.1099 49.6944L51.8243 48.7672C52.4891 47.9032 58.3227 40.224 58.3227 36.5232C58.3227 32.5312 55.0867 29.2832 51.1099 29.2832C47.1323 29.2832 43.8971 32.5312 43.8971 36.5232C43.8971 40.224 49.7307 47.9032 50.3955 48.7672L51.1099 49.6944ZM51.1099 31.0872C54.0923 31.0872 56.5195 33.5256 56.5195 36.524C56.5195 38.8296 53.0915 44.0008 51.1099 46.7128C49.1275 44.0008 45.7003 38.8296 45.7003 36.524C45.6995 33.5256 48.1267 31.0872 51.1099 31.0872ZM51.1099 40C52.066 39.9989 52.9827 39.6186 53.6588 38.9425C54.3349 38.2664 54.7152 37.3498 54.7163 36.3936C54.7152 35.4375 54.3349 34.5208 53.6588 33.8447C52.9827 33.1686 52.066 32.7883 51.1099 32.7872C50.1537 32.7883 49.237 33.1686 48.5609 33.8447C47.8848 34.5208 47.5045 35.4375 47.5035 36.3936C47.5043 37.3498 47.8845 38.2666 48.5607 38.9428C49.2368 39.6189 50.1536 39.9992 51.1099 40ZM51.1099 34.5904C52.1043 34.5904 52.9131 35.3992 52.9131 36.3936C52.9131 37.388 52.1043 38.1968 51.1099 38.1968C50.1147 38.1968 49.3067 37.388 49.3067 36.3936C49.3067 35.3992 50.1147 34.5904 51.1099 34.5904ZM29.4627 61.6384L29.4715 63.4416H27.6595V61.6384H29.4627ZM38.4611 42.7048H40.2819V44.5088H38.4787L38.4611 42.7048ZM33.0715 44.508H31.2683L31.2507 42.704H33.0715V44.508ZM21.3499 61.6272L21.3683 62.5296L21.3027 63.4288L20.4339 63.368L20.4795 61.6272H21.3499ZM17.3955 45.6104L16.6867 44.0456L17.5507 43.6192L18.3923 43.2952L19.0395 44.9784L17.3955 45.6104ZM18.2883 60.8848L19.0939 61.288L18.2867 62.9L17.5099 62.512L16.7027 62.2016L17.3499 60.5184L18.2883 60.8848ZM14.9571 45.2648L16.2315 46.54L14.9731 47.7984L13.6859 46.6032L14.3187 45.9024L14.9571 45.2648ZM25.8571 61.6384L25.8747 63.4416H24.0531V61.6384H25.8571ZM21.3547 42.7152H22.2563V44.5184H20.4851L20.4051 42.78L21.3547 42.7152ZM27.6635 44.508L27.6459 42.704H29.4667V44.508H27.6635ZM13.5075 50.72L11.8499 50.0752L12.5323 48.3736L14.1971 49.0672L13.5075 50.72ZM24.0587 44.508L24.0403 42.704H25.8619V44.508H24.0587ZM13.2427 53.972L11.4403 53.9888L11.4395 53.088L13.2427 53.0712V53.972ZM34.8563 42.7048H36.6771V44.5088H34.8739L34.8563 42.7048ZM12.2931 56.8832L13.0219 56.6064L12.1803 56.9296L12.2931 56.8832ZM14.9691 58.3432L15.5907 58.9648L14.9659 59.6152L14.2947 60.2168L13.7059 59.5648L14.9691 58.3432ZM13.8467 56.2416L12.2923 56.8824L12.1787 56.9256L11.8555 56.0952L13.5043 55.4192L13.8467 56.2416ZM42.0851 42.7048H43.8971V44.5088H42.0939L42.0851 42.7048ZM57.4203 43.6064H59.2323V45.4096H57.4291L57.4203 43.6064ZM53.8299 22.8696H52.0091V21.0664H53.8123L53.8299 22.8696ZM50.2251 22.8696H48.4035V21.0664H50.2067L50.2251 22.8696ZM46.6195 22.8696H44.7987V21.0664H46.6019L46.6195 22.8696ZM67.3378 31.4248H69.1411V33.228L67.3378 33.2464V31.4248ZM63.0627 24.0192L63.1235 23.908L63.5162 23.24L63.0627 24.0192ZM65.5131 26.1504L64.937 25.5104L66.2771 24.304L66.9499 25.0608L67.4795 25.7896L66.0211 26.8488L65.5131 26.1504ZM43.0147 22.8696H41.1939V21.0664H42.9971L43.0147 22.8696ZM61.8659 43.9912L61.6019 43.1296L62.4347 42.872L63.0203 44.5144L62.2067 44.8272L61.8659 43.9912ZM66.7755 28.0832L68.5323 27.6776L68.9307 29.4032L67.2555 29.872L66.9779 28.9608L66.7755 28.0832ZM60.8931 23.0848L59.0867 22.8168L59.3611 21.0336L61.1387 21.308L60.8931 23.0848ZM67.5339 40.5776L65.9898 39.7624L66.4162 38.9144L66.8706 38.136L68.4283 39.0448L67.5339 40.5776ZM65.1083 40.9184L66.2507 42.3144L64.8714 43.4432L63.7107 42.1192L65.1083 40.9184ZM57.4347 22.8696H55.6131V21.0664H57.4163L57.4347 22.8696ZM63.0594 24.0176L62.2883 23.5712L63.1507 22.0144L63.9323 22.44L63.1235 23.908L63.0594 24.0176ZM68.9579 36.9224L67.2355 36.7464L67.3075 35.7928L67.4443 34.9016L69.2267 35.176L68.9579 36.9224ZM39.3979 22.8696H37.5859V21.0664H39.3891L39.3979 22.8696Z" fill="#00B806"/>
</svg>
