<svg width="321" height="217" viewBox="0 0 321 217" fill="none" xmlns="http://www.w3.org/2000/svg">
<g clip-path="url(#clip0_237_2540)">
<path d="M292.053 204.417H29.7749C28.7752 204.417 27.9648 205.226 27.9648 206.225V212.76C27.9648 215.021 29.8001 216.853 32.0643 216.853H290.142C292.406 216.853 294.242 215.021 294.242 212.76V206.602C294.241 205.396 293.262 204.417 292.053 204.417Z" fill="#00B806"/>
<path d="M290.306 208.148H31.9017C29.7744 208.148 27.3051 206.432 28.1265 205.5L64.5528 164.143C64.9028 163.745 65.4965 163.526 66.2218 163.526H255.968C256.693 163.526 257.287 163.745 257.637 164.143L294.08 205.5C294.902 206.432 292.434 208.148 290.306 208.148Z" fill="#4DCE51"/>
<path d="M87.7303 170.729H78.4736C77.5104 170.729 76.489 171.083 76.1907 171.521L73.803 175.033C73.4865 175.499 74.0405 175.879 75.0424 175.879H84.6701C85.672 175.879 86.7047 175.499 86.9756 175.033L89.015 171.521C89.2695 171.082 88.6937 170.729 87.7303 170.729ZM73.6474 194.426H62.6843C61.5432 194.426 60.2811 194.922 59.8622 195.538L56.4893 200.5C56.0389 201.162 56.6405 201.703 57.8358 201.703H69.3227C70.5183 201.703 71.8014 201.162 72.186 200.5L75.0673 195.538C75.4254 194.922 74.7885 194.426 73.6474 194.426ZM91.941 194.426H80.9781C79.837 194.426 78.6342 194.922 78.2896 195.538L75.5126 200.5C75.1419 201.162 75.8084 201.703 77.004 201.703H88.4909C89.6868 201.703 90.9047 201.162 91.2096 200.5L93.495 195.538C93.7788 194.922 93.0824 194.426 91.941 194.426ZM195.306 194.426H184.343C183.202 194.426 182.336 194.922 182.409 195.538L183 200.5C183.079 201.162 184.113 201.703 185.308 201.703H196.795C197.99 201.703 198.841 201.162 198.697 200.5L197.615 195.538C197.48 194.922 196.446 194.426 195.306 194.426ZM214.099 194.426H203.136C201.995 194.426 201.191 194.922 201.34 195.538L202.543 200.5C202.704 201.162 203.804 201.703 205 201.703H216.486C217.682 201.703 218.467 201.162 218.24 200.5L216.544 195.538C216.334 194.922 215.24 194.426 214.099 194.426ZM232.893 194.426H221.93C220.789 194.426 220.045 194.922 220.271 195.538L222.086 200.5C222.329 201.162 223.496 201.703 224.692 201.703H236.178C237.374 201.703 238.092 201.162 237.784 200.5L235.476 195.538C235.189 194.922 234.034 194.426 232.893 194.426ZM263.528 194.426H242.202C239.982 194.426 238.424 194.922 238.723 195.538L241.137 200.5C241.458 201.162 243.606 201.703 245.932 201.703H268.278C270.604 201.703 272.122 201.162 271.672 200.5L268.303 195.538C267.884 194.922 265.748 194.426 263.528 194.426ZM104.612 170.729H95.3551C94.3917 170.729 93.4169 171.083 93.1759 171.521L91.2496 175.033C90.9939 175.499 91.5977 175.879 92.5999 175.879H102.227C103.229 175.879 104.212 175.499 104.422 175.033L106 171.521C106.198 171.082 105.576 170.729 104.612 170.729ZM106.206 177.182H96.3819C95.3595 177.182 94.3284 177.58 94.0773 178.074L92.0632 182.038C91.7955 182.565 92.4408 182.995 93.5073 182.995H103.748C104.814 182.995 105.853 182.565 106.069 182.038L107.692 178.074C107.894 177.58 107.229 177.182 106.206 177.182ZM124.301 177.182H114.477C113.455 177.182 112.476 177.58 112.29 178.074L110.8 182.038C110.602 182.565 111.304 182.995 112.371 182.995H122.611C123.677 182.995 124.66 182.565 124.806 182.038L125.905 178.074C126.042 177.58 125.324 177.182 124.301 177.182ZM142.396 177.182H132.572C131.55 177.182 130.624 177.58 130.504 178.074L129.537 182.038C129.408 182.565 130.168 182.995 131.233 182.995H141.474C142.54 182.995 143.466 182.565 143.543 182.038L144.118 178.074C144.19 177.58 143.419 177.182 142.396 177.182ZM160.491 177.182H150.667C149.645 177.182 148.772 177.58 148.716 178.074L148.273 182.038C148.214 182.565 149.029 182.995 150.095 182.995H160.336C161.402 182.995 162.271 182.565 162.278 182.038L162.331 178.074C162.337 177.58 161.514 177.182 160.491 177.182ZM178.586 177.182H168.763C167.74 177.182 166.919 177.58 166.929 178.074L167.009 182.038C167.02 182.565 167.892 182.995 168.958 182.995H179.199C180.265 182.995 181.078 182.565 181.015 182.038L180.543 178.074C180.485 177.58 179.609 177.182 178.586 177.182ZM196.682 177.182H186.857C185.835 177.182 185.067 177.58 185.142 178.074L185.745 182.038C185.826 182.565 186.755 182.995 187.821 182.995H198.062C199.127 182.995 199.883 182.565 199.751 182.038L198.756 178.074C198.633 177.58 197.704 177.182 196.682 177.182ZM214.777 177.182H204.952C203.93 177.182 203.214 177.58 203.355 178.074L204.482 182.038C204.632 182.565 205.618 182.995 206.684 182.995H216.924C217.99 182.995 218.69 182.565 218.488 182.038L216.969 178.074C216.78 177.58 215.799 177.182 214.777 177.182ZM232.871 177.182H223.047C222.025 177.182 221.362 177.58 221.568 178.074L223.218 182.038C223.438 182.565 224.481 182.995 225.547 182.995H235.787C236.853 182.995 237.496 182.565 237.225 182.038L235.182 178.074C234.928 177.58 233.894 177.182 232.871 177.182ZM109.473 185.543H99.1501C98.0755 185.543 96.9992 185.983 96.7441 186.528L94.6966 190.916C94.4235 191.5 95.111 191.977 96.2336 191.977H107.02C108.143 191.977 109.229 191.5 109.443 190.916L111.056 186.528C111.257 185.983 110.548 185.543 109.473 185.543ZM127.076 185.543H116.753C115.679 185.543 114.656 185.983 114.469 186.528L112.959 190.916C112.758 191.5 113.504 191.977 114.626 191.977H125.413C126.536 191.977 127.562 191.5 127.706 190.916L128.78 186.528C128.914 185.983 128.151 185.543 127.076 185.543ZM144.679 185.543H134.356C133.281 185.543 132.314 185.983 132.192 186.528L131.221 190.916C131.092 191.5 131.896 191.977 133.019 191.977H143.806C144.928 191.977 145.896 191.5 145.968 190.916L146.504 186.528C146.571 185.983 145.754 185.543 144.679 185.543ZM162.282 185.543H151.959C150.884 185.543 149.97 185.983 149.916 186.528L149.484 190.916C149.426 191.5 150.29 191.977 151.412 191.977H162.198C163.32 191.977 164.231 191.5 164.23 190.916L164.227 186.528C164.227 185.983 163.356 185.543 162.282 185.543ZM179.884 185.543H169.562C168.487 185.543 167.627 185.983 167.64 186.528L167.747 190.916C167.76 191.5 168.682 191.977 169.805 191.977H180.591C181.715 191.977 182.566 191.5 182.493 190.916L181.952 186.528C181.884 185.983 180.959 185.543 179.884 185.543ZM197.488 185.543H187.164C186.09 185.543 185.284 185.983 185.365 186.528L186.009 190.916C186.095 191.5 187.075 191.977 188.198 191.977H198.985C200.108 191.977 200.9 191.5 200.757 190.916L199.677 186.528C199.542 185.983 198.562 185.543 197.488 185.543ZM215.091 185.543H204.767C203.693 185.543 202.941 185.983 203.088 186.528L204.272 190.916C204.429 191.5 205.468 191.977 206.591 191.977H217.378C218.5 191.977 219.234 191.5 219.019 190.916L217.4 186.528C217.199 185.983 216.166 185.543 215.091 185.543ZM232.693 185.543H222.37C221.296 185.543 220.597 185.983 220.812 186.528L222.534 190.916C222.763 191.5 223.861 191.977 224.983 191.977H235.77C236.892 191.977 237.568 191.5 237.281 190.916L235.124 186.528C234.855 185.983 233.768 185.543 232.693 185.543ZM121.493 170.729H112.237C111.273 170.729 110.345 171.083 110.162 171.521L108.697 175.033C108.502 175.499 109.156 175.879 110.158 175.879H119.786C120.787 175.879 121.721 175.499 121.869 175.033L122.986 171.521C123.126 171.082 122.457 170.729 121.493 170.729ZM138.375 170.729H129.118C128.155 170.729 127.273 171.083 127.147 171.521L126.143 175.033C126.01 175.499 126.714 175.879 127.716 175.879H137.343C138.345 175.879 139.229 175.499 139.316 175.033L139.971 171.521C140.053 171.082 139.338 170.729 138.375 170.729ZM155.257 170.729H146C145.037 170.729 144.201 171.083 144.133 171.521L143.59 175.033C143.518 175.499 144.272 175.879 145.274 175.879H154.901C155.903 175.879 156.736 175.499 156.762 175.033L156.958 171.521C156.982 171.082 156.22 170.729 155.257 170.729ZM172.138 170.729H162.882C161.918 170.729 161.129 171.083 161.119 171.521L161.037 175.033C161.026 175.499 161.829 175.879 162.831 175.879H172.459C173.461 175.879 174.245 175.499 174.209 175.033L173.943 171.521C173.91 171.082 173.102 170.729 172.138 170.729ZM189.02 170.729H179.764C178.8 170.729 178.057 171.083 178.104 171.521L178.483 175.033C178.534 175.499 179.387 175.879 180.389 175.879H190.016C191.018 175.879 191.752 175.499 191.656 175.033L190.928 171.521C190.838 171.082 189.984 170.729 189.02 170.729ZM205.902 170.729H196.645C195.681 170.729 194.985 171.083 195.09 171.521L195.93 175.033C196.041 175.499 196.945 175.879 197.947 175.879H207.575C208.577 175.879 209.26 175.499 209.102 175.033L207.913 171.521C207.766 171.082 206.865 170.729 205.902 170.729ZM222.784 170.729H213.527C212.563 170.729 211.913 171.083 212.075 171.521L213.377 175.033C213.549 175.499 214.503 175.879 215.505 175.879H225.132C226.134 175.879 226.768 175.499 226.549 175.033L224.9 171.521C224.694 171.082 223.747 170.729 222.784 170.729ZM248.156 170.729H230.654C228.832 170.729 227.529 171.083 227.745 171.521L229.472 175.033C229.701 175.499 231.424 175.879 233.319 175.879H251.521C253.416 175.879 254.694 175.499 254.378 175.033L251.993 171.521C251.694 171.082 249.978 170.729 248.156 170.729ZM258.339 185.543H241.486C239.732 185.543 238.538 185.983 238.82 186.528L241.091 190.916C241.392 191.5 243.126 191.977 244.958 191.977H262.566C264.399 191.977 265.561 191.5 265.164 190.916L262.184 186.528C261.813 185.983 260.093 185.543 258.339 185.543ZM254.303 177.182H241.031C239.649 177.182 238.746 177.58 239.014 178.074L241.167 182.038C241.453 182.565 242.853 182.995 244.293 182.995H258.129C259.569 182.995 260.445 182.565 260.089 182.038L257.408 178.074C257.074 177.58 255.684 177.182 254.303 177.182ZM90.2934 177.211H72.9347C72.0619 177.211 71.0433 177.671 70.6559 178.243L68.2068 181.86C67.7958 182.468 68.1961 182.965 69.1054 182.965H87.1929C88.1016 182.965 89.1003 182.468 89.421 181.86L91.3277 178.243C91.6301 177.67 91.1658 177.211 90.2934 177.211ZM92.3035 185.342H68.9224C67.7473 185.342 66.4503 185.849 66.0216 186.478L63.3092 190.468C62.8528 191.14 63.4745 191.689 64.7013 191.689H89.1195C90.3463 191.689 91.6084 191.14 91.935 190.468L93.878 186.478C94.1844 185.849 93.4789 185.342 92.3035 185.342ZM174.546 194.426H103.237C101.783 194.426 100.341 195.058 100.012 195.846L98.2071 200.173C97.8556 201.014 98.8033 201.702 100.327 201.702H175.043C176.567 201.702 177.743 201.014 177.67 200.173L177.3 195.846C177.232 195.058 176 194.426 174.546 194.426Z" fill="#00B806"/>
<path d="M86.4207 168.669H77.1092C76.1397 168.669 75.1145 169.026 74.8156 169.47L72.4282 173.023C72.1114 173.494 72.6701 173.879 73.678 173.879H83.3618C84.3697 173.879 85.4075 173.495 85.678 173.023L87.7158 169.47C87.9703 169.026 87.3901 168.669 86.4207 168.669ZM72.3501 192.638H61.3265C60.1791 192.638 58.912 193.14 58.4934 193.763L55.1227 198.779C54.6733 199.448 55.2808 199.995 56.4827 199.995H68.0317C69.2342 199.995 70.5215 199.448 70.9051 198.779L73.7826 193.763C74.1401 193.139 73.4975 192.638 72.3501 192.638ZM90.7448 192.638H79.7218C78.5744 192.638 77.3665 193.14 77.0223 193.763L74.25 198.779C73.8799 199.448 74.552 199.995 75.7539 199.995H87.3029C88.5054 199.995 89.7281 199.448 90.0317 198.779L92.3111 193.763C92.5945 193.139 91.8922 192.638 90.7448 192.638ZM194.682 192.638H183.658C182.511 192.638 181.642 193.14 181.717 193.763L182.322 198.779C182.403 199.448 183.443 199.995 184.645 199.995H196.194C197.396 199.995 198.251 199.448 198.104 198.779L197.006 193.763C196.87 193.139 195.829 192.638 194.682 192.638ZM213.58 192.638H202.556C201.409 192.638 200.601 193.14 200.752 193.763L201.971 198.779C202.134 199.448 203.241 199.995 204.443 199.995H215.992C217.195 199.995 217.982 199.448 217.753 198.779L216.041 193.763C215.828 193.139 214.727 192.638 213.58 192.638ZM232.477 192.638H221.454C220.306 192.638 219.56 193.14 219.787 193.763L221.62 198.779C221.865 199.448 223.04 199.995 224.242 199.995H235.79C236.992 199.995 237.713 199.448 237.403 198.779L235.076 193.763C234.788 193.139 233.624 192.638 232.477 192.638ZM263.283 192.638H241.838C239.606 192.638 238.039 193.14 238.341 193.763L240.773 198.779C241.098 199.448 243.258 199.995 245.597 199.995H268.064C270.402 199.995 271.928 199.448 271.475 198.779L268.084 193.763C267.664 193.139 265.515 192.638 263.283 192.638ZM103.403 168.669H94.0909C93.1221 168.669 92.1429 169.026 91.9026 169.47L89.9778 173.023C89.7221 173.494 90.3309 173.879 91.3388 173.879H101.023C102.03 173.879 103.018 173.495 103.227 173.023L104.802 169.47C104.999 169.026 104.372 168.669 103.403 168.669ZM105.927 175.285H96.0481C95.0197 175.285 93.9832 175.688 93.7312 176.188L91.7111 180.196C91.4421 180.729 92.0919 181.163 93.1634 181.163H103.461C104.532 181.163 105.577 180.729 105.793 180.196L107.422 176.188C107.624 175.688 106.955 175.285 105.927 175.285ZM124.123 175.285H114.244C113.216 175.285 112.232 175.688 112.045 176.188L110.55 180.196C110.352 180.729 111.058 181.163 112.129 181.163H122.426C123.498 181.163 124.486 180.729 124.632 180.196L125.736 176.188C125.874 175.688 125.151 175.285 124.123 175.285ZM142.319 175.285H132.441C131.412 175.285 130.481 175.688 130.36 176.188L129.39 180.196C129.261 180.729 130.024 181.163 131.096 181.163H141.393C142.464 181.163 143.396 180.729 143.472 180.196L144.051 176.188C144.123 175.688 143.347 175.285 142.319 175.285ZM160.515 175.285H150.636C149.608 175.285 148.73 175.688 148.675 176.188L148.23 180.196C148.17 180.729 148.991 181.163 150.062 181.163H160.359C161.431 181.163 162.305 180.729 162.313 180.196L162.365 176.188C162.372 175.688 161.543 175.285 160.515 175.285ZM178.711 175.285H168.832C167.804 175.285 166.979 175.688 166.989 176.188L167.068 180.196C167.079 180.729 167.956 181.163 169.028 181.163H179.325C180.397 181.163 181.214 180.729 181.151 180.196L180.679 176.188C180.62 175.688 179.739 175.285 178.711 175.285ZM196.907 175.285H187.028C186 175.285 185.227 175.688 185.303 176.188L185.908 180.196C185.988 180.729 186.922 181.163 187.994 181.163H198.291C199.363 181.163 200.123 180.729 199.991 180.196L198.992 176.188C198.869 175.688 197.935 175.285 196.907 175.285ZM215.103 175.285H205.224C204.196 175.285 203.476 175.688 203.618 176.188L204.747 180.196C204.898 180.729 205.889 181.163 206.961 181.163H217.258C218.329 181.163 219.033 180.729 218.83 180.196L217.308 176.188C217.118 175.688 216.131 175.285 215.103 175.285ZM233.299 175.285H223.421C222.392 175.285 221.725 175.688 221.931 176.188L223.587 180.196C223.807 180.729 224.855 181.163 225.927 181.163H236.224C237.295 181.163 237.942 180.729 237.67 180.196L235.622 176.188C235.366 175.688 234.327 175.285 233.299 175.285ZM108.344 183.655H97.9615C96.8808 183.655 95.8005 184.099 95.5464 184.652L93.5026 189.089C93.2308 189.68 93.9234 190.162 95.0522 190.162H105.899C107.028 190.162 108.118 189.68 108.332 189.089L109.939 184.652C110.139 184.099 109.424 183.655 108.344 183.655ZM126.047 183.655H115.665C114.584 183.655 113.558 184.099 113.371 184.652L111.867 189.089C111.667 189.68 112.419 190.162 113.548 190.162H124.395C125.524 190.162 126.555 189.68 126.697 189.089L127.765 184.652C127.897 184.099 127.127 183.655 126.047 183.655ZM143.75 183.655H133.368C132.287 183.655 131.315 184.099 131.195 184.652L130.233 189.089C130.104 189.68 130.915 190.162 132.044 190.162H142.89C144.019 190.162 144.992 189.68 145.062 189.089L145.589 184.652C145.654 184.099 144.83 183.655 143.75 183.655ZM161.453 183.655H151.071C149.991 183.655 149.073 184.099 149.02 184.652L148.597 189.089C148.541 189.68 149.41 190.162 150.539 190.162H161.386C162.515 190.162 163.428 189.68 163.426 189.089L163.413 184.652C163.411 184.099 162.534 183.655 161.453 183.655ZM179.156 183.655H168.774C167.694 183.655 166.83 184.099 166.844 184.652L166.962 189.089C166.977 189.68 167.906 190.162 169.034 190.162H179.881C181.01 190.162 181.864 189.68 181.791 189.089L181.237 184.652C181.168 184.099 180.237 183.655 179.156 183.655ZM196.86 183.655H186.478C185.397 183.655 184.587 184.099 184.669 184.652L185.327 189.089C185.414 189.68 186.401 190.162 187.53 190.162H198.377C199.506 190.162 200.302 189.68 200.156 189.089L199.062 184.652C198.926 184.099 197.94 183.655 196.86 183.655ZM214.563 183.655H204.181C203.1 183.655 202.344 184.099 202.494 184.652L203.692 189.089C203.851 189.68 204.897 190.162 206.026 190.162H216.873C218.002 190.162 218.739 189.68 218.521 189.089L216.887 184.652C216.683 184.099 215.643 183.655 214.563 183.655ZM232.266 183.655H221.884C220.804 183.655 220.101 184.099 220.318 184.652L222.057 189.089C222.288 189.68 223.392 190.162 224.521 190.162H235.368C236.497 190.162 237.175 189.68 236.886 189.089L234.711 184.652C234.44 184.099 233.346 183.655 232.266 183.655ZM120.385 168.669H111.073C110.104 168.669 109.172 169.026 108.989 169.47L107.527 173.023C107.333 173.494 107.991 173.879 109 173.879H118.683C119.691 173.879 120.629 173.495 120.777 173.023L121.889 169.47C122.028 169.026 121.354 168.669 120.385 168.669ZM137.367 168.669H128.055C127.086 168.669 126.2 169.026 126.075 169.47L125.076 173.023C124.944 173.494 125.653 173.879 126.66 173.879H136.344C137.352 173.879 138.24 173.495 138.326 173.023L138.975 169.47C139.057 169.026 138.336 168.669 137.367 168.669ZM154.349 168.669H145.037C144.068 168.669 143.229 169.026 143.161 169.47L142.625 173.023C142.554 173.494 143.313 173.879 144.321 173.879H154.005C155.012 173.879 155.849 173.495 155.874 173.023L156.062 169.47C156.086 169.026 155.318 168.669 154.349 168.669ZM171.332 168.669H162.02C161.05 168.669 160.257 169.026 160.248 169.47L160.174 173.023C160.165 173.494 160.974 173.879 161.982 173.879H171.666C172.673 173.879 173.461 173.495 173.424 173.023L173.148 169.47C173.113 169.026 172.301 168.669 171.332 168.669ZM188.313 168.669H179.001C178.033 168.669 177.286 169.026 177.335 169.47L177.723 173.023C177.775 173.494 178.635 173.879 179.643 173.879H189.327C190.334 173.879 191.071 173.495 190.973 173.023L190.235 169.47C190.143 169.026 189.283 168.669 188.313 168.669ZM205.296 168.669H195.983C195.014 168.669 194.315 169.026 194.421 169.47L195.273 173.023C195.385 173.494 196.295 173.879 197.303 173.879H206.987C207.995 173.879 208.682 173.495 208.522 173.023L207.321 169.47C207.171 169.026 206.264 168.669 205.296 168.669ZM222.277 168.669H212.966C211.996 168.669 211.343 169.026 211.507 169.47L212.822 173.023C212.996 173.494 213.956 173.879 214.963 173.879H224.648C225.656 173.879 226.292 173.495 226.072 173.023L224.407 169.47C224.2 169.026 223.247 168.669 222.277 168.669ZM247.801 168.669H230.194C228.362 168.669 227.052 169.026 227.27 169.47L229.011 173.023C229.242 173.494 230.976 173.879 232.881 173.879H251.191C253.097 173.879 254.382 173.495 254.063 173.023L251.66 169.47C251.361 169.026 249.633 168.669 247.801 168.669ZM258.057 183.655H241.109C239.344 183.655 238.144 184.099 238.429 184.652L240.716 189.089C241.021 189.68 242.764 190.162 244.606 190.162H262.313C264.156 190.162 265.324 189.68 264.925 189.089L261.925 184.652C261.551 184.099 259.821 183.655 258.057 183.655ZM253.237 175.285H241.274C240.029 175.285 239.222 175.688 239.473 176.188L241.484 180.196C241.751 180.729 243.021 181.163 244.319 181.163H256.789C258.087 181.163 258.869 180.729 258.538 180.196L256.052 176.188C255.741 175.688 254.482 175.285 253.237 175.285ZM89.9259 175.315H72.4701C71.593 175.315 70.5687 175.78 70.1797 176.359L67.723 180.015C67.3101 180.63 67.7139 181.131 68.6279 181.131H86.815C87.729 181.131 88.7328 180.63 89.0541 180.015L90.9681 176.359C91.2708 175.78 90.8034 175.315 89.9259 175.315ZM91.0758 183.451H67.5612C66.3794 183.451 65.0771 183.964 64.649 184.601L61.9378 188.637C61.4821 189.316 62.1089 189.871 63.3429 189.871H87.8975C89.1315 189.871 90.3977 189.316 90.7243 188.637L92.6635 184.601C92.9693 183.964 92.2575 183.451 91.0758 183.451ZM173.808 192.638H102.104C100.642 192.638 99.1939 193.278 98.8667 194.074L97.0667 198.449C96.7167 199.299 97.6723 199.995 99.2037 199.995H174.324C175.856 199.995 177.037 199.298 176.962 198.449L176.58 194.074C176.511 193.278 175.269 192.638 173.808 192.638Z" fill="white"/>
<path d="M252.635 45.0137V154.122C252.635 155.777 251.321 157.118 249.697 157.118H72.4831C70.8588 157.118 69.541 155.777 69.541 154.122V45.0137C69.541 43.3591 70.8585 42.0178 72.4831 42.0178H249.697C251.322 42.0178 252.635 43.3591 252.635 45.0137Z" fill="#4DCE51"/>
<path d="M252.635 45.0137V154.122C252.635 155.777 251.321 157.118 249.697 157.118H72.4831C70.8588 157.118 69.541 155.777 69.541 154.122V45.0137C69.541 43.3591 70.8585 42.0178 72.4831 42.0178H249.697C251.322 42.0178 252.635 43.3591 252.635 45.0137Z" fill="white"/>
<path d="M157.848 37.1067C157.848 35.1924 159.402 33.641 161.318 33.641C163.235 33.641 164.789 35.1927 164.789 37.1067C164.789 39.021 163.235 40.5724 161.318 40.5724C159.402 40.5721 157.848 39.0207 157.848 37.1067Z" fill="#999999"/>
<path d="M256.401 165.075H66.2356C65.0495 165.075 64.0879 164.115 64.0879 162.931C64.0879 161.746 65.0498 160.786 66.2356 160.786H256.4C257.586 160.786 258.548 161.746 258.548 162.931C258.548 164.115 257.586 165.075 256.401 165.075Z" fill="#00B806"/>
<path d="M254.921 31.744H66.6762C65.1285 31.744 63.873 32.9975 63.873 34.5429V157.985C63.873 159.531 65.1285 160.784 66.6762 160.784H254.921C256.468 160.784 257.724 159.531 257.724 157.985V34.5429C257.724 32.9975 256.468 31.744 254.921 31.744ZM252.636 154.122C252.636 155.777 251.322 157.118 249.697 157.118H72.4834C70.8592 157.118 69.5414 155.777 69.5414 154.122V45.0137C69.5414 43.3591 70.8589 42.0178 72.4834 42.0178H249.697C251.322 42.0178 252.636 43.3591 252.636 45.0137V154.122Z" fill="#4DCE51"/>
<path d="M164.367 37.1067C164.367 39.0726 162.771 40.6696 160.799 40.6696C158.827 40.6696 157.23 39.0726 157.23 37.1067C157.23 35.138 158.827 33.5435 160.799 33.5435C162.771 33.5432 164.367 35.1376 164.367 37.1067Z" fill="white"/>
<path d="M158.262 37.1054C158.262 35.7069 159.397 34.5734 160.797 34.5734C162.198 34.5734 163.333 35.7069 163.333 37.1054C163.333 38.5037 162.198 39.6371 160.797 39.6371C159.397 39.6371 158.262 38.5037 158.262 37.1054Z" fill="#4DCE51"/>
<path d="M159.59 36.1157C159.59 35.7827 159.86 35.5128 160.194 35.5128C160.527 35.5128 160.798 35.7827 160.798 36.1157C160.798 36.4484 160.527 36.7186 160.194 36.7186C159.86 36.7186 159.59 36.4484 159.59 36.1157Z" fill="white"/>
<path d="M123.466 97.1349L102.852 76.5519C101.158 74.8603 98.5279 77.485 100.223 79.1776C107.094 86.0386 113.965 92.8993 120.836 99.7603C122.53 101.452 125.16 98.8272 123.466 97.1349Z" fill="#00B806"/>
<path d="M99.6565 97.1349L120.27 76.5519C121.964 74.8603 124.594 77.485 122.899 79.1776C116.028 86.0386 109.157 92.8993 102.286 99.7603C100.592 101.452 97.9617 98.8272 99.6565 97.1349ZM221.03 97.1349L200.417 76.5519C198.723 74.8603 196.093 77.485 197.788 79.1776C204.659 86.0386 211.53 92.8993 218.401 99.7603C220.095 101.452 222.725 98.8272 221.03 97.1349Z" fill="#00B806"/>
<path d="M197.221 97.1349L217.834 76.5519C219.528 74.8603 222.159 77.485 220.464 79.1776C213.592 86.0386 206.721 92.8993 199.85 99.7603C198.156 101.452 195.526 98.8272 197.221 97.1349ZM215.793 131.22C214.816 131.527 213.914 131.99 213.113 132.579C209.421 129.076 203.215 126.544 197.34 124.802C195.36 124.216 193.418 123.716 191.623 123.302C190.743 123.098 189.851 122.903 188.948 122.715C188.169 122.553 187.38 122.398 186.588 122.25C183.85 121.74 181.05 121.309 178.25 120.966C173.249 120.356 168.253 120.027 163.641 120.027C144.46 120.027 124.643 124.159 113.801 130.365C112.919 129.686 111.894 129.155 110.742 128.812C108.636 128.184 107.735 131.468 109.836 132.095C112.06 132.758 113.687 134.599 113.903 136.937C114.103 139.1 117.514 139.122 117.312 136.937C117.188 135.594 116.811 134.348 116.221 133.24C126.551 127.593 145.677 123.714 163.641 123.714C167.921 123.714 172.572 124.009 177.253 124.564C178.38 124.698 179.51 124.845 180.635 125.006C182.242 125.239 183.844 125.503 185.423 125.792C186.551 125.999 187.666 126.217 188.766 126.453C190.381 126.796 191.963 127.17 193.497 127.57C194.625 127.867 195.723 128.177 196.791 128.5C202.895 130.353 207.911 132.671 210.65 135.325C210.266 135.996 209.965 136.722 209.765 137.493C209.214 139.616 212.502 140.521 213.053 138.399C213.533 136.551 214.864 135.08 216.7 134.502C218.785 133.847 217.894 130.559 215.793 131.22Z" fill="#00B806"/>
<path d="M197.341 124.802C195.361 124.215 193.419 123.716 191.624 123.302C190.744 123.098 189.852 122.902 188.949 122.715C188.171 122.553 187.381 122.397 186.589 122.25C183.851 121.74 181.051 121.309 178.251 120.966C177.984 121.206 177.794 121.535 177.726 121.918L177.254 124.564L175.743 133.026C174.78 138.425 178.396 143.603 183.803 144.564C189.213 145.528 194.398 141.918 195.361 136.519L196.792 128.5L197.343 125.409C197.381 125.202 197.378 124.998 197.341 124.802ZM192.008 135.921C191.371 139.474 187.961 141.848 184.4 141.215C180.841 140.583 178.464 137.177 179.097 133.624L180.637 125.007L180.782 124.19L185.558 125.041L188.915 125.639L193.692 126.49L193.499 127.57L192.008 135.921Z" fill="#00B806"/>
<path d="M189.212 123.963L188.914 125.639L188.766 126.453L187.454 133.808C187.289 134.733 186.403 135.348 185.477 135.184C184.551 135.02 183.932 134.135 184.1 133.21L185.423 125.792L185.557 125.04L185.855 123.367C185.943 122.894 186.216 122.5 186.588 122.25C187.38 122.397 188.169 122.553 188.948 122.715C189.186 123.067 189.291 123.509 189.212 123.963Z" fill="#00B806"/>
<path d="M291.89 38.1766C291.468 38.7685 290.765 39.0814 290.068 39.2132C289.363 39.3484 288.639 39.3405 287.925 39.2883C286.495 39.1625 285.09 38.8373 283.716 38.4313C280.966 37.6143 278.301 36.5302 275.705 35.3122C270.504 32.8871 265.527 29.9941 260.741 26.8225C255.968 23.6304 251.356 20.1716 247.105 16.2747C244.991 14.316 242.957 12.2548 241.153 9.96722C240.258 8.81932 239.421 7.61041 238.751 6.26878C238.426 5.59231 238.135 4.88344 237.986 4.09406C237.918 3.69812 237.873 3.2833 237.931 2.84679C237.959 2.4131 238.141 1.96715 238.382 1.57089C238.663 1.20136 239.016 0.871772 239.411 0.688737C239.798 0.476769 240.202 0.368895 240.596 0.289329C241.387 0.142775 242.154 0.158501 242.904 0.216368C244.399 0.356004 245.83 0.698169 247.225 1.11802C248.622 1.53503 249.981 2.04735 251.318 2.59708C252.656 3.14744 253.97 3.74781 255.266 4.38088C260.442 6.92953 265.336 9.97728 270.04 13.2691C274.731 16.5813 279.23 20.1712 283.372 24.1395C285.446 26.1171 287.421 28.2072 289.177 30.4731C290.052 31.6059 290.863 32.7966 291.497 34.0828C291.804 34.7288 292.072 35.3999 292.201 36.106C292.329 36.8029 292.29 37.5709 291.89 38.1766ZM291.89 38.1766C292.287 37.5684 292.32 36.8023 292.188 36.1079C292.056 35.4047 291.785 34.736 291.475 34.0932C290.836 32.8126 290.02 31.6282 289.14 30.502C287.368 28.2525 285.351 26.2086 283.253 24.2653C279.033 20.3964 274.442 16.954 269.691 13.7779C264.927 10.6214 259.971 7.74344 254.808 5.336C252.232 4.12677 249.589 3.05498 246.888 2.25113C245.539 1.85173 244.165 1.53692 242.803 1.41773C242.126 1.36804 241.447 1.36458 240.829 1.48409C240.209 1.60045 239.684 1.86557 239.396 2.26403C239.125 2.67476 239.069 3.26066 239.184 3.87989C239.295 4.49976 239.544 5.13063 239.835 5.74295C240.438 6.96821 241.229 8.13404 242.089 9.24577C243.812 11.4733 245.77 13.5461 247.829 15.5083C251.939 19.4489 256.419 23.0218 261.087 26.3186C265.769 29.595 270.642 32.6274 275.779 35.159C278.352 36.4104 280.989 37.5507 283.729 38.3876C285.1 38.8005 286.5 39.1326 287.927 39.266C288.639 39.3217 289.362 39.333 290.066 39.2021C290.762 39.0738 291.465 38.7663 291.89 38.1766Z" fill="#4DCE51"/>
<path d="M231.88 12.9065C232.024 12.1945 232.54 11.6237 233.123 11.2208C233.713 10.8113 234.378 10.5248 235.051 10.2833C236.409 9.81846 237.825 9.54611 239.246 9.36025C242.091 8.99261 244.968 8.90298 247.835 8.96399C253.574 9.07217 259.299 9.69833 264.963 10.6566C270.622 11.6391 276.243 12.9307 281.712 14.7689C284.441 15.702 287.137 16.7615 289.716 18.1208C291.001 18.8067 292.257 19.5725 293.415 20.5269C293.987 21.0138 294.541 21.5434 294.998 22.2044C295.221 22.5384 295.431 22.8992 295.556 23.3222C295.706 23.7297 295.721 24.2112 295.662 24.6713C295.555 25.1229 295.367 25.5673 295.081 25.8944C294.813 26.2447 294.488 26.507 294.16 26.7397C293.497 27.1945 292.789 27.4911 292.081 27.742C290.658 28.2201 289.211 28.4877 287.765 28.6695C286.318 28.8547 284.869 28.9371 283.423 28.977C281.976 29.0167 280.532 29 279.09 28.9469C273.323 28.7157 267.612 27.9141 261.974 26.813C256.341 25.6868 250.77 24.2304 245.371 22.2824C242.671 21.316 240.016 20.2065 237.491 18.8476C236.23 18.1667 235.005 17.4075 233.903 16.4889C233.36 16.0228 232.842 15.518 232.437 14.9252C232.037 14.3402 231.76 13.6229 231.88 12.9065ZM231.88 12.9065C231.764 13.6235 232.045 14.3371 232.448 14.9183C232.854 15.5073 233.374 16.0083 233.918 16.4706C235.024 17.3814 236.251 18.133 237.513 18.806C240.047 20.1433 242.721 21.1937 245.428 22.1195C250.858 23.9442 256.453 25.2292 262.086 26.2064C267.724 27.1596 273.423 27.7807 279.12 27.8883C281.965 27.949 284.817 27.8571 287.612 27.497C289.007 27.315 290.391 27.0461 291.684 26.6029C292.323 26.374 292.945 26.1016 293.462 25.7419C293.981 25.3837 294.353 24.9286 294.454 24.448C294.534 23.9631 294.348 23.4049 293.991 22.885C293.637 22.3642 293.153 21.8881 292.639 21.4465C291.589 20.5713 290.393 19.8259 289.155 19.1586C286.675 17.8217 284.042 16.721 281.363 15.7624C276.004 13.8276 270.458 12.3778 264.852 11.257C259.24 10.1609 253.554 9.36465 247.83 9.13381C244.97 9.03318 242.097 9.05959 239.252 9.40616C237.832 9.58385 236.417 9.84865 235.059 10.305C234.385 10.5424 233.721 10.8248 233.13 11.2302C232.546 11.6293 232.028 12.1957 231.88 12.9065Z" fill="#4DCE51"/>
<path d="M234.717 14.3629C234.896 14.2591 234.878 13.9952 234.687 13.9163L233.636 13.4829C233.56 13.4515 233.504 13.3848 233.487 13.3046L233.248 12.1941C233.205 11.9919 232.948 11.9271 232.813 12.0847L232.076 12.9492C232.023 13.0118 231.942 13.0442 231.86 13.0357L230.729 12.9191C230.523 12.8977 230.382 13.1216 230.49 13.298L231.085 14.2657C231.128 14.3358 231.134 14.4223 231.101 14.4975L230.64 15.5359C230.556 15.725 230.726 15.9281 230.927 15.8797L232.032 15.6133C232.112 15.5941 232.197 15.6152 232.258 15.6702L233.105 16.4288C233.259 16.5669 233.505 16.4684 233.521 16.2624L233.608 15.1302C233.615 15.0485 233.661 14.9749 233.732 14.9337L234.717 14.3629ZM254.314 9.12375C254.493 9.01997 254.476 8.75611 254.284 8.67717L253.233 8.2438C253.157 8.21235 253.101 8.14568 253.084 8.06548L252.846 6.95501C252.802 6.75279 252.545 6.68801 252.411 6.84557L251.673 7.71011C251.62 7.77269 251.539 7.80477 251.458 7.79659L250.326 7.67992C250.12 7.65853 249.979 7.88245 250.088 8.05888L250.683 9.02657C250.726 9.09639 250.732 9.18319 250.698 9.25836L250.237 10.2968C250.154 10.4858 250.323 10.689 250.524 10.6406L251.63 10.3742C251.71 10.355 251.794 10.3761 251.855 10.4311L252.702 11.1897C252.856 11.3277 253.102 11.2293 253.118 11.0233L253.206 9.89112C253.212 9.80935 253.259 9.73576 253.33 9.69456L254.314 9.12375ZM262.553 26.0284C262.733 25.9246 262.715 25.6607 262.523 25.5818L261.472 25.1484C261.396 25.117 261.34 25.0503 261.323 24.9701L261.085 23.8596C261.041 23.6574 260.785 23.5926 260.65 23.7502L259.912 24.6147C259.859 24.6773 259.778 24.7094 259.697 24.7012L258.565 24.5845C258.359 24.5631 258.218 24.7871 258.327 24.9632L258.922 25.9309C258.965 26.001 258.971 26.0875 258.937 26.1627L258.476 27.2011C258.393 27.3901 258.562 27.5933 258.763 27.5449L259.869 27.2785C259.949 27.2593 260.033 27.2804 260.094 27.3354L260.941 28.094C261.095 28.232 261.341 28.1336 261.357 27.9276L261.445 26.7954C261.451 26.7136 261.498 26.6401 261.569 26.5989L262.553 26.0284ZM288.657 16.4961C288.836 16.3923 288.818 16.1285 288.627 16.0495L287.575 15.6161C287.499 15.5847 287.444 15.518 287.426 15.4378L287.188 14.3273C287.145 14.1251 286.888 14.0603 286.753 14.2179L286.016 15.0824C285.962 15.145 285.882 15.1771 285.8 15.1689L284.669 15.0523C284.463 15.0309 284.322 15.2548 284.43 15.4309L285.025 16.3986C285.068 16.4687 285.074 16.5552 285.041 16.6304L284.58 17.6688C284.496 17.8578 284.665 18.061 284.867 18.0126L285.972 17.7462C286.052 17.727 286.137 17.7481 286.198 17.8031L287.044 18.5617C287.199 18.6997 287.444 18.6013 287.46 18.3953L287.548 17.2631C287.555 17.1814 287.601 17.1078 287.672 17.0666L288.657 16.4961ZM294.02 38.1338C294.2 38.03 294.182 37.7662 293.99 37.6872L292.939 37.2539C292.863 37.2224 292.807 37.1558 292.79 37.0756L292.552 35.9651C292.508 35.7629 292.252 35.6981 292.117 35.8556L291.379 36.7202C291.326 36.7828 291.245 36.8148 291.163 36.8067L290.032 36.69C289.826 36.6686 289.685 36.8925 289.793 37.0686L290.389 38.0363C290.432 38.1061 290.437 38.1929 290.404 38.2681L289.943 39.3066C289.859 39.4956 290.029 39.6987 290.23 39.6503L291.336 39.3839C291.416 39.3647 291.5 39.3858 291.561 39.4409L292.408 40.1994C292.562 40.3375 292.808 40.239 292.824 40.033L292.912 38.9009C292.918 38.8191 292.964 38.7455 293.036 38.7043L294.02 38.1338ZM29.4018 36.1025C29.5306 35.3968 29.7989 34.7253 30.1054 34.0794C30.7394 32.7931 31.5501 31.6028 32.4258 30.4699C34.1817 28.2043 36.1568 26.1145 38.2318 24.1373C42.3741 20.1694 46.874 16.5804 51.5647 13.2685C56.2696 9.97729 61.164 6.93017 66.3404 4.38215C67.6362 3.74907 68.9499 3.14902 70.2878 2.59866C71.6258 2.04924 72.9842 1.53693 74.3814 1.12023C75.7766 0.700693 77.2078 0.358843 78.7029 0.219206C79.4522 0.161025 80.2195 0.145616 81.011 0.292484C81.405 0.372051 81.8091 0.479919 82.1959 0.691887C82.5908 0.874922 82.9429 1.20451 83.2239 1.57435C83.4651 1.97062 83.6475 2.41657 83.6752 2.85025C83.7335 3.28708 83.6881 3.7019 83.6204 4.09753C83.4714 4.88691 83.1798 5.59577 82.8548 6.27225C82.1842 7.61387 81.3483 8.82278 80.4522 9.97037C78.6481 12.2577 76.6141 14.3185 74.4998 16.2772C70.2478 20.1735 65.6362 23.6316 60.8629 26.8231C56.0759 29.9941 51.0985 32.8865 45.897 35.3109C43.3011 36.529 40.6359 37.6124 37.8859 38.4291C36.5118 38.8351 35.107 39.16 33.6771 39.2855C32.9631 39.3374 32.2393 39.3452 31.5337 39.21C30.8367 39.0779 30.1334 38.7653 29.712 38.1731C29.3111 37.5671 29.2733 36.7991 29.4018 36.1025ZM31.5359 39.1987C32.2406 39.3295 32.9628 39.3182 33.6752 39.2625C35.102 39.1295 36.5026 38.7974 37.8727 38.3848C40.6135 37.5482 43.2507 36.4082 45.8236 35.1572C50.9612 32.6264 55.8346 29.5947 60.5174 26.3186C65.1861 23.0224 69.6658 19.4498 73.777 15.5098C75.8359 13.5477 77.7943 11.4755 79.5181 9.24798C80.3779 8.13625 81.1688 6.97042 81.7719 5.74547C82.0629 5.13347 82.3114 4.50228 82.4233 3.88273C82.5379 3.26318 82.4815 2.67728 82.2113 2.26656C81.9237 1.86809 81.3987 1.60297 80.7785 1.4863C80.1596 1.36679 79.4806 1.36994 78.804 1.41963C77.4422 1.53882 76.0677 1.85363 74.719 2.25272C72.0176 3.05625 69.3738 4.12804 66.7981 5.33663C61.6349 7.74344 56.679 10.6207 51.914 13.7767C47.1628 16.9524 42.571 20.3942 38.3505 24.2625C36.2525 26.2057 34.2349 28.249 32.4633 30.4986C31.5826 31.6248 30.7668 32.8091 30.1268 34.0894C29.8172 34.7323 29.5457 35.4006 29.4134 36.1041C29.2815 36.7985 29.3148 37.5649 29.712 38.1731C30.1366 38.7631 30.8396 39.0704 31.5359 39.1987Z" fill="#4DCE51"/>
<path d="M89.1659 14.9287C88.7612 15.5215 88.2431 16.0259 87.7004 16.492C86.598 17.4103 85.3731 18.1695 84.1123 18.8501C81.5867 20.2087 78.9319 21.3179 76.2317 22.284C70.8327 24.2314 65.2613 25.6868 59.6279 26.8124C53.9901 27.9128 48.2783 28.7135 42.5117 28.944C41.0701 28.9972 39.6257 29.0135 38.1791 28.9736C36.7328 28.9336 35.2834 28.8506 33.8371 28.6654C32.3911 28.4833 30.9445 28.2153 29.5215 27.7373C28.8132 27.4864 28.1055 27.1895 27.4418 26.7347C27.114 26.502 26.7886 26.2397 26.5215 25.8894C26.2352 25.562 26.0472 25.1176 25.9407 24.6663C25.8812 24.2065 25.896 23.7247 26.0472 23.3171C26.1713 22.8944 26.3814 22.5334 26.6044 22.1994C27.0617 21.5383 27.6163 21.0087 28.1883 20.5219C29.3464 19.5677 30.6021 18.8019 31.8875 18.1164C34.4661 16.7574 37.1631 15.6982 39.8913 14.7654C45.3612 12.9282 50.9816 11.6372 56.6415 10.6553C62.3057 9.6977 68.0301 9.07217 73.7697 8.96493C76.6374 8.90423 79.5136 8.99418 82.3586 9.36245C83.7794 9.54831 85.1952 9.82098 86.5533 10.2861C87.2267 10.5276 87.8912 10.8145 88.4812 11.2239C89.0645 11.6271 89.5801 12.1979 89.7246 12.9099C89.844 13.627 89.5665 14.3443 89.1659 14.9287ZM88.4742 11.234C87.8837 10.8286 87.2188 10.5462 86.5451 10.3088C85.187 9.85211 83.7719 9.58731 82.352 9.40931C79.5073 9.06242 76.6336 9.03569 73.7738 9.13601C68.0494 9.36591 62.3634 10.1616 56.752 11.2566C51.1454 12.3769 45.599 13.8257 40.2399 15.7599C37.5605 16.7184 34.9281 17.8185 32.4475 19.1551C31.2097 19.8225 30.0132 20.5675 28.9637 21.4424C28.4488 21.884 27.9653 22.3598 27.611 22.8806C27.2541 23.4005 27.0677 23.9584 27.1477 24.4436C27.2484 24.9242 27.6204 25.3796 28.1398 25.7375C28.6566 26.0976 29.2787 26.3699 29.9174 26.5989C31.2103 27.042 32.5942 27.3112 33.9892 27.4936C36.7848 27.854 39.6364 27.9461 42.4818 27.8858C48.1788 27.7788 53.8777 27.1587 59.5155 26.2057C65.1489 25.2296 70.7445 23.9452 76.1741 22.1211C78.8815 21.1956 81.5558 20.1458 84.0897 18.8086C85.3523 18.1359 86.5794 17.3845 87.6846 16.4738C88.2289 16.0115 88.7489 15.5108 89.1555 14.9217C89.5583 14.3406 89.8393 13.627 89.7237 12.9102C89.576 12.1995 89.0585 11.6331 88.4742 11.234Z" fill="#4DCE51"/>
<path d="M86.8886 14.3667C86.7093 14.2629 86.727 13.999 86.9185 13.9201L87.9698 13.4867C88.0457 13.4553 88.1015 13.3886 88.1188 13.3084L88.3572 12.1979C88.4007 11.9957 88.6574 11.9309 88.7919 12.0885L89.5295 12.953C89.5827 13.0156 89.6637 13.0477 89.7452 13.0395L90.8766 12.9228C91.0826 12.9014 91.2237 13.1254 91.115 13.3015L90.5194 14.2692C90.4763 14.339 90.4706 14.4258 90.504 14.5009L90.9648 15.5394C91.0486 15.7284 90.8791 15.9316 90.6775 15.8831L89.572 15.6168C89.492 15.5976 89.4076 15.6187 89.3465 15.6737L88.4999 16.4319C88.3459 16.57 88.0999 16.4716 88.0838 16.2656L87.996 15.1334C87.9897 15.0516 87.9434 14.978 87.8722 14.9368L86.8886 14.3667ZM67.2917 9.12469C67.1125 9.02091 67.1301 8.75705 67.3216 8.67811L68.373 8.24474C68.4489 8.21329 68.5046 8.14662 68.5219 8.06642L68.7604 6.95595C68.8038 6.75373 69.0605 6.68895 69.195 6.84651L69.9327 7.71105C69.9859 7.77363 70.0668 7.80602 70.1484 7.79753L71.2797 7.68086C71.4857 7.65947 71.6268 7.88339 71.5185 8.0595L70.9229 9.0272C70.8797 9.09702 70.8741 9.18382 70.9075 9.25898L71.3682 10.2974C71.452 10.4864 71.2826 10.6896 71.081 10.6412L69.9755 10.3748C69.8955 10.3556 69.8111 10.3767 69.75 10.4317L68.9034 11.19C68.7493 11.328 68.5034 11.2296 68.4873 11.0236L68.3994 9.89142C68.3931 9.80966 68.3468 9.73607 68.2756 9.69487L67.2917 9.12469ZM59.0504 26.0284C58.8712 25.9246 58.8889 25.6607 59.0804 25.5818L60.1317 25.1484C60.2076 25.117 60.2634 25.0503 60.2807 24.9701L60.5191 23.8596C60.5626 23.6574 60.8193 23.5926 60.9538 23.7502L61.6914 24.6147C61.7446 24.6773 61.8256 24.7097 61.9071 24.7012L63.0385 24.5845C63.2445 24.5631 63.3856 24.7871 63.2769 24.9632L62.6813 25.9309C62.6382 26.0007 62.6325 26.0875 62.6659 26.1627L63.1267 27.2011C63.2104 27.3901 63.041 27.5933 62.8394 27.5448L61.7339 27.2785C61.6539 27.2593 61.5695 27.2804 61.5084 27.3354L60.6618 28.0936C60.5078 28.2317 60.2618 28.1333 60.2457 27.9273L60.1578 26.7951C60.1515 26.7133 60.1053 26.6397 60.0341 26.5985L59.0504 26.0284ZM32.9487 16.4926C32.7695 16.3888 32.7871 16.125 32.9786 16.046L34.03 15.6127C34.1059 15.5812 34.1616 15.5146 34.179 15.4344L34.4174 14.3239C34.4608 14.1217 34.7175 14.0569 34.852 14.2144L35.5897 15.079C35.6429 15.1416 35.7238 15.174 35.8054 15.1655L36.9367 15.0488C37.1427 15.0274 37.2838 15.2513 37.1752 15.4278L36.5796 16.3954C36.5364 16.4653 36.5308 16.5521 36.5641 16.6272L37.0249 17.6657C37.1087 17.8547 36.9393 18.0579 36.7377 18.0094L35.6322 17.7431C35.5522 17.7239 35.4678 17.7449 35.4067 17.8L34.5601 18.5582C34.406 18.6963 34.1601 18.5978 34.144 18.3918L34.0561 17.2594C34.0498 17.1776 34.0035 17.104 33.9323 17.0628L32.9487 16.4926ZM27.5817 38.13C27.4024 38.0263 27.4201 37.7624 27.6116 37.6835L28.6629 37.2501C28.7388 37.2186 28.7946 37.152 28.8119 37.0718L29.0503 35.9613C29.0938 35.7591 29.3505 35.6943 29.485 35.8519L30.2226 36.7164C30.2758 36.779 30.3568 36.8114 30.4384 36.8029L31.5697 36.6862C31.7757 36.6648 31.9168 36.8887 31.8081 37.0652L31.2125 38.0329C31.1694 38.1027 31.1637 38.1895 31.1971 38.2646L31.6579 39.3031C31.7417 39.4921 31.5722 39.6953 31.3706 39.6468L30.2651 39.3805C30.1851 39.3613 30.1007 39.3824 30.0396 39.4374L29.193 40.1956C29.039 40.3337 28.793 40.2353 28.7769 40.0293L28.6891 38.8968C28.6828 38.815 28.6365 38.7414 28.5653 38.7002L27.5817 38.13Z" fill="#4DCE51"/>
<path d="M265.88 136.484C265.239 132.298 266.402 127.922 269.136 124.668C270.608 122.916 272.509 121.524 274.614 120.627C276.817 119.688 279.107 119.358 281.49 119.433C283.859 119.507 286.238 119.655 288.426 118.566C288.767 118.396 289.094 118.199 289.413 117.99C293.25 120.048 297.962 119.549 301.583 117.16C301.966 116.907 302.334 116.626 302.687 116.326C304.614 116.64 306.656 116.357 308.495 115.785C310.774 115.076 312.977 113.732 314.305 111.708C315.499 109.89 315.893 107.597 315.294 105.497C315.003 104.48 314.438 103.597 313.692 102.855C313.356 102.519 312.735 102.636 312.455 102.977C312.129 103.373 312.241 103.877 312.578 104.213C313.809 105.438 314.029 107.327 313.637 108.95C313.176 110.856 311.703 112.301 310.039 113.239C308.45 114.135 306.268 114.77 304.196 114.733C304.77 113.968 305.225 113.119 305.487 112.187C306.027 110.266 305.477 108.246 304.084 106.826C302.687 105.402 300.518 105.082 298.829 106.191C297.065 107.349 296.334 109.595 296.856 111.593C297.351 113.486 298.847 114.919 300.594 115.708C300.415 115.827 300.234 115.941 300.051 116.049C297.299 117.669 293.813 118.051 290.903 116.777C291.834 115.845 292.567 114.723 292.968 113.455C293.631 111.36 293.427 108.883 291.785 107.281C290.346 105.878 287.915 105.421 286.189 106.564C284.289 107.824 284.074 110.4 284.666 112.409C285.185 114.17 286.353 115.743 287.789 116.906C286.821 117.389 285.75 117.665 284.635 117.729C282.563 117.848 280.495 117.525 278.426 117.787C274.355 118.302 270.493 120.357 267.834 123.486C265.369 126.386 264.032 130.13 263.947 133.919C263.927 134.829 263.991 135.736 264.129 136.635C264.299 137.749 266.052 137.602 265.88 136.484ZM299.309 108.072C300.321 106.97 301.851 107.067 302.874 108.089C303.965 109.18 304.193 110.795 303.642 112.203C303.309 113.055 302.783 113.799 302.148 114.443C301.014 114.12 300.003 113.513 299.26 112.532C298.231 111.174 298.116 109.369 299.309 108.072ZM286.228 111.456C285.923 110.01 286.244 107.978 287.997 107.699C289.668 107.433 291.138 108.677 291.483 110.257C291.881 112.076 291.095 113.97 289.893 115.314C289.712 115.516 289.521 115.703 289.323 115.879C289.311 115.871 289.299 115.864 289.288 115.856C287.84 114.796 286.603 113.242 286.228 111.456Z" fill="#4DCE51"/>
<path d="M228.623 117.326C233.726 117.326 237.863 115.272 237.863 112.737C237.863 110.203 233.726 108.149 228.623 108.149C223.52 108.149 219.383 110.203 219.383 112.737C219.383 115.272 223.52 117.326 228.623 117.326Z" fill="#EAEAEA"/>
<path d="M91.0548 117.326C96.1581 117.326 100.295 115.272 100.295 112.737C100.295 110.203 96.1581 108.149 91.0548 108.149C85.9515 108.149 81.8145 110.203 81.8145 112.737C81.8145 115.272 85.9515 117.326 91.0548 117.326Z" fill="#EAEAEA"/>
<path d="M277.422 84.7715C275.178 84.7715 273.352 82.9481 273.352 80.707C273.352 78.4659 275.178 76.6425 277.422 76.6425C279.667 76.6425 281.493 78.4659 281.493 80.707C281.492 82.9481 279.667 84.7715 277.422 84.7715ZM277.422 78.3307C276.11 78.3307 275.042 79.3968 275.042 80.707C275.042 82.0172 276.11 83.0833 277.422 83.0833C278.734 83.0833 279.802 82.0172 279.802 80.707C279.802 79.3968 278.734 78.3307 277.422 78.3307ZM301.982 170.729C299.738 170.729 297.912 168.906 297.912 166.665C297.912 164.424 299.738 162.6 301.982 162.6C304.227 162.6 306.053 164.424 306.053 166.665C306.053 168.906 304.227 170.729 301.982 170.729ZM301.982 164.289C300.67 164.289 299.602 165.355 299.602 166.665C299.602 167.975 300.67 169.041 301.982 169.041C303.294 169.041 304.362 167.975 304.362 166.665C304.362 165.355 303.294 164.289 301.982 164.289ZM310.13 61.751L311.947 59.9357C312.36 59.5237 312.36 58.8557 311.947 58.4438C311.535 58.0315 310.866 58.0315 310.453 58.4438L308.635 60.259L306.817 58.4438C306.405 58.0315 305.736 58.0315 305.323 58.4438C304.911 58.8557 304.911 59.5237 305.323 59.9357L307.141 61.751L305.327 63.5628C304.914 63.9747 304.914 64.6427 305.327 65.0547C305.533 65.2607 305.804 65.3639 306.074 65.3639C306.344 65.3639 306.615 65.2607 306.821 65.0547L308.635 63.2429L310.45 65.0547C310.656 65.2607 310.927 65.3639 311.197 65.3639C311.467 65.3639 311.738 65.2607 311.944 65.0547C312.357 64.6427 312.357 63.9747 311.944 63.5628L310.13 61.751Z" fill="#4DCE51"/>
<path d="M318.512 91.1343C319.586 91.1343 320.455 90.2657 320.455 89.1942C320.455 88.1228 319.586 87.2541 318.512 87.2541C317.441 87.2541 316.568 88.1228 316.568 89.1942C316.568 90.2657 317.441 91.1343 318.512 91.1343Z" fill="#4DCE51"/>
<path d="M277.859 144.72C277.859 143.649 278.729 142.78 279.802 142.78C280.875 142.78 281.745 143.649 281.745 144.72C281.745 145.792 280.875 146.66 279.802 146.66C278.729 146.66 277.859 145.792 277.859 144.72Z" fill="#4DCE51"/>
<path d="M56.8715 136.364C57.0094 135.465 57.0737 134.558 57.0532 133.648C56.9682 129.859 55.6309 126.115 53.166 123.214C50.5077 120.086 46.6457 118.03 42.5748 117.516C40.5055 117.254 38.4378 117.577 36.365 117.457C35.2504 117.393 34.1795 117.118 33.2113 116.634C34.6479 115.471 35.8161 113.899 36.3345 112.138C36.926 110.129 36.7112 107.553 34.811 106.293C33.0857 105.149 30.6538 105.607 29.2151 107.01C27.5732 108.612 27.3691 111.088 28.0321 113.183C28.4337 114.451 29.1663 115.574 30.0973 116.505C27.1871 117.779 23.7011 117.398 20.9493 115.777C20.766 115.669 20.5849 115.556 20.406 115.437C22.1537 114.647 23.6491 113.215 24.1442 111.321C24.6664 109.324 23.9351 107.078 22.1707 105.919C20.4819 104.811 18.3137 105.131 16.9162 106.555C15.5231 107.974 14.9729 109.994 15.5127 111.916C15.7748 112.848 16.2296 113.696 16.8041 114.461C14.732 114.499 12.5499 113.864 10.9606 112.967C9.29668 112.029 7.82424 110.585 7.36314 108.679C6.9707 107.055 7.19023 105.167 8.42172 103.941C8.75936 103.605 8.87023 103.102 8.54487 102.706C8.26487 102.365 7.64377 102.248 7.30771 102.583C6.56188 103.325 5.99652 104.208 5.70613 105.226C5.10739 107.325 5.50109 109.619 6.69479 111.437C8.0233 113.461 10.2255 114.805 12.5049 115.514C14.3439 116.086 16.3858 116.369 18.3131 116.055C18.6655 116.355 19.0334 116.636 19.417 116.889C23.0381 119.277 27.7502 119.777 31.5871 117.719C31.9061 117.928 32.2327 118.125 32.5735 118.295C34.7616 119.384 37.1411 119.236 39.5099 119.162C41.8926 119.087 44.1833 119.417 46.3855 120.356C48.4907 121.254 50.3924 122.645 51.8639 124.397C54.5981 127.651 55.7613 132.027 55.12 136.213C54.9487 137.331 56.7011 137.478 56.8715 136.364ZM21.7398 112.262C20.9972 113.242 19.9858 113.85 18.8526 114.172C18.217 113.528 17.691 112.784 17.3581 111.932C16.8075 110.524 17.035 108.909 18.1263 107.818C19.1496 106.796 20.6787 106.7 21.691 107.801C22.8838 109.098 22.7698 110.903 21.7398 112.262ZM31.7124 115.585C31.7011 115.593 31.6891 115.6 31.6778 115.608C31.4794 115.432 31.2879 115.245 31.1071 115.043C29.9052 113.699 29.1197 111.805 29.5172 109.986C29.8627 108.406 31.332 107.162 33.0038 107.428C34.7562 107.707 35.0772 109.739 34.7726 111.185C34.3972 112.971 33.1597 114.524 31.7124 115.585ZM39.5065 80.4359C39.5065 78.1949 41.3326 76.3714 43.577 76.3714C45.8214 76.3714 47.6475 78.1949 47.6475 80.4359C47.6475 82.677 45.8214 84.5004 43.577 84.5004C41.3323 84.5004 39.5065 82.677 39.5065 80.4359ZM41.1968 80.4359C41.1968 81.7461 42.2646 82.8122 43.5767 82.8122C44.8888 82.8122 45.9565 81.7461 45.9565 80.4359C45.9565 79.1258 44.8888 78.0596 43.5767 78.0596C42.2646 78.0596 41.1968 79.1258 41.1968 80.4359ZM14.9461 166.394C14.9461 164.153 16.7723 162.329 19.0167 162.329C21.2611 162.329 23.0872 164.153 23.0872 166.394C23.0872 168.635 21.2611 170.458 19.0167 170.458C16.7723 170.458 14.9461 168.635 14.9461 166.394ZM16.6368 166.394C16.6368 167.704 17.7046 168.77 19.0167 168.77C20.3288 168.77 21.3965 167.704 21.3965 166.394C21.3965 165.084 20.3288 164.017 19.0167 164.017C17.7046 164.018 16.6368 165.084 16.6368 166.394ZM10.8693 61.4799L9.05133 59.6646C8.63873 59.2526 8.63873 58.5847 9.05133 58.1727C9.46361 57.7604 10.1332 57.7604 10.5455 58.1727L12.3635 59.9879L14.1814 58.1727C14.5937 57.7604 15.2633 57.7604 15.6756 58.1727C16.0882 58.5847 16.0882 59.2526 15.6756 59.6646L13.8576 61.4799L15.6721 63.2917C16.085 63.7037 16.085 64.3716 15.6721 64.7836C15.4658 64.9896 15.1953 65.0928 14.925 65.0928C14.6548 65.0928 14.3842 64.9896 14.1779 64.7836L12.3635 62.9718L10.549 64.7836C10.3427 64.9896 10.0721 65.0928 9.80188 65.0928C9.53164 65.0928 9.26109 64.9896 9.05479 64.7836C8.64219 64.3716 8.64219 63.7037 9.05479 63.2917L10.8693 61.4799Z" fill="#4DCE51"/>
<path d="M4.42896 88.9231C4.42896 87.8517 3.55903 86.983 2.48596 86.983C1.41289 86.983 0.542969 87.8517 0.542969 88.9231C0.542969 89.9946 1.41289 90.8632 2.48596 90.8632C3.55903 90.8632 4.42896 89.9946 4.42896 88.9231ZM43.1402 144.449C43.1402 143.378 42.2703 142.509 41.1972 142.509C40.1242 142.509 39.2542 143.378 39.2542 144.449C39.2542 145.521 40.1242 146.389 41.1972 146.389C42.2703 146.389 43.1402 145.521 43.1402 144.449Z" fill="#4DCE51"/>
</g>
<defs>
<clipPath id="clip0_237_2540">
<rect width="320" height="217" fill="white" transform="translate(0.5)"/>
</clipPath>
</defs>
</svg>
