<svg width="44" height="44" viewBox="0 0 44 44" fill="none" xmlns="http://www.w3.org/2000/svg">
<path d="M26.5001 30.3333C23.0978 30.3289 19.8362 28.9754 17.4304 26.5697C15.0247 24.1639 13.6712 20.9023 13.6667 17.5C13.6667 16.4833 14.0706 15.5083 14.7895 14.7894C15.5084 14.0705 16.4834 13.6667 17.5001 13.6667C17.7154 13.665 17.9303 13.6846 18.1417 13.725C18.3462 13.7552 18.5471 13.8055 18.7417 13.875C18.8786 13.923 19.0006 14.0059 19.0956 14.1156C19.1906 14.2252 19.2553 14.3577 19.2834 14.5L20.4251 19.5C20.4559 19.6357 20.4521 19.777 20.4143 19.9109C20.3765 20.0448 20.3057 20.1671 20.2084 20.2667C20.1001 20.3833 20.0917 20.3917 19.0667 20.925C19.8876 22.7257 21.3277 24.1718 23.1251 25C23.6667 23.9667 23.6751 23.9583 23.7917 23.85C23.8913 23.7527 24.0136 23.682 24.1475 23.6441C24.2814 23.6063 24.4227 23.6026 24.5584 23.6333L29.5584 24.775C29.6962 24.807 29.8235 24.8734 29.9285 24.9682C30.0335 25.063 30.1126 25.1829 30.1584 25.3167C30.2287 25.5145 30.2817 25.718 30.3167 25.925C30.3503 26.1344 30.367 26.3462 30.3667 26.5583C30.3514 27.5706 29.9362 28.5358 29.2117 29.243C28.4873 29.9503 27.5125 30.3422 26.5001 30.3333ZM17.5001 15.3333C16.9261 15.3355 16.3763 15.5645 15.9704 15.9704C15.5646 16.3762 15.3356 16.926 15.3334 17.5C15.3356 20.4609 16.5128 23.2999 18.6065 25.3936C20.7002 27.4873 23.5392 28.6645 26.5001 28.6667C27.074 28.6645 27.6239 28.4355 28.0297 28.0296C28.4356 27.6238 28.6646 27.074 28.6667 26.5V26.225L24.8001 25.3333L24.5584 25.7917C24.1834 26.5167 23.9084 27.0417 23.2084 26.7583C21.8275 26.264 20.574 25.4684 19.539 24.4291C18.5041 23.3898 17.7136 22.133 17.2251 20.75C16.9251 20.1 17.4917 19.8 18.2084 19.425L18.6667 19.2L17.7751 15.3333H17.5001Z" fill="#00B806"/>
<circle cx="22" cy="22" r="21" stroke="#00B806" stroke-width="2"/>
</svg>
