<svg width="20" height="20" viewBox="0 0 20 20" fill="none" xmlns="http://www.w3.org/2000/svg">
<path d="M14.5 18.3333C11.0977 18.3289 7.83605 16.9754 5.43029 14.5697C3.02453 12.1639 1.67104 8.90225 1.66663 5.49999C1.66663 4.48333 2.07049 3.50831 2.78938 2.78942C3.50827 2.07053 4.4833 1.66666 5.49996 1.66666C5.71524 1.66502 5.93017 1.68456 6.14162 1.72499C6.34605 1.75524 6.54701 1.80548 6.74163 1.87499C6.8785 1.92302 7.00047 2.00594 7.09547 2.11555C7.19047 2.22517 7.25521 2.35768 7.28329 2.49999L8.42496 7.49999C8.45573 7.63571 8.45202 7.77698 8.41418 7.9109C8.37633 8.04482 8.30555 8.16712 8.20829 8.26666C8.09996 8.38333 8.09162 8.39166 7.06662 8.92499C7.88745 10.7257 9.32762 12.1718 11.125 13C11.6666 11.9667 11.675 11.9583 11.7916 11.85C11.8912 11.7527 12.0135 11.682 12.1474 11.6441C12.2813 11.6063 12.4226 11.6026 12.5583 11.6333L17.5583 12.775C17.696 12.807 17.8234 12.8734 17.9284 12.9682C18.0333 13.063 18.1125 13.1829 18.1583 13.3167C18.2286 13.5145 18.2816 13.718 18.3166 13.925C18.3502 14.1344 18.3669 14.3462 18.3666 14.5583C18.3513 15.5706 17.936 16.5358 17.2116 17.243C16.4872 17.9503 15.5124 18.3422 14.5 18.3333ZM5.49996 3.33333C4.926 3.33552 4.37617 3.5645 3.97032 3.97035C3.56447 4.37621 3.33549 4.92603 3.33329 5.49999C3.3355 8.4609 4.51269 11.2999 6.60637 13.3936C8.70005 15.4873 11.5391 16.6645 14.5 16.6667C15.0739 16.6645 15.6237 16.4355 16.0296 16.0296C16.4355 15.6238 16.6644 15.074 16.6666 14.5V14.225L12.8 13.3333L12.5583 13.7917C12.1833 14.5167 11.9083 15.0417 11.2083 14.7583C9.82736 14.264 8.57387 13.4684 7.5389 12.4291C6.50394 11.3898 5.71348 10.133 5.22496 8.74999C4.92496 8.09999 5.49163 7.79999 6.20829 7.42499L6.66663 7.19999L5.77496 3.33333H5.49996Z" fill="#00B806"/>
</svg>
