<svg width="20" height="20" viewBox="0 0 20 20" fill="none" xmlns="http://www.w3.org/2000/svg">
<path d="M8.21674 14.9999C8.10247 14.9996 7.98951 14.9757 7.88486 14.9298C7.7802 14.8839 7.6861 14.817 7.6084 14.7333L3.5584 10.4249C3.40701 10.2636 3.32591 10.0487 3.33294 9.82758C3.33997 9.60644 3.43456 9.39715 3.5959 9.24576C3.75724 9.09436 3.97212 9.01326 4.19325 9.0203C4.41439 9.02733 4.62368 9.12192 4.77507 9.28326L8.20841 12.9416L15.2167 5.27493C15.2879 5.18636 15.3763 5.11327 15.4767 5.06014C15.5771 5.00702 15.6873 4.97498 15.8006 4.96599C15.9138 4.957 16.0277 4.97126 16.1352 5.00788C16.2427 5.04451 16.3416 5.10273 16.4258 5.17896C16.51 5.2552 16.5777 5.34785 16.6248 5.45121C16.6719 5.55458 16.6974 5.66648 16.6997 5.78004C16.7019 5.89361 16.681 6.00644 16.638 6.1116C16.5951 6.21677 16.5312 6.31205 16.4501 6.39159L8.83341 14.7249C8.75644 14.8102 8.66267 14.8787 8.55798 14.926C8.45329 14.9733 8.33995 14.9985 8.22507 14.9999H8.21674Z" fill="white"/>
</svg>
