<svg width="80" height="81" viewBox="0 0 80 81" fill="none" xmlns="http://www.w3.org/2000/svg">
<path d="M39.5491 28.324H45.8627V30.1272H39.5491V28.324ZM37.7451 28.324H34.1371V30.1272H37.7451V28.324ZM34.1379 26.52H45.8627V24.716H34.1379V26.52ZM42.2555 22.9128H45.8627V21.1088H42.2555V22.9128ZM40.4507 21.1088H34.1371V22.9128H40.4507V21.1088ZM34.1379 19.3048H45.8627V17.5008H34.1379V19.3048ZM34.1379 33.736H44.0595V31.932H34.1379V33.736ZM51.7251 56.284C51.7251 62.7488 46.4659 68.0088 40.0003 68.0088C33.5347 68.0088 28.2755 62.7488 28.2755 56.284C28.2755 49.8192 33.5355 44.5592 40.0003 44.5592C46.4659 44.5592 51.7251 49.8192 51.7251 56.284ZM49.9219 56.284C49.9219 50.8136 45.4715 46.3632 40.0003 46.3632C34.5299 46.3632 30.0795 50.8136 30.0795 56.284C30.0795 61.7544 34.5299 66.2056 40.0003 66.2056C45.4707 66.2056 49.9219 61.7544 49.9219 56.284ZM47.2251 59.9016L45.3123 61.8144C44.8937 62.2332 44.3965 62.5652 43.8493 62.7914C43.3021 63.0177 42.7156 63.1337 42.1235 63.1328C41.5313 63.1339 40.9447 63.0181 40.3975 62.7918C39.8503 62.5656 39.3531 62.2334 38.9347 61.8144L34.4707 57.3496C34.0505 56.932 33.7174 56.4352 33.4907 55.888C33.264 55.3408 33.1481 54.7539 33.1499 54.1616C33.1499 52.956 33.6187 51.8248 34.4707 50.9728L36.3843 49.0584L40.2107 52.8856L38.9355 54.1608L42.1243 57.3496L43.3995 56.0736L47.2251 59.9016ZM44.0363 60.5392L44.6739 59.9016L43.3979 58.6248L42.1227 59.9016L36.3827 54.1616L37.6587 52.8864L36.3827 51.6104L35.7443 52.2488C35.4922 52.4993 35.2924 52.7974 35.1564 53.1258C35.0205 53.4541 34.9511 53.8062 34.9523 54.1616C34.9523 54.8848 35.2331 55.564 35.7443 56.0744L40.2083 60.5392C40.7167 61.0454 41.4049 61.3295 42.1223 61.3295C42.8397 61.3295 43.5279 61.0454 44.0363 60.5392ZM15.6475 39.1472H27.3723V37.3432H15.6475V39.1472ZM22.8635 42.7552H24.6675V40.9512H22.8635V42.7552ZM15.6475 42.7552H17.4515V40.9512H15.6475V42.7552ZM19.2555 42.7552H21.0587V40.9512H19.2555V42.7552ZM68.8619 29.2264V43.6568C68.8608 44.6134 68.4803 45.5305 67.8039 46.2069C67.1275 46.8833 66.2104 47.2637 65.2539 47.2648H59.3139L56.2347 50.344L53.1555 47.2648H51.7251C50.7686 47.2635 49.8517 46.883 49.1755 46.2066C48.4993 45.5302 48.1189 44.6132 48.1179 43.6568V38.2456H42.6291L39.5499 41.3248L36.4707 38.2456H31.8835V43.6568C31.8824 44.6134 31.5019 45.5305 30.8255 46.2069C30.1491 46.8833 29.232 47.2637 28.2755 47.2648H26.8451L23.7659 50.344L20.6867 47.2648H14.7467C13.7901 47.2637 12.873 46.8833 12.1966 46.2069C11.5202 45.5305 11.1397 44.6134 11.1387 43.6568V36.4408C11.1397 35.4843 11.5202 34.5673 12.1966 33.891C12.8731 33.2147 13.7902 32.8344 14.7467 32.8336H26.9227V16.5992C26.9235 15.6426 27.3039 14.7253 27.9804 14.0489C28.6568 13.3724 29.574 12.992 30.5307 12.9912H49.4715C50.428 12.992 51.3452 13.3725 52.0215 14.0489C52.6978 14.7254 53.078 15.6426 53.0787 16.5992V25.6184H65.2547C66.2112 25.6195 67.1282 25.9999 67.8045 26.6764C68.4807 27.3528 68.861 28.2699 68.8619 29.2264ZM67.0587 29.2264C67.0582 28.7481 66.868 28.2895 66.5298 27.9512C66.1916 27.613 65.733 27.4228 65.2547 27.4224H51.7251C51.5683 27.4224 51.4195 27.4488 51.2747 27.4864C50.8884 27.5859 50.5461 27.8107 50.3013 28.1255C50.0565 28.4404 49.9231 28.8276 49.9219 29.2264V43.6568C49.9223 44.135 50.1124 44.5935 50.4504 44.9317C50.7885 45.2699 51.2469 45.4602 51.7251 45.4608H53.9027L56.2355 47.7936L58.5675 45.4608H65.2547C65.733 45.4604 66.1916 45.2702 66.5298 44.9319C66.868 44.5937 67.0582 44.1351 67.0587 43.6568V29.2264ZM41.8819 36.4408H48.1179V29.2256C48.1193 28.3475 48.4405 27.5 49.0216 26.8417C49.6026 26.1834 50.4036 25.7593 51.2747 25.6488V16.5992C51.2743 16.1209 51.084 15.6623 50.7458 15.324C50.4076 14.9858 49.949 14.7956 49.4707 14.7952H30.5299C30.0515 14.7956 29.5929 14.9858 29.2547 15.324C28.9165 15.6623 28.7263 16.1209 28.7259 16.5992V32.8648C29.5969 32.9751 30.3979 33.399 30.9789 34.0572C31.56 34.7154 31.8813 35.5628 31.8827 36.4408H37.2171L39.5491 38.7736L41.8819 36.4408ZM30.0787 38.2144V36.4416C30.0787 36.4192 30.0731 36.3984 30.0723 36.376C30.0577 35.9906 29.9195 35.62 29.6782 35.3191C29.4369 35.0182 29.1053 34.8028 28.7323 34.7048C28.5832 34.6631 28.4294 34.6408 28.2747 34.6384H14.7467C14.2685 34.6388 13.81 34.8289 13.4718 35.167C13.1336 35.505 12.9433 35.9634 12.9427 36.4416V43.6576C12.9431 44.1359 13.1333 44.5945 13.4715 44.9327C13.8097 45.271 14.2684 45.4612 14.7467 45.4616H21.4339L23.7667 47.7944L26.0987 45.4616H28.2755C28.7538 45.4612 29.2124 45.271 29.5506 44.9327C29.8888 44.5945 30.079 44.1359 30.0795 43.6576L30.0787 38.2144ZM52.6275 39.1472H64.3523V37.3432H52.6275V39.1472ZM56.2355 35.5392V33.736H52.6275V35.5392H56.2355ZM58.0387 35.5392H64.3523V33.736H58.0387V35.5392ZM52.6275 30.128V31.932H64.3523V30.128H52.6275ZM52.6275 42.7552H61.6467V40.9512H52.6275V42.7552Z" fill="#00B806"/>
</svg>
