<svg width="20" height="20" viewBox="0 0 20 20" fill="none" xmlns="http://www.w3.org/2000/svg">
<path fill-rule="evenodd" clip-rule="evenodd" d="M10.0003 18.3333C5.39783 18.3333 1.66699 14.6025 1.66699 9.99999C1.66699 5.39749 5.39783 1.66666 10.0003 1.66666C14.6028 1.66666 18.3337 5.39749 18.3337 9.99999C18.3337 14.6025 14.6028 18.3333 10.0003 18.3333ZM10.0003 16.6667C11.7684 16.6667 13.4641 15.9643 14.7144 14.714C15.9646 13.4638 16.667 11.7681 16.667 9.99999C16.667 8.23188 15.9646 6.53619 14.7144 5.28594C13.4641 4.0357 11.7684 3.33332 10.0003 3.33332C8.23221 3.33332 6.53652 4.0357 5.28628 5.28594C4.03604 6.53619 3.33366 8.23188 3.33366 9.99999C3.33366 11.7681 4.03604 13.4638 5.28628 14.714C6.53652 15.9643 8.23221 16.6667 10.0003 16.6667ZM13.0895 10.5892L10.5895 13.0892C10.4323 13.241 10.2218 13.3249 10.0033 13.323C9.78483 13.3212 9.57582 13.2335 9.42131 13.079C9.2668 12.9245 9.17916 12.7155 9.17726 12.497C9.17536 12.2785 9.25936 12.068 9.41116 11.9108L10.4887 10.8333H7.50032C7.27931 10.8333 7.06735 10.7455 6.91107 10.5892C6.75479 10.433 6.66699 10.221 6.66699 9.99999C6.66699 9.77897 6.75479 9.56701 6.91107 9.41073C7.06735 9.25445 7.27931 9.16666 7.50032 9.16666H10.4887L9.41116 8.08916C9.25936 7.93199 9.17536 7.72149 9.17726 7.50299C9.17916 7.28449 9.2668 7.07548 9.42131 6.92097C9.57582 6.76647 9.78483 6.67883 10.0033 6.67693C10.2218 6.67503 10.4323 6.75902 10.5895 6.91082L13.0895 9.41082C13.2457 9.5671 13.3335 9.77902 13.3335 9.99999C13.3335 10.221 13.2457 10.4329 13.0895 10.5892Z" fill="#00B806"/>
</svg>
