<svg width="12" height="12" viewBox="0 0 12 12" fill="none" xmlns="http://www.w3.org/2000/svg">
<g clip-path="url(#clip0_231_621)">
<path d="M5.24997 8.5C5.18417 8.50038 5.11893 8.48777 5.05802 8.46289C4.9971 8.43801 4.94169 8.40134 4.89497 8.355C4.84811 8.30852 4.81091 8.25322 4.78552 8.19229C4.76014 8.13136 4.74707 8.06601 4.74707 8C4.74707 7.934 4.76014 7.86864 4.78552 7.80771C4.81091 7.74678 4.84811 7.69148 4.89497 7.645L6.54997 6L4.95997 4.345C4.86684 4.25132 4.81457 4.1246 4.81457 3.9925C4.81457 3.86041 4.86684 3.73368 4.95997 3.64C5.00645 3.59314 5.06175 3.55594 5.12268 3.53056C5.18361 3.50517 5.24896 3.4921 5.31497 3.4921C5.38098 3.4921 5.44633 3.50517 5.50726 3.53056C5.56819 3.55594 5.62349 3.59314 5.66997 3.64L7.59997 5.64C7.69158 5.73347 7.7429 5.85913 7.7429 5.99C7.7429 6.12088 7.69158 6.24654 7.59997 6.34L5.59997 8.34C5.55509 8.38847 5.50105 8.42756 5.44098 8.45502C5.38091 8.48249 5.31599 8.49777 5.24997 8.5Z" fill="#D5D4D4"/>
</g>
<defs>
<clipPath id="clip0_231_621">
<rect width="12" height="12" fill="white"/>
</clipPath>
</defs>
</svg>
