<svg width="16" height="16" viewBox="0 0 16 16" fill="none" xmlns="http://www.w3.org/2000/svg">
<path fill-rule="evenodd" clip-rule="evenodd" d="M3.52869 5.52867C3.40371 5.65369 3.3335 5.82323 3.3335 6.00001C3.3335 6.17678 3.40371 6.34632 3.52869 6.47134L7.52869 10.4713C7.65371 10.5963 7.82324 10.6665 8.00002 10.6665C8.1768 10.6665 8.34634 10.5963 8.47135 10.4713L12.4714 6.47134C12.5928 6.3456 12.66 6.1772 12.6585 6.0024C12.657 5.82761 12.5868 5.6604 12.4632 5.53679C12.3396 5.41319 12.1724 5.34307 11.9976 5.34156C11.8228 5.34004 11.6544 5.40723 11.5287 5.52867L8.00002 9.05734L4.47135 5.52867C4.34634 5.40369 4.1768 5.33348 4.00002 5.33348C3.82324 5.33348 3.65371 5.40369 3.52869 5.52867Z" fill="#2B2A29"/>
</svg>
