<svg width="16" height="16" viewBox="0 0 16 16" fill="none" xmlns="http://www.w3.org/2000/svg">
<g clip-path="url(#clip0_249_1372)">
<path d="M7.82798 12.0261H8.78398C8.78398 12.0261 9.07298 11.9941 9.21998 11.8351C9.35598 11.6891 9.35098 11.4151 9.35098 11.4151C9.35098 11.4151 9.33198 10.1321 9.92798 9.94312C10.515 9.75712 11.269 11.1831 12.068 11.7321C12.672 12.1471 13.131 12.0561 13.131 12.0561L15.268 12.0261C15.268 12.0261 16.386 11.9571 15.856 11.0781C15.813 11.0061 15.547 10.4281 14.267 9.24012C12.927 7.99612 13.107 8.19812 14.721 6.04712C15.704 4.73712 16.097 3.93712 15.974 3.59512C15.857 3.26912 15.134 3.35512 15.134 3.35512L12.73 3.36912C12.73 3.36912 12.552 3.34512 12.419 3.42412C12.29 3.50212 12.207 3.68212 12.207 3.68212C12.207 3.68212 11.826 4.69612 11.318 5.55812C10.247 7.37712 9.81798 7.47312 9.64298 7.36012C9.23598 7.09712 9.33798 6.30212 9.33798 5.73812C9.33798 3.97512 9.60498 3.24012 8.81698 3.05012C8.55498 2.98712 8.36298 2.94512 7.69398 2.93812C6.83598 2.92912 6.10898 2.94112 5.69798 3.14212C5.42398 3.27612 5.21298 3.57512 5.34198 3.59212C5.50098 3.61312 5.86098 3.68912 6.05198 3.94912C6.29898 4.28412 6.28998 5.03812 6.28998 5.03812C6.28998 5.03812 6.43198 7.11312 5.95898 7.37112C5.63398 7.54812 5.18898 7.18712 4.23398 5.53612C3.74498 4.69112 3.37498 3.75612 3.37498 3.75612C3.37498 3.75612 3.30398 3.58212 3.17698 3.48912C3.02298 3.37612 2.80698 3.34012 2.80698 3.34012L0.520979 3.35412C0.520979 3.35412 0.177979 3.36412 0.0519791 3.51312C-0.0600209 3.64612 0.0429791 3.92012 0.0429791 3.92012C0.0429791 3.92012 1.83298 8.10712 3.85898 10.2181C5.71798 12.1531 7.82798 12.0261 7.82798 12.0261Z" fill="#EAEAEA"/>
</g>
<defs>
<clipPath id="clip0_249_1372">
<rect width="16" height="16" fill="white"/>
</clipPath>
</defs>
</svg>
