<svg width="16" height="16" viewBox="0 0 16 16" fill="none" xmlns="http://www.w3.org/2000/svg">
<path d="M15.3334 6.47332C15.3664 5.51909 15.1577 4.572 14.7268 3.71999C14.4344 3.37039 14.0286 3.13446 13.5801 3.05332C11.7251 2.88501 9.86245 2.81602 8.0001 2.84666C6.14453 2.81463 4.28857 2.88139 2.4401 3.04666C2.07465 3.11313 1.73644 3.28455 1.46677 3.53999C0.866766 4.09332 0.800099 5.03999 0.733433 5.83999C0.636707 7.27837 0.636707 8.72161 0.733433 10.16C0.752719 10.6103 0.819762 11.0572 0.933433 11.4933C1.01382 11.83 1.17645 12.1416 1.40677 12.4C1.67828 12.669 2.02436 12.8501 2.4001 12.92C3.83738 13.0974 5.28558 13.1709 6.73343 13.14C9.06676 13.1733 11.1134 13.14 13.5334 12.9533C13.9184 12.8878 14.2742 12.7064 14.5534 12.4333C14.7401 12.2466 14.8795 12.0181 14.9601 11.7667C15.1985 11.0351 15.3156 10.2694 15.3068 9.49999C15.3334 9.12666 15.3334 6.87332 15.3334 6.47332ZM6.49343 9.89999V5.77332L10.4401 7.84666C9.33343 8.45999 7.87343 9.15332 6.49343 9.89999Z" fill="#EAEAEA"/>
</svg>
