<svg width="300" height="300" viewBox="0 0 300 300" fill="none" xmlns="http://www.w3.org/2000/svg">
<path d="M149.5 300C231.514 300 298 232.843 298 150C298 67.1571 231.514 0 149.5 0C67.4855 0 1 67.1571 1 150C1 232.843 67.4855 300 149.5 300Z" fill="#00B806"/>
<path fill-rule="evenodd" clip-rule="evenodd" d="M126.404 199.28C131.56 204.485 139.924 204.485 145.052 199.309L224.614 118.993C229.899 113.659 238.46 113.659 243.745 118.993C249.024 124.323 249.024 132.964 243.745 138.299L164.126 218.665C148.491 234.449 122.987 234.449 107.352 218.665C99.4418 210.68 95.4698 201.064 95.5147 189.76C95.5596 178.542 99.5877 168.903 107.509 161.037L168.844 100.135C173.871 95.1458 173.905 87.1041 168.923 82.0752C163.986 77.0916 156.003 77.0294 151.055 82.0243L71.0884 162.747C65.8093 168.082 57.2426 168.082 51.9635 162.747C46.6788 157.418 46.6788 148.776 51.9635 143.441L131.98 62.6675C147.391 47.1108 172.536 47.1108 187.947 62.6675C195.745 70.5394 199.661 80.0195 199.616 91.159C199.571 102.219 195.599 111.722 187.79 119.475L126.454 180.377C121.203 185.587 121.17 193.997 126.404 199.28ZM215.223 242.003C209.944 247.332 201.377 247.332 196.098 242.003C190.819 236.669 190.819 228.027 196.098 222.697L228.912 189.574C234.191 184.239 242.757 184.239 248.036 189.574C253.321 194.903 253.321 203.55 248.036 208.879L215.223 242.003Z" fill="#FEFEFE"/>
</svg>
