<svg width="81" height="80" viewBox="0 0 81 80" fill="none" xmlns="http://www.w3.org/2000/svg">
<path d="M34.2844 17.496C34.2092 17.784 34.166 18.0848 34.166 18.396V19.296H33.266V24.6968H47.6684V19.296H46.7684V18.396C46.7684 18.0848 46.7244 17.784 46.65 17.496H68.3988H69.2988V15.696H45.5412C44.9068 15.1376 44.0772 14.796 43.1676 14.796H41.3668V12.9952H44.0668V11.1944H41.3668H39.566H36.866V12.9952H39.566V14.796H37.766C36.8564 14.796 36.026 15.1376 35.3916 15.696H11.6892V17.496H12.5348H34.2844ZM44.7172 17.496C44.8724 17.7616 44.9676 18.0664 44.9676 18.396V19.296H35.966V18.396C35.966 18.0664 36.0612 17.7616 36.2172 17.496C36.5292 16.9608 37.1036 16.596 37.7668 16.596H43.1676C43.83 16.596 44.4044 16.9608 44.7172 17.496ZM45.8676 22.8976H35.066V21.0968H45.8676V22.8976Z" fill="#00B806"/>
<path d="M15.0676 25.1472L15.8972 22.2488L18.234 23.0272L19.9044 21.3552L22.358 22.9904L24.8236 22.1688L26.51 24.6976H29.6924V22.8976H27.4732L25.5588 20.0256L22.6236 21.004L19.6764 19.0376L17.7468 20.9672L14.682 19.9456L13.7108 23.3472H12.5348H11.6892V25.1472H12.5348H15.0676Z" fill="#00B806"/>
<path d="M69.6716 22.8976L68.3988 21.624L65.8756 19.1016L63.898 20.0904L61.9204 19.1016L59.0244 21.9968L60.2972 23.2696L62.2748 21.292L63.898 22.1032L65.5204 21.292L68.3988 24.1696V24.1704L69.6716 22.8976Z" fill="#00B806"/>
<path d="M55.7971 21.0968H52.1963V22.8976H55.7971V21.0968Z" fill="#00B806"/>
<path d="M33.4067 27.14L30.7067 28.94L28.7923 27.0256L25.7187 30.0984H22.4907V31.8984H26.4635L28.7923 29.5712L30.4779 31.2568L33.1779 29.4568L35.8155 32.0936L37.7939 31.1048L39.9963 32.2064L40.8011 30.596L37.7939 29.092L36.1707 29.9032L33.4067 27.14Z" fill="#00B806"/>
<path d="M49.9931 32.2064L53.5939 30.4064L54.4939 32.2064L58.3195 30.2936L60.1195 32.0936L62.0971 31.1048L64.3003 32.2064L65.1059 30.596L62.0971 29.092L60.4747 29.9032L58.6747 28.1032L55.2987 29.7904L54.3987 27.9904L49.1875 30.596L49.9931 32.2064Z" fill="#00B806"/>
<path d="M46.7947 27.3984H42.2939V29.1992H46.7947V27.3984Z" fill="#00B806"/>
<path d="M17.0892 28.2984H14.3892V30.0984H17.0892V28.2984Z" fill="#00B806"/>
<path d="M65.698 26.4976V28.2984H68.3988V26.4976H65.698Z" fill="#00B806"/>
<path d="M12.5347 34.5992H11.6619V36.3992H12.5619H68.3715H69.2715V34.5992H68.3987H12.5347Z" fill="#00B806"/>
<path d="M29.665 67.9048V68.8048C31.465 68.8048 29.665 68.8048 31.465 68.8048V67.9048V67.0048H29.665V67.9048Z" fill="#00B806"/>
<path d="M26.0644 66.104H24.2644V67.9048H26.0644V66.104Z" fill="#00B806"/>
<path d="M15.2627 67.0048C17.0627 67.0048 15.2627 67.0048 17.0627 67.0048V65.2048H15.2627V67.0048ZM45.8675 67.9048V68.8048C47.6683 68.8048 45.8675 68.8048 47.6683 68.8048V67.9048V67.0048H45.8675V67.9048ZM51.2683 66.104C53.0683 66.104 51.2683 66.104 53.0683 66.104V64.304H51.2683V66.104ZM57.5691 67.9048V68.8048C59.3699 68.8048 57.5691 68.8048 59.3699 68.8048V67.9048V67.0048H57.5691V67.9048ZM62.9707 67.0048C64.7715 67.0048 62.9707 67.0048 64.7715 67.0048V65.2048H62.9707V67.0048ZM17.9627 38.2H16.1627V40C17.9627 40 16.1627 40 17.9627 40V38.2ZM22.4635 41.8008V43.6008C24.2643 43.6008 22.4635 43.6008 24.2643 43.6008V41.8008H22.4635ZM54.8691 41.8008V43.6008C56.6699 43.6008 54.8691 43.6008 56.6699 43.6008V41.8008H54.8691ZM51.2683 40V41.8008C53.0683 41.8008 51.2683 41.8008 53.0683 41.8008V40H51.2683ZM61.1699 39.1V40.9008C62.9699 40.9008 61.1699 40.9008 62.9699 40.9008V39.1H61.1699ZM65.6707 42.7008V44.5008C67.4707 44.5008 65.6707 44.5008 67.4707 44.5008V42.7008H65.6707ZM28.7651 39.1V40.9008C30.5651 40.9008 28.7651 40.9008 30.5651 40.9008V39.1H28.7651Z" fill="#00B806"/>
<path d="M63.8707 47.2016V45.4008H60.2699H58.4691H54.8683V46.3008H47.6675V42.7L46.5219 38.0072L44.7755 38.444L44.9395 39.0984L45.8675 42.8096V45.052C44.2771 44.1296 42.4331 43.5984 40.4667 43.5984C38.5003 43.5984 36.6555 44.1296 35.0659 45.052V42.8096L35.9939 39.0984L36.1579 38.444L34.4107 38.008L33.2923 42.4824L33.2763 46.3008H26.0635V45.4008H22.4627H20.6627H17.0619V47.2016H12.5611H11.6611V49.0016H12.5611H17.0619V59.8048H12.5611H11.6611V61.6048H12.5611H17.0619V63.404H20.6627H22.4627H26.0635V62.504H33.3331C35.2371 64.1832 37.7339 65.2048 40.4667 65.2048C43.1995 65.2048 45.6963 64.1832 47.6003 62.504H54.8691V63.404H58.4699H60.2707H63.8715V61.6032H68.3723H69.2723V59.8032H68.3723H63.8715V49.0016H68.3723H69.2723V47.2016H68.3723H63.8707ZM62.0699 49.0016V59.804V60.704V61.604H60.2699V47.2016H62.0699V48.1016V49.0016ZM44.3643 62.504C43.1827 63.0744 41.8643 63.404 40.4667 63.404C39.0691 63.404 37.7507 63.0744 36.5691 62.504C36.0459 62.2512 35.5507 61.9496 35.0891 61.604C34.7211 61.3288 34.3707 61.0312 34.0499 60.704C32.4539 59.0784 31.4651 56.8552 31.4651 54.4024C31.4651 52.3752 32.1475 50.508 33.2827 49.0016C33.5211 48.6864 33.7731 48.3832 34.0499 48.1016C34.0883 48.0624 34.1267 48.024 34.1659 47.9856C34.4539 47.7024 34.7651 47.4448 35.0891 47.2024C35.5507 46.8568 36.0459 46.5552 36.5691 46.3024C37.7507 45.732 39.0691 45.4024 40.4667 45.4024C41.8643 45.4024 43.1827 45.732 44.3643 46.3024C44.8883 46.5552 45.3827 46.8568 45.8443 47.2024C46.1683 47.4448 46.4795 47.7032 46.7675 47.9856C46.8067 48.024 46.8451 48.0624 46.8835 48.1016C47.1595 48.3832 47.4123 48.6864 47.6499 49.0016C48.7859 50.508 49.4675 52.3752 49.4675 54.4024C49.4675 56.8544 48.4795 59.0784 46.8835 60.704C46.5619 61.0312 46.2123 61.3288 45.8435 61.604C45.3827 61.9496 44.8883 62.2504 44.3643 62.504ZM26.0643 60.704V48.1016H31.7019C30.4227 49.8768 29.6659 52.0528 29.6659 54.4032C29.6659 56.7536 30.4227 58.9296 31.7019 60.7048L26.0643 60.704ZM23.3635 61.604H22.4635V47.2016H23.3635H24.2635V48.1016V60.704V61.604H23.3635ZM51.2683 54.4024C51.2683 52.052 50.5115 49.8768 49.2323 48.1008H54.8691V60.704H49.2323C50.5115 58.9288 51.2683 56.7528 51.2683 54.4024ZM56.6699 61.604V60.704V48.1016V47.2016H57.5699H58.4699V61.604H57.5699H56.6699ZM18.8627 59.8048V49.0016V48.1016V47.2016H20.6635V61.604H18.8627V60.704V59.8048Z" fill="#00B806"/>
<path d="M45.1155 53.9232L43.3931 54.448L44.1123 56.8096C44.3091 57.4552 44.0091 58.376 43.4699 58.7816L42.7507 59.3224L43.7891 60.704L43.8323 60.7624L43.9091 60.704L44.5507 60.2208C45.6827 59.3696 46.2467 57.6416 45.8339 56.2864L45.1155 53.9232ZM40.6595 49.98C39.5283 50.8312 38.9643 52.5592 39.3771 53.9136L39.8331 55.4152C40.0299 56.06 39.7291 56.9816 39.1907 57.3872L38.4707 57.9272L39.5531 59.3664L40.2731 58.8248C41.4043 57.9736 41.9683 56.2456 41.5555 54.8912L41.0987 53.3888C40.9059 52.756 41.2115 51.816 41.7419 51.4176L42.4611 50.8776L41.3787 49.4384L40.6595 49.98ZM37.4627 50.0232L38.1819 49.4824L37.8203 49.0016L37.1435 48.1016L37.0995 48.044L37.0227 48.1016L36.3795 48.5848C36.2187 48.7056 36.0731 48.848 35.9363 49.0016C35.1123 49.9232 34.7443 51.3568 35.0971 52.5192L35.8171 54.8816L37.5387 54.3568L36.8195 51.9952C36.6267 51.3608 36.9339 50.4216 37.4627 50.0232Z" fill="#00B806"/>
</svg>
