<svg width="81" height="80" viewBox="0 0 81 80" fill="none" xmlns="http://www.w3.org/2000/svg">
<path d="M57.0692 35.0881C58.0948 36.5889 59.7908 37.4433 61.5436 37.4433C62.3492 37.4425 63.166 37.2625 63.9356 36.8817C66.3908 35.6665 68.9972 29.8521 69.286 29.1921L69.6988 28.2505L68.7116 27.9641C67.9916 27.7545 61.6092 25.9569 59.1332 27.1809C57.8372 27.8217 56.8692 28.9297 56.4068 30.2993C56.058 31.3321 56.0292 32.4217 56.3116 33.4505L54.3052 34.3105L52.4772 30.1977C56.0356 28.6881 58.538 25.1601 58.538 21.0577C58.538 15.5865 54.0868 11.1353 48.6156 11.1353C43.1444 11.1353 38.6932 15.5865 38.6932 21.0577C38.6932 26.5289 43.1444 30.9793 48.6156 30.9793C49.3468 30.9793 50.0596 30.8977 50.7468 30.7465L52.9292 35.6569L52.6916 39.9281C52.5164 40.1065 52.3564 40.2993 52.214 40.5041L50.442 39.8401C50.802 37.3113 49.3252 34.7993 46.8188 33.9529C44.1916 33.0665 38.5092 35.6553 37.8692 35.9529L37.0132 36.3521L37.4516 37.1897C37.7796 37.8137 40.7284 43.3201 43.3548 44.2065C43.9268 44.4001 44.5092 44.4913 45.082 44.4913C47.078 44.4913 48.9588 43.3753 49.894 41.5601L51.4956 42.1609C51.3676 42.7753 51.3628 43.4241 51.514 44.0737C51.666 44.7273 51.9596 45.3225 52.3636 45.8337L52.086 50.8225H42.302V60.7449C42.302 61.7609 42.6436 62.6961 43.2132 63.4505H40.2452L41.086 66.8137C41.3884 68.0193 42.4676 68.8625 43.7116 68.8625H62.5428C63.7868 68.8625 64.866 68.0193 65.1684 66.8129L66.0084 63.4505H63.0404C63.6092 62.6961 63.9516 61.7601 63.9516 60.7449V50.8241H53.8932L54.0964 47.1673C54.6564 47.4113 55.254 47.5377 55.8604 47.5377C56.1996 47.5377 56.5404 47.4993 56.8788 47.4209C59.0412 46.9201 61.6788 43.0433 62.186 42.2713L62.7044 41.4809L61.8908 41.0001C61.0964 40.5289 57.0172 38.2185 54.8604 38.7097L54.8596 38.7105C54.7572 38.7345 54.6596 38.7657 54.5612 38.7961L54.7108 36.0993L57.0692 35.0881ZM58.1164 30.8761C58.4252 29.9633 59.07 29.2249 59.934 28.7977C60.2924 28.6201 60.8516 28.5457 61.5252 28.5457C63.1412 28.5457 65.4212 28.9729 67.194 29.4217C66.1084 31.6737 64.362 34.6585 63.1356 35.2641C61.618 36.0145 59.8252 35.5929 58.7804 34.3545L61.3412 33.2569L60.6308 31.5985L57.9972 32.7273C57.8756 32.1169 57.9116 31.4825 58.1164 30.8761ZM48.6164 29.1761C44.1404 29.1761 40.498 25.5345 40.498 21.0577C40.498 16.5809 44.1396 12.9393 48.6164 12.9393C53.0924 12.9393 56.734 16.5809 56.734 21.0577C56.734 24.4265 54.6716 27.3201 51.7436 28.5473C51.1892 28.7801 50.6012 28.9449 49.9932 29.0497C49.5444 29.1273 49.086 29.1761 48.6164 29.1761ZM45.3668 37.9377L44.7332 39.6257L48.1884 40.9217C47.8364 41.5169 47.322 41.9993 46.6876 42.3137C45.8228 42.7409 44.8452 42.8065 43.9324 42.4993C42.6476 42.0649 40.7188 39.2993 39.5156 37.1993C41.7452 36.2593 44.9556 35.2281 46.242 35.6633C47.1548 35.9713 47.8924 36.6169 48.3204 37.4817C48.5868 38.0201 48.7124 38.6025 48.6948 39.1865L45.3668 37.9377ZM63.4172 66.3769C63.3172 66.7793 62.9564 67.0601 62.542 67.0601H43.7108C43.2964 67.0601 42.9356 66.7793 42.8356 66.3777L42.5556 65.2561H46.8124H59.4404H63.6972L63.4172 66.3769ZM62.146 60.7465C62.146 62.2385 60.9316 63.4521 59.4404 63.4521H46.8124C45.3204 63.4521 44.106 62.2385 44.106 60.7465V52.6281H52.914L53.79 52.6761L53.7932 52.6281H62.146V60.7465ZM60.1244 42.0793C58.9908 43.6417 57.3876 45.4505 56.4708 45.6633C55.7772 45.8233 55.0628 45.7049 54.458 45.3273C54.3676 45.2713 54.29 45.2017 54.2084 45.1361C53.7428 44.7641 53.4076 44.2577 53.2708 43.6681C53.2036 43.3785 53.1892 43.0889 53.2164 42.8073C53.2772 42.1841 53.558 41.6073 53.9948 41.1729C54.1316 41.0377 54.2828 40.9161 54.4484 40.8113C54.694 40.6561 54.9676 40.5369 55.266 40.4673C56.186 40.2569 58.4188 41.1753 60.1244 42.0793ZM52.2244 55.3345H54.0284V57.1385C52.2244 57.1385 54.0284 57.1385 52.2244 57.1385V55.3345ZM48.6164 55.3345H50.4204V57.1385C48.6164 57.1385 50.4204 57.1385 48.6164 57.1385V55.3345ZM57.6364 57.1385C55.8324 57.1385 57.6364 57.1385 55.8324 57.1385V55.3345H57.6364V57.1385ZM35.9884 60.7465V50.8241H26.066V49.8033C27.6196 49.4017 28.7716 47.9921 28.7716 46.3145C28.7716 44.6241 26.3844 41.0825 25.906 40.3897L25.1636 39.3153L24.4212 40.3897C23.9428 41.0825 21.5556 44.6241 21.5556 46.3145C21.5556 47.9929 22.7084 49.4017 24.262 49.8033V50.8241H14.3404V60.7465C14.3404 61.7625 14.682 62.6977 15.2516 63.4521H12.2836L13.1236 66.8153C13.426 68.0209 14.5052 68.8641 15.7492 68.8641H34.5804C35.8244 68.8641 36.9036 68.0209 37.206 66.8145L38.046 63.4521H35.078C35.646 62.6977 35.9884 61.7617 35.9884 60.7465ZM23.3604 46.3145C23.3604 45.9185 23.7332 45.0649 24.2628 44.0889C24.5044 43.6425 24.7772 43.1729 25.066 42.7065C25.0988 42.6529 25.1308 42.5985 25.1644 42.5457C25.198 42.5993 25.23 42.6529 25.2628 42.7065C25.5516 43.1729 25.8244 43.6425 26.066 44.0889C26.5956 45.0649 26.9676 45.9185 26.9676 46.3145C26.9676 46.9793 26.6028 47.5545 26.066 47.8673C25.7996 48.0225 25.494 48.1177 25.1636 48.1177C24.834 48.1177 24.5276 48.0225 24.262 47.8673C23.7252 47.5545 23.3604 46.9793 23.3604 46.3145ZM35.4548 66.3769C35.3548 66.7793 34.994 67.0601 34.5796 67.0601H15.7484C15.334 67.0601 14.9732 66.7793 14.8732 66.3777L14.5932 65.2561H18.85H31.478H35.7348L35.4548 66.3769ZM34.1844 60.7465C34.1844 62.2385 32.97 63.4521 31.4788 63.4521H18.85C17.358 63.4521 16.1444 62.2385 16.1444 60.7465V52.6281H24.2628H26.0668H34.1852L34.1844 60.7465ZM29.674 57.1385C27.87 57.1385 29.674 57.1385 27.87 57.1385V55.3345H29.674V57.1385ZM20.654 55.3345H22.458V57.1385C20.654 57.1385 22.458 57.1385 20.654 57.1385V55.3345ZM24.262 55.3345H26.066V57.1385C24.262 57.1385 26.066 57.1385 24.262 57.1385V55.3345ZM18.85 32.7841C17.046 32.7841 18.85 32.7841 17.046 32.7841V30.9801H18.85V32.7841ZM15.242 32.7841C13.438 32.7841 15.242 32.7841 13.438 32.7841V30.9801H15.242V32.7841ZM13.438 38.1961H15.242V40.0001C13.438 40.0001 15.242 40.0001 13.438 40.0001V38.1961ZM17.046 38.1961H18.85V40.0001C17.046 40.0001 18.85 40.0001 17.046 40.0001V38.1961ZM13.438 36.3921C11.634 36.3921 13.438 36.3921 11.634 36.3921V34.5881H13.438V36.3921ZM18.85 34.5881H20.654V36.3921C18.85 36.3921 20.654 36.3921 18.85 36.3921V34.5881ZM15.242 34.5881H17.046V36.3921C15.242 36.3921 17.046 36.3921 15.242 36.3921V34.5881ZM32.3804 20.1561C30.5764 20.1561 32.3804 20.1561 30.5764 20.1561V18.3521H32.3804V20.1561ZM28.7724 20.1561C26.9684 20.1561 28.7724 20.1561 26.9684 20.1561V18.3521H28.7724V20.1561ZM26.9684 25.5681H28.7724V27.3721C26.9684 27.3721 28.7724 27.3721 26.9684 27.3721V25.5681ZM30.5764 25.5681H32.3804V27.3721C30.5764 27.3721 32.3804 27.3721 30.5764 27.3721V25.5681ZM28.7724 21.9601H30.5764V23.7641C28.7724 23.7641 30.5764 23.7641 28.7724 23.7641V21.9601ZM26.9684 23.7641C25.1644 23.7641 26.9684 23.7641 25.1644 23.7641V21.9601H26.9684V23.7641ZM32.3804 21.9601H34.1844V23.7641C32.3804 23.7641 34.1844 23.7641 32.3804 23.7641V21.9601Z" fill="#00B806"/>
</svg>
