<svg width="80" height="81" viewBox="0 0 80 81" fill="none" xmlns="http://www.w3.org/2000/svg">
<path d="M29.176 11.636V23.3616H12.94C11.9448 23.3616 11.136 24.1712 11.136 25.1656V55.8336C11.136 56.828 11.9448 57.6376 12.94 57.6376H29.176V69.364H68.864V11.636H29.176ZM67.06 67.56H30.98V57.6384H34.5872C35.5824 57.6384 36.3912 56.8288 36.3912 55.8344V25.1664C36.3912 24.172 35.5824 23.3624 34.5872 23.3624H30.98V13.4408H67.0592L67.06 67.56ZM12.94 25.1664H29.176H30.0784H30.98H34.5872V55.8344H30.98H30.0784H29.176H12.94V25.1664ZM20.156 38.696H21.96V40.5C20.156 40.5 21.96 40.5 20.156 40.5V38.696ZM23.764 38.696H25.568V40.5C23.764 40.5 25.568 40.5 23.764 40.5V38.696ZM27.372 38.696H29.176V40.5C27.372 40.5 29.176 40.5 27.372 40.5V38.696ZM30.98 38.696H32.784V40.5C30.98 40.5 32.784 40.5 30.98 40.5V38.696ZM20.156 43.2056H21.96V45.0096C20.156 45.0096 21.96 45.0096 20.156 45.0096V43.2056ZM23.764 43.2056H25.568V45.0096C23.764 45.0096 25.568 45.0096 23.764 45.0096V43.2056ZM27.372 43.2056H29.176V45.0096C27.372 45.0096 29.176 45.0096 27.372 45.0096V43.2056ZM30.98 43.2056H32.784V45.0096C30.98 45.0096 32.784 45.0096 30.98 45.0096V43.2056ZM27.372 47.716H29.176V49.52C27.372 49.52 29.176 49.52 27.372 49.52V47.716ZM23.764 47.716H25.568V49.52C23.764 49.52 25.568 49.52 23.764 49.52V47.716ZM20.156 47.716H21.96V49.52C20.156 49.52 21.96 49.52 20.156 49.52V47.716ZM30.98 47.716H32.784V49.52C30.98 49.52 32.784 49.52 30.98 49.52V47.716ZM29.176 54.0296C27.372 54.0296 29.176 54.0296 27.372 54.0296V52.2256H29.176V54.0296ZM20.156 52.2264H21.96V54.0304C20.156 54.0304 21.96 54.0304 20.156 54.0304V52.2264ZM23.764 52.2264H25.568V54.0304C23.764 54.0304 25.568 54.0304 23.764 54.0304V52.2264ZM30.98 52.2264H32.784V54.0304C30.98 54.0304 32.784 54.0304 30.98 54.0304V52.2264ZM14.744 38.696H18.352V40.5H14.744V38.696ZM14.744 43.2056H18.352V45.0096H14.744V43.2056ZM14.744 47.716H18.352V49.52H14.744V47.716ZM14.744 52.2264H18.352V54.0304H14.744V52.2264ZM30.0784 35.088H30.98H32.784V27.872H30.98H30.0784H29.176H14.744V35.088H29.176H30.0784ZM16.548 29.676H29.176H30.0784H30.98V33.284H30.0784H29.176H16.548V29.676ZM41.804 20.656H32.784V18.852H41.8032L41.804 20.656ZM41.804 17.048C40 17.048 41.804 17.048 40 17.048V15.244H41.804V17.048ZM38.196 17.048C36.392 17.048 38.196 17.048 36.392 17.048V15.244H38.196V17.048ZM34.588 17.048C32.7848 17.048 34.588 17.048 32.7848 17.048V15.244H34.588V17.048ZM63.452 31.48H42.7056V29.676H63.4512L63.452 31.48ZM54.432 33.284H63.452V35.088H54.432V33.284ZM47.216 35.088H42.7056V33.284H47.216V35.088ZM49.02 35.088V33.284H52.628V35.088H49.02ZM63.452 38.696H42.7056V36.892H63.4512L63.452 38.696ZM41.804 40.5C39.8152 40.5 38.196 42.1184 38.196 44.108V58.54C38.196 60.5304 39.8144 62.148 41.804 62.148H47.216V65.4888L53.2008 62.148H61.648C63.6384 62.148 65.256 60.5304 65.256 58.54V44.108C65.256 42.1184 63.6384 40.5 61.648 40.5H41.804ZM63.452 58.54C63.452 59.5344 62.6424 60.344 61.648 60.344H52.732L49.02 62.416V60.344H41.804C40.8096 60.344 40 59.5344 40 58.54V44.108C40 43.1136 40.8096 42.304 41.804 42.304H61.648C62.6424 42.304 63.452 43.1136 63.452 44.108V58.54ZM56.236 17.9504H50.824V27.872H56.236V17.9504ZM54.432 26.0688H52.628V19.7544H54.432V26.0688ZM49.02 19.7536H43.608V27.872H49.02V19.7536ZM47.216 26.0688H45.412V21.5584H47.216V26.0688ZM63.452 15.2448H58.04V27.8728H63.452V15.2448ZM61.648 26.0688H59.844V17.048H61.648V26.0688Z" fill="#00B806"/>
</svg>
