<svg width="80" height="80" viewBox="0 0 80 80" fill="none" xmlns="http://www.w3.org/2000/svg">
<path d="M15.3329 32.784H17.1369V34.588C15.3329 34.588 17.1369 34.588 15.3329 34.588V32.784ZM56.8248 41.804C58.6288 41.804 56.8249 41.804 58.6289 41.804V40H56.8248V41.804ZM15.3329 38.196C17.1369 38.196 15.3329 38.196 17.1369 38.196V36.392H15.3329V38.196ZM15.3329 41.804C17.1369 41.804 15.3329 41.804 17.1369 41.804V40H15.3329V41.804ZM56.8248 38.196C58.6288 38.196 56.8249 38.196 58.6289 38.196V36.392H56.8248V38.196ZM11.7249 40C13.5289 40 11.7249 40 13.5289 40V38.196H11.7249V40ZM11.7249 36.392C13.5289 36.392 11.7249 36.392 13.5289 36.392V34.588H11.7249V36.392ZM22.5489 61.648H29.7649V59.844H22.5489V61.648ZM56.8248 34.588C58.6288 34.588 56.8249 34.588 58.6289 34.588V32.784H56.8248V34.588ZM68.2752 21.0584L67.2784 21.7872C67.1656 21.8696 66.1224 22.6256 64.6232 23.556C63.5128 27.8216 59.6288 30.9808 55.0201 30.9808C54.716 30.9808 54.4153 30.9648 54.1185 30.9376V44.5104H55.9224V48.1184V49.9224V59.8448V61.6488V63.4528V65.2568V68.8648H41.8712H37.8824H36.0784H32.0897H18.0385V65.2568V63.4528V53.5296V51.7256V49.9216V48.1176V44.5096H19.8425V23.7864C19.5641 23.7864 19.2849 23.7248 19.0265 23.5936C18.4169 23.284 18.0385 22.668 18.0385 21.984V17.7144L18.6401 17.5016C36.6376 11.136 36.7745 11.136 36.9809 11.136C37.1505 11.136 37.2744 11.1368 47.4056 14.7064C49.2272 12.5264 51.9649 11.136 55.0209 11.136C59.6297 11.136 63.5136 14.2944 64.624 18.5608C66.1224 19.4904 67.1656 20.2472 67.2792 20.3296L68.2752 21.0584ZM47.9368 17.104C48.048 17.0448 48.1592 16.9856 48.2728 16.9264C48.6416 16.7344 49.0185 16.5472 49.3993 16.3672C49.7969 16.1792 50.1984 16 50.6008 15.8336C51.8801 15.304 53.16 14.9096 54.3097 14.7872C54.356 14.7824 54.4024 14.7776 54.4488 14.7736C54.6376 14.7568 54.828 14.7448 55.0209 14.7448C55.2145 14.7448 55.404 14.7568 55.5928 14.7736C55.6392 14.7776 55.6856 14.7824 55.732 14.7872C57.6936 14.996 60.0384 16.0024 62.1048 17.1048C60.7144 14.624 58.0625 12.9408 55.0216 12.9408C52.7657 12.9408 50.724 13.8672 49.2512 15.3576C49.0232 15.588 48.8144 15.8352 48.6152 16.0912C48.424 16.3368 48.2489 16.5944 48.0865 16.8608C48.0361 16.9416 47.9832 17.0208 47.9368 17.104ZM55.5201 16.5776C55.356 16.5592 55.1897 16.548 55.0209 16.548C54.8521 16.548 54.6856 16.5592 54.5216 16.5776C54.1465 16.6192 53.7864 16.7104 53.4449 16.8384C53.0592 16.9832 52.6992 17.1776 52.372 17.4168C52.096 17.6184 51.8433 17.8496 51.6193 18.1072C51.5504 18.1864 51.4856 18.2688 51.4225 18.3528C51.2128 18.6312 51.0328 18.932 50.8912 19.2544C50.7656 19.5416 50.6664 19.8424 50.6032 20.1568C50.5704 20.3168 50.548 20.48 50.5336 20.6456C50.5209 20.7824 50.5128 20.9192 50.5128 21.0592C50.5128 21.2368 50.5257 21.4112 50.5457 21.584C50.5888 21.9528 50.6784 22.3064 50.8048 22.6424C51.1096 23.4504 51.6385 24.1472 52.3169 24.6584C52.5953 24.868 52.896 25.048 53.2192 25.1896C53.5065 25.3152 53.8073 25.4136 54.1217 25.4776C54.2537 25.5048 54.3881 25.524 54.524 25.5392C54.688 25.5576 54.8545 25.5688 55.0232 25.5688C55.192 25.5688 55.3584 25.5576 55.5224 25.5392C57.7744 25.2904 59.5328 23.376 59.5328 21.0584C59.5304 18.74 57.772 16.8272 55.5201 16.5776ZM46.4328 20.0568C46.2961 20.1416 46.1672 20.2232 46.0384 20.304C45.8416 20.4296 45.6537 20.5496 45.4769 20.664C45.3449 20.7496 45.2208 20.8312 45.1017 20.9096C45.0272 20.9592 44.9481 21.0112 44.8784 21.0576C44.9473 21.104 45.0272 21.156 45.1017 21.2056C45.3792 21.3904 45.6928 21.5936 46.0376 21.8112C46.3464 22.0064 46.6752 22.2104 47.0257 22.4208C47.5512 22.7368 48.1184 23.0616 48.7056 23.3792C48.8968 23.4824 49.0905 23.584 49.2864 23.6856C49.028 23.124 48.8504 22.5192 48.7664 21.8848C48.7304 21.6136 48.7056 21.3384 48.7056 21.0576C48.7056 21.0056 48.712 20.9544 48.7136 20.9032C48.7208 20.596 48.7512 20.2944 48.8016 19.9992C48.8952 19.448 49.0592 18.9224 49.2864 18.4296C49.0913 18.5304 48.8976 18.632 48.7056 18.736C48.2536 18.9808 47.8144 19.2288 47.3968 19.4744C47.2712 19.548 47.1472 19.6216 47.0257 19.6944C46.8224 19.8176 46.6241 19.9384 46.4328 20.0568ZM46.9025 36.7584V44.5096H48.7064V28.7064C47.1224 27.3952 45.9504 25.6032 45.4168 23.556C43.9184 22.6256 42.8752 21.8696 42.7624 21.7872L41.7657 21.0584L42.7624 20.3296C42.8104 20.2944 43.0321 20.1336 43.3865 19.8888L36.98 17.5104L25.2537 21.8632V44.5104H27.0577V36.7592C27.0577 33.2808 29.8305 32.0952 32.2769 31.0504L33.6409 30.4672C32.8584 29.5632 32.3753 28.3448 32.3753 27.0032C32.3753 24.2224 34.4408 21.96 36.98 21.96C39.52 21.96 41.5848 24.2224 41.5848 27.0032C41.5848 28.3608 41.0905 29.5928 40.2905 30.5L41.5873 31.0464C44.2017 32.1304 46.9025 33.2504 46.9025 36.7584ZM43.2944 37.6912V44.5096H45.0984V36.7584C45.0984 34.6632 43.8816 33.9504 40.8952 32.7128L40.8897 32.7104L38.5681 31.732C38.0721 31.932 37.5393 32.0472 36.9809 32.0472C36.3985 32.0472 35.844 31.9232 35.3304 31.7064L32.9856 32.708C29.892 34.0304 28.8624 34.8008 28.8624 36.7576V44.5088H30.6665V37.6872H31.5688H32.4705V44.5088H41.4904V37.6904H42.3928L43.2944 37.6912ZM35.4328 29.7008C35.7649 29.9568 36.1465 30.1296 36.556 30.2024C36.6952 30.2264 36.8361 30.2432 36.9809 30.2432C37.0897 30.2432 37.1977 30.2344 37.3041 30.22C37.7329 30.1624 38.1313 29.992 38.4792 29.736C39.2609 29.1608 39.7824 28.152 39.7824 27.0032C39.7824 25.2168 38.5257 23.764 36.9817 23.764C35.4377 23.764 34.1809 25.2168 34.1809 27.0032C34.1793 28.128 34.6777 29.12 35.4328 29.7008ZM19.8425 21.984L20.0625 21.8664L20.7441 21.6136L21.6465 21.2784L23.4505 20.6088L24.3521 20.2744L25.2545 19.9392L36.9809 15.5864L45.2416 18.6704C45.2992 18.6344 45.3584 18.5976 45.4176 18.5608C45.6296 17.744 45.9449 16.9696 46.3465 16.248C41.9361 14.696 37.9737 13.3088 36.9809 12.9808C35.5433 13.4552 27.8801 16.1504 21.6481 18.352C21.0297 18.5704 20.4257 18.784 19.8433 18.9896V21.984H19.8425ZM21.6465 23.2016V44.5096H23.4505V22.5328L21.6465 23.2016ZM54.1185 46.3144H48.7064H46.9025H46H45.0984H43.2944H42.3928H41.4904H32.4705H31.5688H30.6665H28.8624H27.9609H27.0593H25.2553H19.8433V48.1184H27.0593H27.9609H28.8624V49.4512V49.9224H28.0289H27.1017H19.8425V51.7264H25.2545V53.5304H19.8425V63.4528H31.6489H32.4705V65.2568H31.7952H19.8425V67.0608H31.9433H32.8481H33.7529H36.0784H36.9809H37.8824H40.208H41.1129H42.0176H54.1185V65.256H42.1649H41.4904V63.452H42.3113H54.1185V61.648H48.7064V59.844H54.1185V49.9224H46.8592H45.9321H45.0984V49.4512V48.1184H46H46.9025H54.1185V46.3144ZM52.3144 44.5104V30.6024C51.6856 30.424 51.0825 30.1848 50.5104 29.892V44.5104H52.3144ZM62.104 25.012C60.0384 26.1144 57.6936 27.1208 55.7313 27.3296C55.6848 27.3344 55.6376 27.3392 55.592 27.3432C55.404 27.36 55.2136 27.372 55.0201 27.372C54.8273 27.372 54.6368 27.36 54.448 27.3432C54.4016 27.3392 54.3553 27.3344 54.3088 27.3296C54.2449 27.3224 54.1825 27.3176 54.1177 27.3096C53.8241 27.2712 53.5224 27.216 53.2152 27.1456C52.9192 27.0776 52.6176 26.9952 52.3128 26.9032C51.72 26.7224 51.1137 26.4984 50.5089 26.2448C50.2073 26.1184 49.9064 25.9864 49.6072 25.8472C49.304 25.7072 49.0024 25.5616 48.7048 25.412C48.4448 25.2808 48.188 25.1472 47.9352 25.012C48.16 25.4136 48.4176 25.7936 48.7048 26.1496C48.9792 26.4888 49.2824 26.8008 49.6072 27.092C49.892 27.3472 50.1905 27.5896 50.5089 27.8032C51.0648 28.176 51.6721 28.4744 52.3128 28.7024C52.6064 28.8072 52.9072 28.8968 53.2152 28.9672C53.5104 29.0344 53.8105 29.0888 54.1177 29.1232C54.4145 29.156 54.7145 29.1768 55.0192 29.1768C58.0616 29.176 60.7136 27.4928 62.104 25.012ZM65.1617 21.0584C65.0928 21.012 65.0136 20.96 64.9384 20.9104C64.6608 20.7264 64.3472 20.5232 64.0024 20.304C63.6936 20.1088 63.3656 19.9056 63.0152 19.6952C62.3176 19.2768 61.5496 18.8408 60.7544 18.4304C61.1232 19.232 61.3344 20.12 61.3344 21.0584C61.3344 21.9968 61.1232 22.8848 60.7544 23.6864C61.5496 23.2752 62.3176 22.84 63.0152 22.4216C63.3656 22.2112 63.6944 22.008 64.0024 21.812C64.348 21.5936 64.6608 21.3904 64.9384 21.2064C65.0136 21.1568 65.0928 21.104 65.1617 21.0584ZM45.0984 52.0208V53.5296H52.3144V51.7256H45.688H45.0993L45.0984 52.0208ZM54.1185 18.5104C53.9177 18.5816 53.7265 18.6752 53.5505 18.7896C53.3497 18.92 53.168 19.0768 53.0089 19.2544C52.5784 19.7336 52.3144 20.3648 52.3144 21.0584V21.3112V21.9608H53.2169H54.0545H54.1185L54.1193 21.0584C54.1193 20.5608 54.5241 20.156 55.0209 20.156H55.9232V18.352H55.0209C54.704 18.352 54.4009 18.4096 54.1185 18.5104ZM41.4928 50.824H42.392V51.3776V59.0832C42.392 59.8288 42.1025 60.5288 41.6009 61.0784C41.3361 61.368 41.0105 61.6144 40.636 61.804C40.6096 61.8176 40.5864 61.8336 40.56 61.8472L37.8824 63.12L36.9809 63.5488L36.0784 63.12L33.4009 61.8464C33.3736 61.8328 33.3496 61.8168 33.3232 61.8024C32.9496 61.6128 32.6249 61.3672 32.3601 61.0776C31.8577 60.528 31.5688 59.828 31.5688 59.0824V51.3768V50.824H32.4705H36.0784H37.8824H41.4928ZM40.5889 52.628H37.8832H36.9817H36.0792H33.3736V59.0832C33.3736 59.5472 33.6825 59.9816 34.1769 60.2176L36.0792 61.1216L36.9817 61.5504L37.8832 61.1216L39.7856 60.2168C40.2808 59.9808 40.5889 59.5464 40.5889 59.0824V52.628ZM60.4328 40C62.2368 40 60.4328 40 62.2368 40V38.196H60.4328V40ZM60.4328 36.392C62.2368 36.392 60.4328 36.392 62.2368 36.392V34.588H60.4328V36.392Z" fill="#00B806"/>
</svg>
