<svg width="81" height="80" viewBox="0 0 81 80" fill="none" xmlns="http://www.w3.org/2000/svg">
<path d="M65.0998 11.1809H29.0758C27.5854 11.1809 26.3734 12.3929 26.3734 13.8833V33.8353C25.7862 33.7441 25.1846 33.6961 24.5718 33.6961C18.1158 33.6961 12.8638 38.9481 12.8638 45.4041C12.8638 51.8601 18.1158 57.1121 24.5718 57.1121C25.1846 57.1121 25.7854 57.0641 26.3734 56.9729V66.1177C26.3734 67.6073 27.5854 68.8201 29.0758 68.8201H65.0998C66.5894 68.8201 67.8022 67.6081 67.8022 66.1177V13.8825C67.8022 12.3929 66.5902 11.1809 65.0998 11.1809ZM66.0006 66.1177C66.0006 66.6145 65.5958 67.0185 65.0998 67.0185H29.0758C28.579 67.0185 28.175 66.6145 28.175 66.1177V56.5425C29.7582 56.0289 31.195 55.1889 32.403 54.0985C34.7814 51.9545 36.2798 48.8513 36.2798 45.4041C36.2798 43.2865 35.7118 41.3009 34.7254 39.5857C33.2886 37.0881 30.959 35.1689 28.175 34.2657V13.8825C28.175 13.3857 28.579 12.9817 29.0758 12.9817H65.0998C65.5958 12.9817 66.0006 13.3857 66.0006 13.8825V66.1177ZM24.5726 35.4969C25.1878 35.4969 25.7894 35.5561 26.3742 35.6641C26.6798 35.7201 26.9798 35.7905 27.275 35.8745C27.5814 35.9617 27.8814 36.0625 28.1758 36.1777C31.1302 37.3353 33.3974 39.8705 34.1814 42.9905C34.3758 43.7633 34.4806 44.5713 34.4806 45.4033C34.4806 47.3425 33.9182 49.1513 32.9518 50.6809C31.8286 52.4577 30.1574 53.8529 28.1766 54.6297C27.883 54.7449 27.5822 54.8457 27.2758 54.9329C26.9814 55.0169 26.6806 55.0865 26.375 55.1433C25.791 55.2513 25.1894 55.3105 24.5734 55.3105C19.111 55.3105 14.667 50.8665 14.667 45.4041C14.6662 39.9409 19.1102 35.4969 24.5726 35.4969ZM30.8766 27.3913H63.2982V16.5841H30.8766V27.3913ZM32.6782 18.3857H61.4974V25.5905H32.6782V18.3857ZM56.0942 36.3977H63.299V30.9937H56.0942V36.3977ZM57.895 32.7953H61.4974V34.5969H57.895V32.7953ZM56.0942 43.6025H63.299V38.1985H56.0942V43.6025ZM57.895 40.0001H61.4974V41.8017H57.895V40.0001ZM56.0942 50.8073H63.299V45.4033H56.0942V50.8073ZM57.895 47.2049H61.4974V49.0057H57.895V47.2049ZM56.0942 63.4161H63.299V52.6089H56.0942V63.4161ZM57.895 54.4097H61.4974V61.6145H57.895V54.4097ZM20.5198 44.5033C22.0094 44.5033 23.2214 43.2913 23.2214 41.8017C23.2214 40.3121 22.0094 39.0993 20.5198 39.0993C19.0302 39.0993 17.8182 40.3113 17.8182 41.8017C17.8182 43.2913 19.0302 44.5033 20.5198 44.5033ZM20.5198 40.9009C21.0158 40.9009 21.4198 41.3049 21.4198 41.8017C21.4198 42.2977 21.0158 42.7025 20.5198 42.7025C20.023 42.7025 19.619 42.2985 19.619 41.8017C19.6198 41.3049 20.023 40.9009 20.5198 40.9009ZM28.175 46.3449C27.8518 46.3993 27.5478 46.5113 27.2742 46.6697C26.9126 46.8793 26.6038 47.1689 26.3734 47.5153C26.0894 47.9433 25.923 48.4553 25.923 49.0057C25.923 49.5569 26.0894 50.0689 26.3734 50.4961C26.6038 50.8433 26.9126 51.1329 27.2742 51.3425C27.5478 51.5017 27.8518 51.6129 28.175 51.6673C28.3214 51.6921 28.4718 51.7081 28.6254 51.7081C30.115 51.7081 31.327 50.4961 31.327 49.0057C31.327 47.5161 30.115 46.3041 28.6254 46.3041C28.4718 46.3041 28.3222 46.3201 28.175 46.3449ZM29.5262 49.0057C29.5262 49.5025 29.1222 49.9065 28.6254 49.9065C28.4606 49.9065 28.3078 49.8593 28.175 49.7809C27.907 49.6249 27.7246 49.3377 27.7246 49.0057C27.7246 48.6745 27.907 48.3873 28.175 48.2305C28.3078 48.1529 28.4606 48.1057 28.6254 48.1057C29.1222 48.1057 29.5262 48.5097 29.5262 49.0057ZM20.1662 50.1281L26.3734 41.2601L27.2742 39.9737L27.503 39.6465L28.1742 40.1161L28.9782 40.6793L28.1742 41.8273L27.2734 43.1137L26.3726 44.4001L21.6406 51.1601L20.1662 50.1281ZM47.0878 34.5961H43.4854H41.6838H34.479V36.3977H35.235H41.683V40.0001H37.1814V41.8017H41.6846V45.4041H38.0822V47.2057H41.6846V50.8081H36.2806V52.6097H41.6846V56.2121H38.0822V54.4105H36.2806V56.2121H34.4798V58.0137H36.2806V61.6161H32.6782V57.1121H31.9222H30.8774V63.4161H36.2814H38.083H41.6854H43.487H47.0894H48.891H54.295V58.0121V56.2105V52.6081V50.8065V47.2041V45.4025V41.8001V40.0001V34.5961H48.891H47.0878ZM52.4918 40.0001H48.8894V36.3977H52.4918V40.0001ZM52.4918 45.4041H48.8894V41.8017H52.4918V45.4041ZM52.4918 50.8073H48.8894V47.2049H52.4918V50.8073ZM52.4918 56.2113H48.8894V52.6089H52.4918V56.2113ZM52.4918 61.6145H48.8894V58.0121H52.4918V61.6145ZM43.4854 58.0121H47.0878V61.6145H43.4854V58.0121ZM43.4854 36.3977H47.0878V40.0001H43.4854V36.3977ZM43.4854 41.8017H47.0878V45.4041H43.4854V41.8017ZM43.4854 47.2049H47.0878V50.8073H43.4854V47.2049ZM43.4854 52.6089H47.0878V56.2113H43.4854V52.6089ZM38.0822 58.0121H41.6846V61.6145H38.0822V58.0121ZM50.6902 30.9945V32.7953C48.8886 32.7953 50.6902 32.7953 48.8886 32.7953V30.9945H50.6902ZM43.4854 32.7953C41.6838 32.7953 43.4854 32.7953 41.6838 32.7953V30.9945H43.4854V32.7953ZM36.2806 30.9945V32.7953C34.4798 32.7953 36.2806 32.7953 34.4798 32.7953V30.9945H36.2806ZM47.0878 32.7953C45.287 32.7953 47.0878 32.7953 45.287 32.7953V30.9945H47.0878V32.7953ZM39.883 30.9945V32.7953C38.0814 32.7953 39.883 32.7953 38.0814 32.7953V30.9945H39.883ZM52.4918 30.9945H54.2934V32.7953C52.4918 32.7953 54.2934 32.7953 52.4918 32.7953V30.9945ZM55.1934 21.9881H59.6966V23.7897H55.1934V21.9881Z" fill="#00B806"/>
</svg>
